G04 #@! TF.GenerationSoftware,KiCad,Pcbnew,(5.0.2)-1*
G04 #@! TF.CreationDate,2020-05-08T19:47:47+09:00*
G04 #@! TF.ProjectId,Sensorless_BLDC_Driver,53656e73-6f72-46c6-9573-735f424c4443,rev?*
G04 #@! TF.SameCoordinates,Original*
G04 #@! TF.FileFunction,Soldermask,Bot*
G04 #@! TF.FilePolarity,Negative*
%FSLAX46Y46*%
G04 Gerber Fmt 4.6, Leading zero omitted, Abs format (unit mm)*
G04 Created by KiCad (PCBNEW (5.0.2)-1) date 2020/05/08 19:47:47*
%MOMM*%
%LPD*%
G01*
G04 APERTURE LIST*
%ADD10C,0.100000*%
G04 APERTURE END LIST*
D10*
G36*
X198262565Y-148672389D02*
X198453834Y-148751615D01*
X198625976Y-148866637D01*
X198772363Y-149013024D01*
X198887385Y-149185166D01*
X198966611Y-149376435D01*
X199007000Y-149579484D01*
X199007000Y-149786516D01*
X198966611Y-149989565D01*
X198887385Y-150180834D01*
X198772363Y-150352976D01*
X198625976Y-150499363D01*
X198453834Y-150614385D01*
X198262565Y-150693611D01*
X198059516Y-150734000D01*
X197852484Y-150734000D01*
X197649435Y-150693611D01*
X197458166Y-150614385D01*
X197286024Y-150499363D01*
X197139637Y-150352976D01*
X197024615Y-150180834D01*
X196945389Y-149989565D01*
X196905000Y-149786516D01*
X196905000Y-149579484D01*
X196945389Y-149376435D01*
X197024615Y-149185166D01*
X197139637Y-149013024D01*
X197286024Y-148866637D01*
X197458166Y-148751615D01*
X197649435Y-148672389D01*
X197852484Y-148632000D01*
X198059516Y-148632000D01*
X198262565Y-148672389D01*
X198262565Y-148672389D01*
G37*
G36*
X177942565Y-148672389D02*
X178133834Y-148751615D01*
X178305976Y-148866637D01*
X178452363Y-149013024D01*
X178567385Y-149185166D01*
X178646611Y-149376435D01*
X178687000Y-149579484D01*
X178687000Y-149786516D01*
X178646611Y-149989565D01*
X178567385Y-150180834D01*
X178452363Y-150352976D01*
X178305976Y-150499363D01*
X178133834Y-150614385D01*
X177942565Y-150693611D01*
X177739516Y-150734000D01*
X177532484Y-150734000D01*
X177329435Y-150693611D01*
X177138166Y-150614385D01*
X176966024Y-150499363D01*
X176819637Y-150352976D01*
X176704615Y-150180834D01*
X176625389Y-149989565D01*
X176585000Y-149786516D01*
X176585000Y-149579484D01*
X176625389Y-149376435D01*
X176704615Y-149185166D01*
X176819637Y-149013024D01*
X176966024Y-148866637D01*
X177138166Y-148751615D01*
X177329435Y-148672389D01*
X177532484Y-148632000D01*
X177739516Y-148632000D01*
X177942565Y-148672389D01*
X177942565Y-148672389D01*
G37*
G36*
X228875256Y-146891298D02*
X228981579Y-146912447D01*
X229282042Y-147036903D01*
X229548852Y-147215180D01*
X229552454Y-147217587D01*
X229782413Y-147447546D01*
X229963098Y-147717960D01*
X230087553Y-148018422D01*
X230151000Y-148337389D01*
X230151000Y-148662611D01*
X230110417Y-148866635D01*
X230087553Y-148981579D01*
X230003225Y-149185165D01*
X229963098Y-149282040D01*
X229782413Y-149552454D01*
X229552454Y-149782413D01*
X229552451Y-149782415D01*
X229282042Y-149963097D01*
X228981579Y-150087553D01*
X228875256Y-150108702D01*
X228662611Y-150151000D01*
X228337389Y-150151000D01*
X228124744Y-150108702D01*
X228018421Y-150087553D01*
X227717958Y-149963097D01*
X227447549Y-149782415D01*
X227447546Y-149782413D01*
X227217587Y-149552454D01*
X227036902Y-149282040D01*
X226996775Y-149185165D01*
X226912447Y-148981579D01*
X226889583Y-148866635D01*
X226849000Y-148662611D01*
X226849000Y-148337389D01*
X226912447Y-148018422D01*
X227036902Y-147717960D01*
X227217587Y-147447546D01*
X227447546Y-147217587D01*
X227451148Y-147215180D01*
X227717958Y-147036903D01*
X228018421Y-146912447D01*
X228124744Y-146891298D01*
X228337389Y-146849000D01*
X228662611Y-146849000D01*
X228875256Y-146891298D01*
X228875256Y-146891298D01*
G37*
G36*
X161875256Y-146891298D02*
X161981579Y-146912447D01*
X162282042Y-147036903D01*
X162548852Y-147215180D01*
X162552454Y-147217587D01*
X162782413Y-147447546D01*
X162963098Y-147717960D01*
X163087553Y-148018422D01*
X163151000Y-148337389D01*
X163151000Y-148662611D01*
X163110417Y-148866635D01*
X163087553Y-148981579D01*
X163003225Y-149185165D01*
X162963098Y-149282040D01*
X162782413Y-149552454D01*
X162552454Y-149782413D01*
X162552451Y-149782415D01*
X162282042Y-149963097D01*
X161981579Y-150087553D01*
X161875256Y-150108702D01*
X161662611Y-150151000D01*
X161337389Y-150151000D01*
X161124744Y-150108702D01*
X161018421Y-150087553D01*
X160717958Y-149963097D01*
X160447549Y-149782415D01*
X160447546Y-149782413D01*
X160217587Y-149552454D01*
X160036902Y-149282040D01*
X159996775Y-149185165D01*
X159912447Y-148981579D01*
X159889583Y-148866635D01*
X159849000Y-148662611D01*
X159849000Y-148337389D01*
X159912447Y-148018422D01*
X160036902Y-147717960D01*
X160217587Y-147447546D01*
X160447546Y-147217587D01*
X160451148Y-147215180D01*
X160717958Y-147036903D01*
X161018421Y-146912447D01*
X161124744Y-146891298D01*
X161337389Y-146849000D01*
X161662611Y-146849000D01*
X161875256Y-146891298D01*
X161875256Y-146891298D01*
G37*
G36*
X177942565Y-146132389D02*
X178133834Y-146211615D01*
X178305976Y-146326637D01*
X178452363Y-146473024D01*
X178567385Y-146645166D01*
X178646611Y-146836435D01*
X178687000Y-147039484D01*
X178687000Y-147246516D01*
X178646611Y-147449565D01*
X178567385Y-147640834D01*
X178452363Y-147812976D01*
X178305976Y-147959363D01*
X178133834Y-148074385D01*
X177942565Y-148153611D01*
X177739516Y-148194000D01*
X177532484Y-148194000D01*
X177329435Y-148153611D01*
X177138166Y-148074385D01*
X176966024Y-147959363D01*
X176819637Y-147812976D01*
X176704615Y-147640834D01*
X176625389Y-147449565D01*
X176585000Y-147246516D01*
X176585000Y-147039484D01*
X176625389Y-146836435D01*
X176704615Y-146645166D01*
X176819637Y-146473024D01*
X176966024Y-146326637D01*
X177138166Y-146211615D01*
X177329435Y-146132389D01*
X177532484Y-146092000D01*
X177739516Y-146092000D01*
X177942565Y-146132389D01*
X177942565Y-146132389D01*
G37*
G36*
X198262565Y-146132389D02*
X198453834Y-146211615D01*
X198625976Y-146326637D01*
X198772363Y-146473024D01*
X198887385Y-146645166D01*
X198966611Y-146836435D01*
X199007000Y-147039484D01*
X199007000Y-147246516D01*
X198966611Y-147449565D01*
X198887385Y-147640834D01*
X198772363Y-147812976D01*
X198625976Y-147959363D01*
X198453834Y-148074385D01*
X198262565Y-148153611D01*
X198059516Y-148194000D01*
X197852484Y-148194000D01*
X197649435Y-148153611D01*
X197458166Y-148074385D01*
X197286024Y-147959363D01*
X197139637Y-147812976D01*
X197024615Y-147640834D01*
X196945389Y-147449565D01*
X196905000Y-147246516D01*
X196905000Y-147039484D01*
X196945389Y-146836435D01*
X197024615Y-146645166D01*
X197139637Y-146473024D01*
X197286024Y-146326637D01*
X197458166Y-146211615D01*
X197649435Y-146132389D01*
X197852484Y-146092000D01*
X198059516Y-146092000D01*
X198262565Y-146132389D01*
X198262565Y-146132389D01*
G37*
G36*
X170576565Y-143719389D02*
X170767834Y-143798615D01*
X170939976Y-143913637D01*
X171086363Y-144060024D01*
X171201385Y-144232166D01*
X171280611Y-144423435D01*
X171321000Y-144626484D01*
X171321000Y-144833516D01*
X171280611Y-145036565D01*
X171201385Y-145227834D01*
X171086363Y-145399976D01*
X170939976Y-145546363D01*
X170767834Y-145661385D01*
X170576565Y-145740611D01*
X170373516Y-145781000D01*
X170166484Y-145781000D01*
X169963435Y-145740611D01*
X169772166Y-145661385D01*
X169600024Y-145546363D01*
X169453637Y-145399976D01*
X169338615Y-145227834D01*
X169259389Y-145036565D01*
X169219000Y-144833516D01*
X169219000Y-144626484D01*
X169259389Y-144423435D01*
X169338615Y-144232166D01*
X169453637Y-144060024D01*
X169600024Y-143913637D01*
X169772166Y-143798615D01*
X169963435Y-143719389D01*
X170166484Y-143679000D01*
X170373516Y-143679000D01*
X170576565Y-143719389D01*
X170576565Y-143719389D01*
G37*
G36*
X177942565Y-143592389D02*
X178133834Y-143671615D01*
X178305976Y-143786637D01*
X178452363Y-143933024D01*
X178567385Y-144105166D01*
X178646611Y-144296435D01*
X178687000Y-144499484D01*
X178687000Y-144706516D01*
X178646611Y-144909565D01*
X178567385Y-145100834D01*
X178452363Y-145272976D01*
X178305976Y-145419363D01*
X178133834Y-145534385D01*
X177942565Y-145613611D01*
X177739516Y-145654000D01*
X177532484Y-145654000D01*
X177329435Y-145613611D01*
X177138166Y-145534385D01*
X176966024Y-145419363D01*
X176819637Y-145272976D01*
X176704615Y-145100834D01*
X176625389Y-144909565D01*
X176585000Y-144706516D01*
X176585000Y-144499484D01*
X176625389Y-144296435D01*
X176704615Y-144105166D01*
X176819637Y-143933024D01*
X176966024Y-143786637D01*
X177138166Y-143671615D01*
X177329435Y-143592389D01*
X177532484Y-143552000D01*
X177739516Y-143552000D01*
X177942565Y-143592389D01*
X177942565Y-143592389D01*
G37*
G36*
X198262565Y-143592389D02*
X198453834Y-143671615D01*
X198625976Y-143786637D01*
X198772363Y-143933024D01*
X198887385Y-144105166D01*
X198966611Y-144296435D01*
X199007000Y-144499484D01*
X199007000Y-144706516D01*
X198966611Y-144909565D01*
X198887385Y-145100834D01*
X198772363Y-145272976D01*
X198625976Y-145419363D01*
X198453834Y-145534385D01*
X198262565Y-145613611D01*
X198059516Y-145654000D01*
X197852484Y-145654000D01*
X197649435Y-145613611D01*
X197458166Y-145534385D01*
X197286024Y-145419363D01*
X197139637Y-145272976D01*
X197024615Y-145100834D01*
X196945389Y-144909565D01*
X196905000Y-144706516D01*
X196905000Y-144499484D01*
X196945389Y-144296435D01*
X197024615Y-144105166D01*
X197139637Y-143933024D01*
X197286024Y-143786637D01*
X197458166Y-143671615D01*
X197649435Y-143592389D01*
X197852484Y-143552000D01*
X198059516Y-143552000D01*
X198262565Y-143592389D01*
X198262565Y-143592389D01*
G37*
G36*
X231256228Y-142535703D02*
X231411100Y-142599853D01*
X231550481Y-142692985D01*
X231669015Y-142811519D01*
X231762147Y-142950900D01*
X231826297Y-143105772D01*
X231859000Y-143270184D01*
X231859000Y-143437816D01*
X231826297Y-143602228D01*
X231762147Y-143757100D01*
X231669015Y-143896481D01*
X231550481Y-144015015D01*
X231411100Y-144108147D01*
X231256228Y-144172297D01*
X231091816Y-144205000D01*
X230924184Y-144205000D01*
X230759772Y-144172297D01*
X230604900Y-144108147D01*
X230465519Y-144015015D01*
X230346985Y-143896481D01*
X230253853Y-143757100D01*
X230189703Y-143602228D01*
X230157000Y-143437816D01*
X230157000Y-143270184D01*
X230189703Y-143105772D01*
X230253853Y-142950900D01*
X230346985Y-142811519D01*
X230465519Y-142692985D01*
X230604900Y-142599853D01*
X230759772Y-142535703D01*
X230924184Y-142503000D01*
X231091816Y-142503000D01*
X231256228Y-142535703D01*
X231256228Y-142535703D01*
G37*
G36*
X170576565Y-141219389D02*
X170767834Y-141298615D01*
X170939976Y-141413637D01*
X171086363Y-141560024D01*
X171201385Y-141732166D01*
X171280611Y-141923435D01*
X171321000Y-142126484D01*
X171321000Y-142333516D01*
X171280611Y-142536565D01*
X171201385Y-142727834D01*
X171086363Y-142899976D01*
X170939976Y-143046363D01*
X170767834Y-143161385D01*
X170576565Y-143240611D01*
X170373516Y-143281000D01*
X170166484Y-143281000D01*
X169963435Y-143240611D01*
X169772166Y-143161385D01*
X169600024Y-143046363D01*
X169453637Y-142899976D01*
X169338615Y-142727834D01*
X169259389Y-142536565D01*
X169219000Y-142333516D01*
X169219000Y-142126484D01*
X169259389Y-141923435D01*
X169338615Y-141732166D01*
X169453637Y-141560024D01*
X169600024Y-141413637D01*
X169772166Y-141298615D01*
X169963435Y-141219389D01*
X170166484Y-141179000D01*
X170373516Y-141179000D01*
X170576565Y-141219389D01*
X170576565Y-141219389D01*
G37*
G36*
X177942565Y-141052389D02*
X178133834Y-141131615D01*
X178305976Y-141246637D01*
X178452363Y-141393024D01*
X178567385Y-141565166D01*
X178646611Y-141756435D01*
X178687000Y-141959484D01*
X178687000Y-142166516D01*
X178646611Y-142369565D01*
X178567385Y-142560834D01*
X178452363Y-142732976D01*
X178305976Y-142879363D01*
X178133834Y-142994385D01*
X177942565Y-143073611D01*
X177739516Y-143114000D01*
X177532484Y-143114000D01*
X177329435Y-143073611D01*
X177138166Y-142994385D01*
X176966024Y-142879363D01*
X176819637Y-142732976D01*
X176704615Y-142560834D01*
X176625389Y-142369565D01*
X176585000Y-142166516D01*
X176585000Y-141959484D01*
X176625389Y-141756435D01*
X176704615Y-141565166D01*
X176819637Y-141393024D01*
X176966024Y-141246637D01*
X177138166Y-141131615D01*
X177329435Y-141052389D01*
X177532484Y-141012000D01*
X177739516Y-141012000D01*
X177942565Y-141052389D01*
X177942565Y-141052389D01*
G37*
G36*
X198262565Y-141052389D02*
X198453834Y-141131615D01*
X198625976Y-141246637D01*
X198772363Y-141393024D01*
X198887385Y-141565166D01*
X198966611Y-141756435D01*
X199007000Y-141959484D01*
X199007000Y-142166516D01*
X198966611Y-142369565D01*
X198887385Y-142560834D01*
X198772363Y-142732976D01*
X198625976Y-142879363D01*
X198453834Y-142994385D01*
X198262565Y-143073611D01*
X198059516Y-143114000D01*
X197852484Y-143114000D01*
X197649435Y-143073611D01*
X197458166Y-142994385D01*
X197286024Y-142879363D01*
X197139637Y-142732976D01*
X197024615Y-142560834D01*
X196945389Y-142369565D01*
X196905000Y-142166516D01*
X196905000Y-141959484D01*
X196945389Y-141756435D01*
X197024615Y-141565166D01*
X197139637Y-141393024D01*
X197286024Y-141246637D01*
X197458166Y-141131615D01*
X197649435Y-141052389D01*
X197852484Y-141012000D01*
X198059516Y-141012000D01*
X198262565Y-141052389D01*
X198262565Y-141052389D01*
G37*
G36*
X227183331Y-138172211D02*
X227511092Y-138307974D01*
X227806073Y-138505074D01*
X228056926Y-138755927D01*
X228254026Y-139050908D01*
X228389789Y-139378669D01*
X228459000Y-139726616D01*
X228459000Y-140081384D01*
X228389789Y-140429331D01*
X228254026Y-140757092D01*
X228056926Y-141052073D01*
X227806073Y-141302926D01*
X227511092Y-141500026D01*
X227183331Y-141635789D01*
X226835384Y-141705000D01*
X226480616Y-141705000D01*
X226132669Y-141635789D01*
X225804908Y-141500026D01*
X225509927Y-141302926D01*
X225259074Y-141052073D01*
X225061974Y-140757092D01*
X224926211Y-140429331D01*
X224857000Y-140081384D01*
X224857000Y-139726616D01*
X224926211Y-139378669D01*
X225061974Y-139050908D01*
X225259074Y-138755927D01*
X225509927Y-138505074D01*
X225804908Y-138307974D01*
X226132669Y-138172211D01*
X226480616Y-138103000D01*
X226835384Y-138103000D01*
X227183331Y-138172211D01*
X227183331Y-138172211D01*
G37*
G36*
X170576565Y-138719389D02*
X170767834Y-138798615D01*
X170939976Y-138913637D01*
X171086363Y-139060024D01*
X171201385Y-139232166D01*
X171280611Y-139423435D01*
X171321000Y-139626484D01*
X171321000Y-139833516D01*
X171280611Y-140036565D01*
X171201385Y-140227834D01*
X171086363Y-140399976D01*
X170939976Y-140546363D01*
X170767834Y-140661385D01*
X170576565Y-140740611D01*
X170373516Y-140781000D01*
X170166484Y-140781000D01*
X169963435Y-140740611D01*
X169772166Y-140661385D01*
X169600024Y-140546363D01*
X169453637Y-140399976D01*
X169338615Y-140227834D01*
X169259389Y-140036565D01*
X169219000Y-139833516D01*
X169219000Y-139626484D01*
X169259389Y-139423435D01*
X169338615Y-139232166D01*
X169453637Y-139060024D01*
X169600024Y-138913637D01*
X169772166Y-138798615D01*
X169963435Y-138719389D01*
X170166484Y-138679000D01*
X170373516Y-138679000D01*
X170576565Y-138719389D01*
X170576565Y-138719389D01*
G37*
G36*
X177942565Y-138512389D02*
X178133834Y-138591615D01*
X178305976Y-138706637D01*
X178452363Y-138853024D01*
X178567385Y-139025166D01*
X178646611Y-139216435D01*
X178687000Y-139419484D01*
X178687000Y-139626516D01*
X178646611Y-139829565D01*
X178567385Y-140020834D01*
X178452363Y-140192976D01*
X178305976Y-140339363D01*
X178133834Y-140454385D01*
X177942565Y-140533611D01*
X177739516Y-140574000D01*
X177532484Y-140574000D01*
X177329435Y-140533611D01*
X177138166Y-140454385D01*
X176966024Y-140339363D01*
X176819637Y-140192976D01*
X176704615Y-140020834D01*
X176625389Y-139829565D01*
X176585000Y-139626516D01*
X176585000Y-139419484D01*
X176625389Y-139216435D01*
X176704615Y-139025166D01*
X176819637Y-138853024D01*
X176966024Y-138706637D01*
X177138166Y-138591615D01*
X177329435Y-138512389D01*
X177532484Y-138472000D01*
X177739516Y-138472000D01*
X177942565Y-138512389D01*
X177942565Y-138512389D01*
G37*
G36*
X198262565Y-138512389D02*
X198453834Y-138591615D01*
X198625976Y-138706637D01*
X198772363Y-138853024D01*
X198887385Y-139025166D01*
X198966611Y-139216435D01*
X199007000Y-139419484D01*
X199007000Y-139626516D01*
X198966611Y-139829565D01*
X198887385Y-140020834D01*
X198772363Y-140192976D01*
X198625976Y-140339363D01*
X198453834Y-140454385D01*
X198262565Y-140533611D01*
X198059516Y-140574000D01*
X197852484Y-140574000D01*
X197649435Y-140533611D01*
X197458166Y-140454385D01*
X197286024Y-140339363D01*
X197139637Y-140192976D01*
X197024615Y-140020834D01*
X196945389Y-139829565D01*
X196905000Y-139626516D01*
X196905000Y-139419484D01*
X196945389Y-139216435D01*
X197024615Y-139025166D01*
X197139637Y-138853024D01*
X197286024Y-138706637D01*
X197458166Y-138591615D01*
X197649435Y-138512389D01*
X197852484Y-138472000D01*
X198059516Y-138472000D01*
X198262565Y-138512389D01*
X198262565Y-138512389D01*
G37*
G36*
X170576565Y-136219389D02*
X170767834Y-136298615D01*
X170939976Y-136413637D01*
X171086363Y-136560024D01*
X171201385Y-136732166D01*
X171280611Y-136923435D01*
X171321000Y-137126484D01*
X171321000Y-137333516D01*
X171280611Y-137536565D01*
X171201385Y-137727834D01*
X171086363Y-137899976D01*
X170939976Y-138046363D01*
X170767834Y-138161385D01*
X170576565Y-138240611D01*
X170373516Y-138281000D01*
X170166484Y-138281000D01*
X169963435Y-138240611D01*
X169772166Y-138161385D01*
X169600024Y-138046363D01*
X169453637Y-137899976D01*
X169338615Y-137727834D01*
X169259389Y-137536565D01*
X169219000Y-137333516D01*
X169219000Y-137126484D01*
X169259389Y-136923435D01*
X169338615Y-136732166D01*
X169453637Y-136560024D01*
X169600024Y-136413637D01*
X169772166Y-136298615D01*
X169963435Y-136219389D01*
X170166484Y-136179000D01*
X170373516Y-136179000D01*
X170576565Y-136219389D01*
X170576565Y-136219389D01*
G37*
G36*
X198262565Y-135972389D02*
X198453834Y-136051615D01*
X198625976Y-136166637D01*
X198772363Y-136313024D01*
X198887385Y-136485166D01*
X198966611Y-136676435D01*
X199007000Y-136879484D01*
X199007000Y-137086516D01*
X198966611Y-137289565D01*
X198887385Y-137480834D01*
X198772363Y-137652976D01*
X198625976Y-137799363D01*
X198453834Y-137914385D01*
X198262565Y-137993611D01*
X198059516Y-138034000D01*
X197852484Y-138034000D01*
X197649435Y-137993611D01*
X197458166Y-137914385D01*
X197286024Y-137799363D01*
X197139637Y-137652976D01*
X197024615Y-137480834D01*
X196945389Y-137289565D01*
X196905000Y-137086516D01*
X196905000Y-136879484D01*
X196945389Y-136676435D01*
X197024615Y-136485166D01*
X197139637Y-136313024D01*
X197286024Y-136166637D01*
X197458166Y-136051615D01*
X197649435Y-135972389D01*
X197852484Y-135932000D01*
X198059516Y-135932000D01*
X198262565Y-135972389D01*
X198262565Y-135972389D01*
G37*
G36*
X177942565Y-135972389D02*
X178133834Y-136051615D01*
X178305976Y-136166637D01*
X178452363Y-136313024D01*
X178567385Y-136485166D01*
X178646611Y-136676435D01*
X178687000Y-136879484D01*
X178687000Y-137086516D01*
X178646611Y-137289565D01*
X178567385Y-137480834D01*
X178452363Y-137652976D01*
X178305976Y-137799363D01*
X178133834Y-137914385D01*
X177942565Y-137993611D01*
X177739516Y-138034000D01*
X177532484Y-138034000D01*
X177329435Y-137993611D01*
X177138166Y-137914385D01*
X176966024Y-137799363D01*
X176819637Y-137652976D01*
X176704615Y-137480834D01*
X176625389Y-137289565D01*
X176585000Y-137086516D01*
X176585000Y-136879484D01*
X176625389Y-136676435D01*
X176704615Y-136485166D01*
X176819637Y-136313024D01*
X176966024Y-136166637D01*
X177138166Y-136051615D01*
X177329435Y-135972389D01*
X177532484Y-135932000D01*
X177739516Y-135932000D01*
X177942565Y-135972389D01*
X177942565Y-135972389D01*
G37*
G36*
X170576565Y-133719389D02*
X170767834Y-133798615D01*
X170939976Y-133913637D01*
X171086363Y-134060024D01*
X171201385Y-134232166D01*
X171280611Y-134423435D01*
X171321000Y-134626484D01*
X171321000Y-134833516D01*
X171280611Y-135036565D01*
X171201385Y-135227834D01*
X171086363Y-135399976D01*
X170939976Y-135546363D01*
X170767834Y-135661385D01*
X170576565Y-135740611D01*
X170373516Y-135781000D01*
X170166484Y-135781000D01*
X169963435Y-135740611D01*
X169772166Y-135661385D01*
X169600024Y-135546363D01*
X169453637Y-135399976D01*
X169338615Y-135227834D01*
X169259389Y-135036565D01*
X169219000Y-134833516D01*
X169219000Y-134626484D01*
X169259389Y-134423435D01*
X169338615Y-134232166D01*
X169453637Y-134060024D01*
X169600024Y-133913637D01*
X169772166Y-133798615D01*
X169963435Y-133719389D01*
X170166484Y-133679000D01*
X170373516Y-133679000D01*
X170576565Y-133719389D01*
X170576565Y-133719389D01*
G37*
G36*
X177942565Y-133432389D02*
X178133834Y-133511615D01*
X178305976Y-133626637D01*
X178452363Y-133773024D01*
X178567385Y-133945166D01*
X178646611Y-134136435D01*
X178687000Y-134339484D01*
X178687000Y-134546516D01*
X178646611Y-134749565D01*
X178567385Y-134940834D01*
X178452363Y-135112976D01*
X178305976Y-135259363D01*
X178133834Y-135374385D01*
X177942565Y-135453611D01*
X177739516Y-135494000D01*
X177532484Y-135494000D01*
X177329435Y-135453611D01*
X177138166Y-135374385D01*
X176966024Y-135259363D01*
X176819637Y-135112976D01*
X176704615Y-134940834D01*
X176625389Y-134749565D01*
X176585000Y-134546516D01*
X176585000Y-134339484D01*
X176625389Y-134136435D01*
X176704615Y-133945166D01*
X176819637Y-133773024D01*
X176966024Y-133626637D01*
X177138166Y-133511615D01*
X177329435Y-133432389D01*
X177532484Y-133392000D01*
X177739516Y-133392000D01*
X177942565Y-133432389D01*
X177942565Y-133432389D01*
G37*
G36*
X198262565Y-133432389D02*
X198453834Y-133511615D01*
X198625976Y-133626637D01*
X198772363Y-133773024D01*
X198887385Y-133945166D01*
X198966611Y-134136435D01*
X199007000Y-134339484D01*
X199007000Y-134546516D01*
X198966611Y-134749565D01*
X198887385Y-134940834D01*
X198772363Y-135112976D01*
X198625976Y-135259363D01*
X198453834Y-135374385D01*
X198262565Y-135453611D01*
X198059516Y-135494000D01*
X197852484Y-135494000D01*
X197649435Y-135453611D01*
X197458166Y-135374385D01*
X197286024Y-135259363D01*
X197139637Y-135112976D01*
X197024615Y-134940834D01*
X196945389Y-134749565D01*
X196905000Y-134546516D01*
X196905000Y-134339484D01*
X196945389Y-134136435D01*
X197024615Y-133945166D01*
X197139637Y-133773024D01*
X197286024Y-133626637D01*
X197458166Y-133511615D01*
X197649435Y-133432389D01*
X197852484Y-133392000D01*
X198059516Y-133392000D01*
X198262565Y-133432389D01*
X198262565Y-133432389D01*
G37*
G36*
X227183331Y-130552211D02*
X227511092Y-130687974D01*
X227806073Y-130885074D01*
X228056926Y-131135927D01*
X228254026Y-131430908D01*
X228389789Y-131758669D01*
X228459000Y-132106616D01*
X228459000Y-132461384D01*
X228389789Y-132809331D01*
X228254026Y-133137092D01*
X228056926Y-133432073D01*
X227806073Y-133682926D01*
X227511092Y-133880026D01*
X227183331Y-134015789D01*
X226835384Y-134085000D01*
X226480616Y-134085000D01*
X226132669Y-134015789D01*
X225804908Y-133880026D01*
X225509927Y-133682926D01*
X225259074Y-133432073D01*
X225061974Y-133137092D01*
X224926211Y-132809331D01*
X224857000Y-132461384D01*
X224857000Y-132106616D01*
X224926211Y-131758669D01*
X225061974Y-131430908D01*
X225259074Y-131135927D01*
X225509927Y-130885074D01*
X225804908Y-130687974D01*
X226132669Y-130552211D01*
X226480616Y-130483000D01*
X226835384Y-130483000D01*
X227183331Y-130552211D01*
X227183331Y-130552211D01*
G37*
G36*
X177942565Y-130892389D02*
X178133834Y-130971615D01*
X178305976Y-131086637D01*
X178452363Y-131233024D01*
X178567385Y-131405166D01*
X178646611Y-131596435D01*
X178687000Y-131799484D01*
X178687000Y-132006516D01*
X178646611Y-132209565D01*
X178567385Y-132400834D01*
X178452363Y-132572976D01*
X178305976Y-132719363D01*
X178133834Y-132834385D01*
X177942565Y-132913611D01*
X177739516Y-132954000D01*
X177532484Y-132954000D01*
X177329435Y-132913611D01*
X177138166Y-132834385D01*
X176966024Y-132719363D01*
X176819637Y-132572976D01*
X176704615Y-132400834D01*
X176625389Y-132209565D01*
X176585000Y-132006516D01*
X176585000Y-131799484D01*
X176625389Y-131596435D01*
X176704615Y-131405166D01*
X176819637Y-131233024D01*
X176966024Y-131086637D01*
X177138166Y-130971615D01*
X177329435Y-130892389D01*
X177532484Y-130852000D01*
X177739516Y-130852000D01*
X177942565Y-130892389D01*
X177942565Y-130892389D01*
G37*
G36*
X198262565Y-130892389D02*
X198453834Y-130971615D01*
X198625976Y-131086637D01*
X198772363Y-131233024D01*
X198887385Y-131405166D01*
X198966611Y-131596435D01*
X199007000Y-131799484D01*
X199007000Y-132006516D01*
X198966611Y-132209565D01*
X198887385Y-132400834D01*
X198772363Y-132572976D01*
X198625976Y-132719363D01*
X198453834Y-132834385D01*
X198262565Y-132913611D01*
X198059516Y-132954000D01*
X197852484Y-132954000D01*
X197649435Y-132913611D01*
X197458166Y-132834385D01*
X197286024Y-132719363D01*
X197139637Y-132572976D01*
X197024615Y-132400834D01*
X196945389Y-132209565D01*
X196905000Y-132006516D01*
X196905000Y-131799484D01*
X196945389Y-131596435D01*
X197024615Y-131405166D01*
X197139637Y-131233024D01*
X197286024Y-131086637D01*
X197458166Y-130971615D01*
X197649435Y-130892389D01*
X197852484Y-130852000D01*
X198059516Y-130852000D01*
X198262565Y-130892389D01*
X198262565Y-130892389D01*
G37*
G36*
X198262565Y-128352389D02*
X198453834Y-128431615D01*
X198625976Y-128546637D01*
X198772363Y-128693024D01*
X198887385Y-128865166D01*
X198966611Y-129056435D01*
X199007000Y-129259484D01*
X199007000Y-129466516D01*
X198966611Y-129669565D01*
X198887385Y-129860834D01*
X198772363Y-130032976D01*
X198625976Y-130179363D01*
X198453834Y-130294385D01*
X198262565Y-130373611D01*
X198059516Y-130414000D01*
X197852484Y-130414000D01*
X197649435Y-130373611D01*
X197458166Y-130294385D01*
X197286024Y-130179363D01*
X197139637Y-130032976D01*
X197024615Y-129860834D01*
X196945389Y-129669565D01*
X196905000Y-129466516D01*
X196905000Y-129259484D01*
X196945389Y-129056435D01*
X197024615Y-128865166D01*
X197139637Y-128693024D01*
X197286024Y-128546637D01*
X197458166Y-128431615D01*
X197649435Y-128352389D01*
X197852484Y-128312000D01*
X198059516Y-128312000D01*
X198262565Y-128352389D01*
X198262565Y-128352389D01*
G37*
G36*
X177942565Y-128352389D02*
X178133834Y-128431615D01*
X178305976Y-128546637D01*
X178452363Y-128693024D01*
X178567385Y-128865166D01*
X178646611Y-129056435D01*
X178687000Y-129259484D01*
X178687000Y-129466516D01*
X178646611Y-129669565D01*
X178567385Y-129860834D01*
X178452363Y-130032976D01*
X178305976Y-130179363D01*
X178133834Y-130294385D01*
X177942565Y-130373611D01*
X177739516Y-130414000D01*
X177532484Y-130414000D01*
X177329435Y-130373611D01*
X177138166Y-130294385D01*
X176966024Y-130179363D01*
X176819637Y-130032976D01*
X176704615Y-129860834D01*
X176625389Y-129669565D01*
X176585000Y-129466516D01*
X176585000Y-129259484D01*
X176625389Y-129056435D01*
X176704615Y-128865166D01*
X176819637Y-128693024D01*
X176966024Y-128546637D01*
X177138166Y-128431615D01*
X177329435Y-128352389D01*
X177532484Y-128312000D01*
X177739516Y-128312000D01*
X177942565Y-128352389D01*
X177942565Y-128352389D01*
G37*
G36*
X177942565Y-125812389D02*
X178133834Y-125891615D01*
X178305976Y-126006637D01*
X178452363Y-126153024D01*
X178567385Y-126325166D01*
X178646611Y-126516435D01*
X178687000Y-126719484D01*
X178687000Y-126926516D01*
X178646611Y-127129565D01*
X178567385Y-127320834D01*
X178452363Y-127492976D01*
X178305976Y-127639363D01*
X178133834Y-127754385D01*
X177942565Y-127833611D01*
X177739516Y-127874000D01*
X177532484Y-127874000D01*
X177329435Y-127833611D01*
X177138166Y-127754385D01*
X176966024Y-127639363D01*
X176819637Y-127492976D01*
X176704615Y-127320834D01*
X176625389Y-127129565D01*
X176585000Y-126926516D01*
X176585000Y-126719484D01*
X176625389Y-126516435D01*
X176704615Y-126325166D01*
X176819637Y-126153024D01*
X176966024Y-126006637D01*
X177138166Y-125891615D01*
X177329435Y-125812389D01*
X177532484Y-125772000D01*
X177739516Y-125772000D01*
X177942565Y-125812389D01*
X177942565Y-125812389D01*
G37*
G36*
X198262565Y-125812389D02*
X198453834Y-125891615D01*
X198625976Y-126006637D01*
X198772363Y-126153024D01*
X198887385Y-126325166D01*
X198966611Y-126516435D01*
X199007000Y-126719484D01*
X199007000Y-126926516D01*
X198966611Y-127129565D01*
X198887385Y-127320834D01*
X198772363Y-127492976D01*
X198625976Y-127639363D01*
X198453834Y-127754385D01*
X198262565Y-127833611D01*
X198059516Y-127874000D01*
X197852484Y-127874000D01*
X197649435Y-127833611D01*
X197458166Y-127754385D01*
X197286024Y-127639363D01*
X197139637Y-127492976D01*
X197024615Y-127320834D01*
X196945389Y-127129565D01*
X196905000Y-126926516D01*
X196905000Y-126719484D01*
X196945389Y-126516435D01*
X197024615Y-126325166D01*
X197139637Y-126153024D01*
X197286024Y-126006637D01*
X197458166Y-125891615D01*
X197649435Y-125812389D01*
X197852484Y-125772000D01*
X198059516Y-125772000D01*
X198262565Y-125812389D01*
X198262565Y-125812389D01*
G37*
G36*
X166408252Y-123067818D02*
X166408254Y-123067819D01*
X166408255Y-123067819D01*
X166781513Y-123222427D01*
X167073304Y-123417396D01*
X167117439Y-123446886D01*
X167403114Y-123732561D01*
X167403116Y-123732564D01*
X167627573Y-124068487D01*
X167759304Y-124386516D01*
X167782182Y-124441748D01*
X167861000Y-124837993D01*
X167861000Y-125242007D01*
X167850736Y-125293610D01*
X167782181Y-125638255D01*
X167627573Y-126011513D01*
X167533018Y-126153024D01*
X167403114Y-126347439D01*
X167117439Y-126633114D01*
X167117436Y-126633116D01*
X166781513Y-126857573D01*
X166408255Y-127012181D01*
X166408254Y-127012181D01*
X166408252Y-127012182D01*
X166012007Y-127091000D01*
X165607993Y-127091000D01*
X165211748Y-127012182D01*
X165211746Y-127012181D01*
X165211745Y-127012181D01*
X164838487Y-126857573D01*
X164502564Y-126633116D01*
X164502561Y-126633114D01*
X164216886Y-126347439D01*
X164086982Y-126153024D01*
X163992427Y-126011513D01*
X163837819Y-125638255D01*
X163769265Y-125293610D01*
X163759000Y-125242007D01*
X163759000Y-124837993D01*
X163837818Y-124441748D01*
X163860696Y-124386516D01*
X163992427Y-124068487D01*
X164216884Y-123732564D01*
X164216886Y-123732561D01*
X164502561Y-123446886D01*
X164546696Y-123417396D01*
X164838487Y-123222427D01*
X165211745Y-123067819D01*
X165211746Y-123067819D01*
X165211748Y-123067818D01*
X165607993Y-122989000D01*
X166012007Y-122989000D01*
X166408252Y-123067818D01*
X166408252Y-123067818D01*
G37*
G36*
X231256228Y-125009703D02*
X231411100Y-125073853D01*
X231550481Y-125166985D01*
X231669015Y-125285519D01*
X231762147Y-125424900D01*
X231826297Y-125579772D01*
X231859000Y-125744184D01*
X231859000Y-125911816D01*
X231826297Y-126076228D01*
X231762147Y-126231100D01*
X231669015Y-126370481D01*
X231550481Y-126489015D01*
X231411100Y-126582147D01*
X231256228Y-126646297D01*
X231091816Y-126679000D01*
X230924184Y-126679000D01*
X230759772Y-126646297D01*
X230604900Y-126582147D01*
X230465519Y-126489015D01*
X230346985Y-126370481D01*
X230253853Y-126231100D01*
X230189703Y-126076228D01*
X230157000Y-125911816D01*
X230157000Y-125744184D01*
X230189703Y-125579772D01*
X230253853Y-125424900D01*
X230346985Y-125285519D01*
X230465519Y-125166985D01*
X230604900Y-125073853D01*
X230759772Y-125009703D01*
X230924184Y-124977000D01*
X231091816Y-124977000D01*
X231256228Y-125009703D01*
X231256228Y-125009703D01*
G37*
G36*
X177942565Y-123272389D02*
X178133834Y-123351615D01*
X178305976Y-123466637D01*
X178452363Y-123613024D01*
X178567385Y-123785166D01*
X178646611Y-123976435D01*
X178687000Y-124179484D01*
X178687000Y-124386516D01*
X178646611Y-124589565D01*
X178567385Y-124780834D01*
X178452363Y-124952976D01*
X178305976Y-125099363D01*
X178133834Y-125214385D01*
X177942565Y-125293611D01*
X177739516Y-125334000D01*
X177532484Y-125334000D01*
X177329435Y-125293611D01*
X177138166Y-125214385D01*
X176966024Y-125099363D01*
X176819637Y-124952976D01*
X176704615Y-124780834D01*
X176625389Y-124589565D01*
X176585000Y-124386516D01*
X176585000Y-124179484D01*
X176625389Y-123976435D01*
X176704615Y-123785166D01*
X176819637Y-123613024D01*
X176966024Y-123466637D01*
X177138166Y-123351615D01*
X177329435Y-123272389D01*
X177532484Y-123232000D01*
X177739516Y-123232000D01*
X177942565Y-123272389D01*
X177942565Y-123272389D01*
G37*
G36*
X198262565Y-123272389D02*
X198453834Y-123351615D01*
X198625976Y-123466637D01*
X198772363Y-123613024D01*
X198887385Y-123785166D01*
X198966611Y-123976435D01*
X199007000Y-124179484D01*
X199007000Y-124386516D01*
X198966611Y-124589565D01*
X198887385Y-124780834D01*
X198772363Y-124952976D01*
X198625976Y-125099363D01*
X198453834Y-125214385D01*
X198262565Y-125293611D01*
X198059516Y-125334000D01*
X197852484Y-125334000D01*
X197649435Y-125293611D01*
X197458166Y-125214385D01*
X197286024Y-125099363D01*
X197139637Y-124952976D01*
X197024615Y-124780834D01*
X196945389Y-124589565D01*
X196905000Y-124386516D01*
X196905000Y-124179484D01*
X196945389Y-123976435D01*
X197024615Y-123785166D01*
X197139637Y-123613024D01*
X197286024Y-123466637D01*
X197458166Y-123351615D01*
X197649435Y-123272389D01*
X197852484Y-123232000D01*
X198059516Y-123232000D01*
X198262565Y-123272389D01*
X198262565Y-123272389D01*
G37*
G36*
X227183331Y-120646211D02*
X227511092Y-120781974D01*
X227806073Y-120979074D01*
X228056926Y-121229927D01*
X228254026Y-121524908D01*
X228389789Y-121852669D01*
X228459000Y-122200616D01*
X228459000Y-122555384D01*
X228389789Y-122903331D01*
X228254026Y-123231092D01*
X228056926Y-123526073D01*
X227806073Y-123776926D01*
X227511092Y-123974026D01*
X227183331Y-124109789D01*
X226835384Y-124179000D01*
X226480616Y-124179000D01*
X226132669Y-124109789D01*
X225804908Y-123974026D01*
X225509927Y-123776926D01*
X225259074Y-123526073D01*
X225061974Y-123231092D01*
X224926211Y-122903331D01*
X224857000Y-122555384D01*
X224857000Y-122200616D01*
X224926211Y-121852669D01*
X225061974Y-121524908D01*
X225259074Y-121229927D01*
X225509927Y-120979074D01*
X225804908Y-120781974D01*
X226132669Y-120646211D01*
X226480616Y-120577000D01*
X226835384Y-120577000D01*
X227183331Y-120646211D01*
X227183331Y-120646211D01*
G37*
G36*
X173087396Y-122225546D02*
X173260466Y-122297234D01*
X173416230Y-122401312D01*
X173548688Y-122533770D01*
X173652766Y-122689534D01*
X173724454Y-122862604D01*
X173761000Y-123046333D01*
X173761000Y-123233667D01*
X173724454Y-123417396D01*
X173652766Y-123590466D01*
X173548688Y-123746230D01*
X173416230Y-123878688D01*
X173260466Y-123982766D01*
X173087396Y-124054454D01*
X172903667Y-124091000D01*
X172716333Y-124091000D01*
X172532604Y-124054454D01*
X172359534Y-123982766D01*
X172203770Y-123878688D01*
X172071312Y-123746230D01*
X171967234Y-123590466D01*
X171895546Y-123417396D01*
X171859000Y-123233667D01*
X171859000Y-123046333D01*
X171895546Y-122862604D01*
X171967234Y-122689534D01*
X172071312Y-122533770D01*
X172203770Y-122401312D01*
X172359534Y-122297234D01*
X172532604Y-122225546D01*
X172716333Y-122189000D01*
X172903667Y-122189000D01*
X173087396Y-122225546D01*
X173087396Y-122225546D01*
G37*
G36*
X198262565Y-120732389D02*
X198453834Y-120811615D01*
X198625976Y-120926637D01*
X198772363Y-121073024D01*
X198887385Y-121245166D01*
X198966611Y-121436435D01*
X199007000Y-121639484D01*
X199007000Y-121846516D01*
X198966611Y-122049565D01*
X198887385Y-122240834D01*
X198772363Y-122412976D01*
X198625976Y-122559363D01*
X198453834Y-122674385D01*
X198262565Y-122753611D01*
X198059516Y-122794000D01*
X197852484Y-122794000D01*
X197649435Y-122753611D01*
X197458166Y-122674385D01*
X197286024Y-122559363D01*
X197139637Y-122412976D01*
X197024615Y-122240834D01*
X196945389Y-122049565D01*
X196905000Y-121846516D01*
X196905000Y-121639484D01*
X196945389Y-121436435D01*
X197024615Y-121245166D01*
X197139637Y-121073024D01*
X197286024Y-120926637D01*
X197458166Y-120811615D01*
X197649435Y-120732389D01*
X197852484Y-120692000D01*
X198059516Y-120692000D01*
X198262565Y-120732389D01*
X198262565Y-120732389D01*
G37*
G36*
X177942565Y-120732389D02*
X178133834Y-120811615D01*
X178305976Y-120926637D01*
X178452363Y-121073024D01*
X178567385Y-121245166D01*
X178646611Y-121436435D01*
X178687000Y-121639484D01*
X178687000Y-121846516D01*
X178646611Y-122049565D01*
X178567385Y-122240834D01*
X178452363Y-122412976D01*
X178305976Y-122559363D01*
X178133834Y-122674385D01*
X177942565Y-122753611D01*
X177739516Y-122794000D01*
X177532484Y-122794000D01*
X177329435Y-122753611D01*
X177138166Y-122674385D01*
X176966024Y-122559363D01*
X176819637Y-122412976D01*
X176704615Y-122240834D01*
X176625389Y-122049565D01*
X176585000Y-121846516D01*
X176585000Y-121639484D01*
X176625389Y-121436435D01*
X176704615Y-121245166D01*
X176819637Y-121073024D01*
X176966024Y-120926637D01*
X177138166Y-120811615D01*
X177329435Y-120732389D01*
X177532484Y-120692000D01*
X177739516Y-120692000D01*
X177942565Y-120732389D01*
X177942565Y-120732389D01*
G37*
G36*
X173087396Y-119725546D02*
X173260466Y-119797234D01*
X173416230Y-119901312D01*
X173548688Y-120033770D01*
X173652766Y-120189534D01*
X173724454Y-120362604D01*
X173761000Y-120546333D01*
X173761000Y-120733667D01*
X173724454Y-120917396D01*
X173652766Y-121090466D01*
X173548688Y-121246230D01*
X173416230Y-121378688D01*
X173260466Y-121482766D01*
X173087396Y-121554454D01*
X172903667Y-121591000D01*
X172716333Y-121591000D01*
X172532604Y-121554454D01*
X172359534Y-121482766D01*
X172203770Y-121378688D01*
X172071312Y-121246230D01*
X171967234Y-121090466D01*
X171895546Y-120917396D01*
X171859000Y-120733667D01*
X171859000Y-120546333D01*
X171895546Y-120362604D01*
X171967234Y-120189534D01*
X172071312Y-120033770D01*
X172203770Y-119901312D01*
X172359534Y-119797234D01*
X172532604Y-119725546D01*
X172716333Y-119689000D01*
X172903667Y-119689000D01*
X173087396Y-119725546D01*
X173087396Y-119725546D01*
G37*
G36*
X198262565Y-118192389D02*
X198453834Y-118271615D01*
X198625976Y-118386637D01*
X198772363Y-118533024D01*
X198887385Y-118705166D01*
X198966611Y-118896435D01*
X199007000Y-119099484D01*
X199007000Y-119306516D01*
X198966611Y-119509565D01*
X198887385Y-119700834D01*
X198772363Y-119872976D01*
X198625976Y-120019363D01*
X198453834Y-120134385D01*
X198262565Y-120213611D01*
X198059516Y-120254000D01*
X197852484Y-120254000D01*
X197649435Y-120213611D01*
X197458166Y-120134385D01*
X197286024Y-120019363D01*
X197139637Y-119872976D01*
X197024615Y-119700834D01*
X196945389Y-119509565D01*
X196905000Y-119306516D01*
X196905000Y-119099484D01*
X196945389Y-118896435D01*
X197024615Y-118705166D01*
X197139637Y-118533024D01*
X197286024Y-118386637D01*
X197458166Y-118271615D01*
X197649435Y-118192389D01*
X197852484Y-118152000D01*
X198059516Y-118152000D01*
X198262565Y-118192389D01*
X198262565Y-118192389D01*
G37*
G36*
X177942565Y-118192389D02*
X178133834Y-118271615D01*
X178305976Y-118386637D01*
X178452363Y-118533024D01*
X178567385Y-118705166D01*
X178646611Y-118896435D01*
X178687000Y-119099484D01*
X178687000Y-119306516D01*
X178646611Y-119509565D01*
X178567385Y-119700834D01*
X178452363Y-119872976D01*
X178305976Y-120019363D01*
X178133834Y-120134385D01*
X177942565Y-120213611D01*
X177739516Y-120254000D01*
X177532484Y-120254000D01*
X177329435Y-120213611D01*
X177138166Y-120134385D01*
X176966024Y-120019363D01*
X176819637Y-119872976D01*
X176704615Y-119700834D01*
X176625389Y-119509565D01*
X176585000Y-119306516D01*
X176585000Y-119099484D01*
X176625389Y-118896435D01*
X176704615Y-118705166D01*
X176819637Y-118533024D01*
X176966024Y-118386637D01*
X177138166Y-118271615D01*
X177329435Y-118192389D01*
X177532484Y-118152000D01*
X177739516Y-118152000D01*
X177942565Y-118192389D01*
X177942565Y-118192389D01*
G37*
G36*
X173087396Y-117225546D02*
X173260466Y-117297234D01*
X173416230Y-117401312D01*
X173548688Y-117533770D01*
X173652766Y-117689534D01*
X173724454Y-117862604D01*
X173761000Y-118046333D01*
X173761000Y-118233667D01*
X173724454Y-118417396D01*
X173652766Y-118590466D01*
X173548688Y-118746230D01*
X173416230Y-118878688D01*
X173260466Y-118982766D01*
X173087396Y-119054454D01*
X172903667Y-119091000D01*
X172716333Y-119091000D01*
X172532604Y-119054454D01*
X172359534Y-118982766D01*
X172203770Y-118878688D01*
X172071312Y-118746230D01*
X171967234Y-118590466D01*
X171895546Y-118417396D01*
X171859000Y-118233667D01*
X171859000Y-118046333D01*
X171895546Y-117862604D01*
X171967234Y-117689534D01*
X172071312Y-117533770D01*
X172203770Y-117401312D01*
X172359534Y-117297234D01*
X172532604Y-117225546D01*
X172716333Y-117189000D01*
X172903667Y-117189000D01*
X173087396Y-117225546D01*
X173087396Y-117225546D01*
G37*
G36*
X166408252Y-114267818D02*
X166408254Y-114267819D01*
X166408255Y-114267819D01*
X166781513Y-114422427D01*
X167078449Y-114620834D01*
X167117439Y-114646886D01*
X167403114Y-114932561D01*
X167403116Y-114932564D01*
X167627573Y-115268487D01*
X167769860Y-115612000D01*
X167782182Y-115641748D01*
X167861000Y-116037993D01*
X167861000Y-116442007D01*
X167796452Y-116766514D01*
X167782181Y-116838255D01*
X167627573Y-117211513D01*
X167570296Y-117297234D01*
X167403114Y-117547439D01*
X167117439Y-117833114D01*
X167117436Y-117833116D01*
X166781513Y-118057573D01*
X166408255Y-118212181D01*
X166408254Y-118212181D01*
X166408252Y-118212182D01*
X166012007Y-118291000D01*
X165607993Y-118291000D01*
X165211748Y-118212182D01*
X165211746Y-118212181D01*
X165211745Y-118212181D01*
X164838487Y-118057573D01*
X164502564Y-117833116D01*
X164502561Y-117833114D01*
X164216886Y-117547439D01*
X164049704Y-117297234D01*
X163992427Y-117211513D01*
X163837819Y-116838255D01*
X163823549Y-116766514D01*
X163759000Y-116442007D01*
X163759000Y-116037993D01*
X163837818Y-115641748D01*
X163850140Y-115612000D01*
X163992427Y-115268487D01*
X164216884Y-114932564D01*
X164216886Y-114932561D01*
X164502561Y-114646886D01*
X164541551Y-114620834D01*
X164838487Y-114422427D01*
X165211745Y-114267819D01*
X165211746Y-114267819D01*
X165211748Y-114267818D01*
X165607993Y-114189000D01*
X166012007Y-114189000D01*
X166408252Y-114267818D01*
X166408252Y-114267818D01*
G37*
G36*
X198262565Y-115652389D02*
X198453834Y-115731615D01*
X198625976Y-115846637D01*
X198772363Y-115993024D01*
X198887385Y-116165166D01*
X198966611Y-116356435D01*
X199007000Y-116559484D01*
X199007000Y-116766516D01*
X198966611Y-116969565D01*
X198887385Y-117160834D01*
X198772363Y-117332976D01*
X198625976Y-117479363D01*
X198453834Y-117594385D01*
X198262565Y-117673611D01*
X198059516Y-117714000D01*
X197852484Y-117714000D01*
X197649435Y-117673611D01*
X197458166Y-117594385D01*
X197286024Y-117479363D01*
X197139637Y-117332976D01*
X197024615Y-117160834D01*
X196945389Y-116969565D01*
X196905000Y-116766516D01*
X196905000Y-116559484D01*
X196945389Y-116356435D01*
X197024615Y-116165166D01*
X197139637Y-115993024D01*
X197286024Y-115846637D01*
X197458166Y-115731615D01*
X197649435Y-115652389D01*
X197852484Y-115612000D01*
X198059516Y-115612000D01*
X198262565Y-115652389D01*
X198262565Y-115652389D01*
G37*
G36*
X177942565Y-115652389D02*
X178133834Y-115731615D01*
X178305976Y-115846637D01*
X178452363Y-115993024D01*
X178567385Y-116165166D01*
X178646611Y-116356435D01*
X178687000Y-116559484D01*
X178687000Y-116766516D01*
X178646611Y-116969565D01*
X178567385Y-117160834D01*
X178452363Y-117332976D01*
X178305976Y-117479363D01*
X178133834Y-117594385D01*
X177942565Y-117673611D01*
X177739516Y-117714000D01*
X177532484Y-117714000D01*
X177329435Y-117673611D01*
X177138166Y-117594385D01*
X176966024Y-117479363D01*
X176819637Y-117332976D01*
X176704615Y-117160834D01*
X176625389Y-116969565D01*
X176585000Y-116766516D01*
X176585000Y-116559484D01*
X176625389Y-116356435D01*
X176704615Y-116165166D01*
X176819637Y-115993024D01*
X176966024Y-115846637D01*
X177138166Y-115731615D01*
X177329435Y-115652389D01*
X177532484Y-115612000D01*
X177739516Y-115612000D01*
X177942565Y-115652389D01*
X177942565Y-115652389D01*
G37*
G36*
X227183331Y-113026211D02*
X227511092Y-113161974D01*
X227806073Y-113359074D01*
X228056926Y-113609927D01*
X228254026Y-113904908D01*
X228389789Y-114232669D01*
X228459000Y-114580616D01*
X228459000Y-114935384D01*
X228389789Y-115283331D01*
X228254026Y-115611092D01*
X228056926Y-115906073D01*
X227806073Y-116156926D01*
X227511092Y-116354026D01*
X227183331Y-116489789D01*
X226835384Y-116559000D01*
X226480616Y-116559000D01*
X226132669Y-116489789D01*
X225804908Y-116354026D01*
X225509927Y-116156926D01*
X225259074Y-115906073D01*
X225061974Y-115611092D01*
X224926211Y-115283331D01*
X224857000Y-114935384D01*
X224857000Y-114580616D01*
X224926211Y-114232669D01*
X225061974Y-113904908D01*
X225259074Y-113609927D01*
X225509927Y-113359074D01*
X225804908Y-113161974D01*
X226132669Y-113026211D01*
X226480616Y-112957000D01*
X226835384Y-112957000D01*
X227183331Y-113026211D01*
X227183331Y-113026211D01*
G37*
G36*
X198262565Y-113112389D02*
X198453834Y-113191615D01*
X198625976Y-113306637D01*
X198772363Y-113453024D01*
X198887385Y-113625166D01*
X198966611Y-113816435D01*
X199007000Y-114019484D01*
X199007000Y-114226516D01*
X198966611Y-114429565D01*
X198887385Y-114620834D01*
X198772363Y-114792976D01*
X198625976Y-114939363D01*
X198453834Y-115054385D01*
X198262565Y-115133611D01*
X198059516Y-115174000D01*
X197852484Y-115174000D01*
X197649435Y-115133611D01*
X197458166Y-115054385D01*
X197286024Y-114939363D01*
X197139637Y-114792976D01*
X197024615Y-114620834D01*
X196945389Y-114429565D01*
X196905000Y-114226516D01*
X196905000Y-114019484D01*
X196945389Y-113816435D01*
X197024615Y-113625166D01*
X197139637Y-113453024D01*
X197286024Y-113306637D01*
X197458166Y-113191615D01*
X197649435Y-113112389D01*
X197852484Y-113072000D01*
X198059516Y-113072000D01*
X198262565Y-113112389D01*
X198262565Y-113112389D01*
G37*
G36*
X177942565Y-113112389D02*
X178133834Y-113191615D01*
X178305976Y-113306637D01*
X178452363Y-113453024D01*
X178567385Y-113625166D01*
X178646611Y-113816435D01*
X178687000Y-114019484D01*
X178687000Y-114226516D01*
X178646611Y-114429565D01*
X178567385Y-114620834D01*
X178452363Y-114792976D01*
X178305976Y-114939363D01*
X178133834Y-115054385D01*
X177942565Y-115133611D01*
X177739516Y-115174000D01*
X177532484Y-115174000D01*
X177329435Y-115133611D01*
X177138166Y-115054385D01*
X176966024Y-114939363D01*
X176819637Y-114792976D01*
X176704615Y-114620834D01*
X176625389Y-114429565D01*
X176585000Y-114226516D01*
X176585000Y-114019484D01*
X176625389Y-113816435D01*
X176704615Y-113625166D01*
X176819637Y-113453024D01*
X176966024Y-113306637D01*
X177138166Y-113191615D01*
X177329435Y-113112389D01*
X177532484Y-113072000D01*
X177739516Y-113072000D01*
X177942565Y-113112389D01*
X177942565Y-113112389D01*
G37*
G36*
X177942565Y-110572389D02*
X178133834Y-110651615D01*
X178305976Y-110766637D01*
X178452363Y-110913024D01*
X178567385Y-111085166D01*
X178646611Y-111276435D01*
X178687000Y-111479484D01*
X178687000Y-111686516D01*
X178646611Y-111889565D01*
X178567385Y-112080834D01*
X178452363Y-112252976D01*
X178305976Y-112399363D01*
X178133834Y-112514385D01*
X177942565Y-112593611D01*
X177739516Y-112634000D01*
X177532484Y-112634000D01*
X177329435Y-112593611D01*
X177138166Y-112514385D01*
X176966024Y-112399363D01*
X176819637Y-112252976D01*
X176704615Y-112080834D01*
X176625389Y-111889565D01*
X176585000Y-111686516D01*
X176585000Y-111479484D01*
X176625389Y-111276435D01*
X176704615Y-111085166D01*
X176819637Y-110913024D01*
X176966024Y-110766637D01*
X177138166Y-110651615D01*
X177329435Y-110572389D01*
X177532484Y-110532000D01*
X177739516Y-110532000D01*
X177942565Y-110572389D01*
X177942565Y-110572389D01*
G37*
G36*
X198262565Y-110572389D02*
X198453834Y-110651615D01*
X198625976Y-110766637D01*
X198772363Y-110913024D01*
X198887385Y-111085166D01*
X198966611Y-111276435D01*
X199007000Y-111479484D01*
X199007000Y-111686516D01*
X198966611Y-111889565D01*
X198887385Y-112080834D01*
X198772363Y-112252976D01*
X198625976Y-112399363D01*
X198453834Y-112514385D01*
X198262565Y-112593611D01*
X198059516Y-112634000D01*
X197852484Y-112634000D01*
X197649435Y-112593611D01*
X197458166Y-112514385D01*
X197286024Y-112399363D01*
X197139637Y-112252976D01*
X197024615Y-112080834D01*
X196945389Y-111889565D01*
X196905000Y-111686516D01*
X196905000Y-111479484D01*
X196945389Y-111276435D01*
X197024615Y-111085166D01*
X197139637Y-110913024D01*
X197286024Y-110766637D01*
X197458166Y-110651615D01*
X197649435Y-110572389D01*
X197852484Y-110532000D01*
X198059516Y-110532000D01*
X198262565Y-110572389D01*
X198262565Y-110572389D01*
G37*
G36*
X166408252Y-106557818D02*
X166408254Y-106557819D01*
X166408255Y-106557819D01*
X166781513Y-106712427D01*
X166926890Y-106809565D01*
X167117439Y-106936886D01*
X167403114Y-107222561D01*
X167403116Y-107222564D01*
X167627573Y-107558487D01*
X167671001Y-107663332D01*
X167782182Y-107931748D01*
X167861000Y-108327993D01*
X167861000Y-108732007D01*
X167819827Y-108939000D01*
X167782181Y-109128255D01*
X167627573Y-109501513D01*
X167627572Y-109501514D01*
X167403114Y-109837439D01*
X167117439Y-110123114D01*
X167117436Y-110123116D01*
X166781513Y-110347573D01*
X166408255Y-110502181D01*
X166408254Y-110502181D01*
X166408252Y-110502182D01*
X166012007Y-110581000D01*
X165607993Y-110581000D01*
X165211748Y-110502182D01*
X165211746Y-110502181D01*
X165211745Y-110502181D01*
X164838487Y-110347573D01*
X164502564Y-110123116D01*
X164502561Y-110123114D01*
X164216886Y-109837439D01*
X163992428Y-109501514D01*
X163992427Y-109501513D01*
X163837819Y-109128255D01*
X163800174Y-108939000D01*
X163759000Y-108732007D01*
X163759000Y-108327993D01*
X163837818Y-107931748D01*
X163948999Y-107663332D01*
X163992427Y-107558487D01*
X164216884Y-107222564D01*
X164216886Y-107222561D01*
X164502561Y-106936886D01*
X164693110Y-106809565D01*
X164838487Y-106712427D01*
X165211745Y-106557819D01*
X165211746Y-106557819D01*
X165211748Y-106557818D01*
X165607993Y-106479000D01*
X166012007Y-106479000D01*
X166408252Y-106557818D01*
X166408252Y-106557818D01*
G37*
G36*
X198262565Y-108032389D02*
X198453834Y-108111615D01*
X198625976Y-108226637D01*
X198772363Y-108373024D01*
X198887385Y-108545166D01*
X198966611Y-108736435D01*
X199007000Y-108939484D01*
X199007000Y-109146516D01*
X198966611Y-109349565D01*
X198887385Y-109540834D01*
X198772363Y-109712976D01*
X198625976Y-109859363D01*
X198453834Y-109974385D01*
X198262565Y-110053611D01*
X198059516Y-110094000D01*
X197852484Y-110094000D01*
X197649435Y-110053611D01*
X197458166Y-109974385D01*
X197286024Y-109859363D01*
X197139637Y-109712976D01*
X197024615Y-109540834D01*
X196945389Y-109349565D01*
X196905000Y-109146516D01*
X196905000Y-108939484D01*
X196945389Y-108736435D01*
X197024615Y-108545166D01*
X197139637Y-108373024D01*
X197286024Y-108226637D01*
X197458166Y-108111615D01*
X197649435Y-108032389D01*
X197852484Y-107992000D01*
X198059516Y-107992000D01*
X198262565Y-108032389D01*
X198262565Y-108032389D01*
G37*
G36*
X177942565Y-108032389D02*
X178133834Y-108111615D01*
X178305976Y-108226637D01*
X178452363Y-108373024D01*
X178567385Y-108545166D01*
X178646611Y-108736435D01*
X178687000Y-108939484D01*
X178687000Y-109146516D01*
X178646611Y-109349565D01*
X178567385Y-109540834D01*
X178452363Y-109712976D01*
X178305976Y-109859363D01*
X178133834Y-109974385D01*
X177942565Y-110053611D01*
X177739516Y-110094000D01*
X177532484Y-110094000D01*
X177329435Y-110053611D01*
X177138166Y-109974385D01*
X176966024Y-109859363D01*
X176819637Y-109712976D01*
X176704615Y-109540834D01*
X176625389Y-109349565D01*
X176585000Y-109146516D01*
X176585000Y-108939484D01*
X176625389Y-108736435D01*
X176704615Y-108545166D01*
X176819637Y-108373024D01*
X176966024Y-108226637D01*
X177138166Y-108111615D01*
X177329435Y-108032389D01*
X177532484Y-107992000D01*
X177739516Y-107992000D01*
X177942565Y-108032389D01*
X177942565Y-108032389D01*
G37*
G36*
X227183331Y-105406211D02*
X227511092Y-105541974D01*
X227806073Y-105739074D01*
X228056926Y-105989927D01*
X228254026Y-106284908D01*
X228389789Y-106612669D01*
X228459000Y-106960616D01*
X228459000Y-107315384D01*
X228389789Y-107663331D01*
X228254026Y-107991092D01*
X228056926Y-108286073D01*
X227806073Y-108536926D01*
X227511092Y-108734026D01*
X227183331Y-108869789D01*
X226835384Y-108939000D01*
X226480616Y-108939000D01*
X226132669Y-108869789D01*
X225804908Y-108734026D01*
X225509927Y-108536926D01*
X225259074Y-108286073D01*
X225061974Y-107991092D01*
X224926211Y-107663331D01*
X224857000Y-107315384D01*
X224857000Y-106960616D01*
X224926211Y-106612669D01*
X225061974Y-106284908D01*
X225259074Y-105989927D01*
X225509927Y-105739074D01*
X225804908Y-105541974D01*
X226132669Y-105406211D01*
X226480616Y-105337000D01*
X226835384Y-105337000D01*
X227183331Y-105406211D01*
X227183331Y-105406211D01*
G37*
G36*
X173087396Y-105715546D02*
X173260466Y-105787234D01*
X173416230Y-105891312D01*
X173548688Y-106023770D01*
X173652766Y-106179534D01*
X173724454Y-106352604D01*
X173761000Y-106536333D01*
X173761000Y-106723667D01*
X173724454Y-106907396D01*
X173652766Y-107080466D01*
X173548688Y-107236230D01*
X173416230Y-107368688D01*
X173260466Y-107472766D01*
X173087396Y-107544454D01*
X172903667Y-107581000D01*
X172716333Y-107581000D01*
X172532604Y-107544454D01*
X172359534Y-107472766D01*
X172203770Y-107368688D01*
X172071312Y-107236230D01*
X171967234Y-107080466D01*
X171895546Y-106907396D01*
X171859000Y-106723667D01*
X171859000Y-106536333D01*
X171895546Y-106352604D01*
X171967234Y-106179534D01*
X172071312Y-106023770D01*
X172203770Y-105891312D01*
X172359534Y-105787234D01*
X172532604Y-105715546D01*
X172716333Y-105679000D01*
X172903667Y-105679000D01*
X173087396Y-105715546D01*
X173087396Y-105715546D01*
G37*
G36*
X198262565Y-105492389D02*
X198453834Y-105571615D01*
X198625976Y-105686637D01*
X198772363Y-105833024D01*
X198887385Y-106005166D01*
X198966611Y-106196435D01*
X199007000Y-106399484D01*
X199007000Y-106606516D01*
X198966611Y-106809565D01*
X198887385Y-107000834D01*
X198772363Y-107172976D01*
X198625976Y-107319363D01*
X198453834Y-107434385D01*
X198262565Y-107513611D01*
X198059516Y-107554000D01*
X197852484Y-107554000D01*
X197649435Y-107513611D01*
X197458166Y-107434385D01*
X197286024Y-107319363D01*
X197139637Y-107172976D01*
X197024615Y-107000834D01*
X196945389Y-106809565D01*
X196905000Y-106606516D01*
X196905000Y-106399484D01*
X196945389Y-106196435D01*
X197024615Y-106005166D01*
X197139637Y-105833024D01*
X197286024Y-105686637D01*
X197458166Y-105571615D01*
X197649435Y-105492389D01*
X197852484Y-105452000D01*
X198059516Y-105452000D01*
X198262565Y-105492389D01*
X198262565Y-105492389D01*
G37*
G36*
X177942565Y-105492389D02*
X178133834Y-105571615D01*
X178305976Y-105686637D01*
X178452363Y-105833024D01*
X178567385Y-106005166D01*
X178646611Y-106196435D01*
X178687000Y-106399484D01*
X178687000Y-106606516D01*
X178646611Y-106809565D01*
X178567385Y-107000834D01*
X178452363Y-107172976D01*
X178305976Y-107319363D01*
X178133834Y-107434385D01*
X177942565Y-107513611D01*
X177739516Y-107554000D01*
X177532484Y-107554000D01*
X177329435Y-107513611D01*
X177138166Y-107434385D01*
X176966024Y-107319363D01*
X176819637Y-107172976D01*
X176704615Y-107000834D01*
X176625389Y-106809565D01*
X176585000Y-106606516D01*
X176585000Y-106399484D01*
X176625389Y-106196435D01*
X176704615Y-106005166D01*
X176819637Y-105833024D01*
X176966024Y-105686637D01*
X177138166Y-105571615D01*
X177329435Y-105492389D01*
X177532484Y-105452000D01*
X177739516Y-105452000D01*
X177942565Y-105492389D01*
X177942565Y-105492389D01*
G37*
G36*
X173087396Y-103215546D02*
X173260466Y-103287234D01*
X173416230Y-103391312D01*
X173548688Y-103523770D01*
X173652766Y-103679534D01*
X173724454Y-103852604D01*
X173761000Y-104036333D01*
X173761000Y-104223667D01*
X173724454Y-104407396D01*
X173652766Y-104580466D01*
X173548688Y-104736230D01*
X173416230Y-104868688D01*
X173260466Y-104972766D01*
X173087396Y-105044454D01*
X172903667Y-105081000D01*
X172716333Y-105081000D01*
X172532604Y-105044454D01*
X172359534Y-104972766D01*
X172203770Y-104868688D01*
X172071312Y-104736230D01*
X171967234Y-104580466D01*
X171895546Y-104407396D01*
X171859000Y-104223667D01*
X171859000Y-104036333D01*
X171895546Y-103852604D01*
X171967234Y-103679534D01*
X172071312Y-103523770D01*
X172203770Y-103391312D01*
X172359534Y-103287234D01*
X172532604Y-103215546D01*
X172716333Y-103179000D01*
X172903667Y-103179000D01*
X173087396Y-103215546D01*
X173087396Y-103215546D01*
G37*
G36*
X198262565Y-102952389D02*
X198453834Y-103031615D01*
X198625976Y-103146637D01*
X198772363Y-103293024D01*
X198887385Y-103465166D01*
X198966611Y-103656435D01*
X199007000Y-103859484D01*
X199007000Y-104066516D01*
X198966611Y-104269565D01*
X198887385Y-104460834D01*
X198772363Y-104632976D01*
X198625976Y-104779363D01*
X198453834Y-104894385D01*
X198262565Y-104973611D01*
X198059516Y-105014000D01*
X197852484Y-105014000D01*
X197649435Y-104973611D01*
X197458166Y-104894385D01*
X197286024Y-104779363D01*
X197139637Y-104632976D01*
X197024615Y-104460834D01*
X196945389Y-104269565D01*
X196905000Y-104066516D01*
X196905000Y-103859484D01*
X196945389Y-103656435D01*
X197024615Y-103465166D01*
X197139637Y-103293024D01*
X197286024Y-103146637D01*
X197458166Y-103031615D01*
X197649435Y-102952389D01*
X197852484Y-102912000D01*
X198059516Y-102912000D01*
X198262565Y-102952389D01*
X198262565Y-102952389D01*
G37*
G36*
X177942565Y-102952389D02*
X178133834Y-103031615D01*
X178305976Y-103146637D01*
X178452363Y-103293024D01*
X178567385Y-103465166D01*
X178646611Y-103656435D01*
X178687000Y-103859484D01*
X178687000Y-104066516D01*
X178646611Y-104269565D01*
X178567385Y-104460834D01*
X178452363Y-104632976D01*
X178305976Y-104779363D01*
X178133834Y-104894385D01*
X177942565Y-104973611D01*
X177739516Y-105014000D01*
X177532484Y-105014000D01*
X177329435Y-104973611D01*
X177138166Y-104894385D01*
X176966024Y-104779363D01*
X176819637Y-104632976D01*
X176704615Y-104460834D01*
X176625389Y-104269565D01*
X176585000Y-104066516D01*
X176585000Y-103859484D01*
X176625389Y-103656435D01*
X176704615Y-103465166D01*
X176819637Y-103293024D01*
X176966024Y-103146637D01*
X177138166Y-103031615D01*
X177329435Y-102952389D01*
X177532484Y-102912000D01*
X177739516Y-102912000D01*
X177942565Y-102952389D01*
X177942565Y-102952389D01*
G37*
G36*
X173087396Y-100715546D02*
X173260466Y-100787234D01*
X173416230Y-100891312D01*
X173548688Y-101023770D01*
X173652766Y-101179534D01*
X173724454Y-101352604D01*
X173761000Y-101536333D01*
X173761000Y-101723667D01*
X173724454Y-101907396D01*
X173652766Y-102080466D01*
X173548688Y-102236230D01*
X173416230Y-102368688D01*
X173260466Y-102472766D01*
X173087396Y-102544454D01*
X172903667Y-102581000D01*
X172716333Y-102581000D01*
X172532604Y-102544454D01*
X172359534Y-102472766D01*
X172203770Y-102368688D01*
X172071312Y-102236230D01*
X171967234Y-102080466D01*
X171895546Y-101907396D01*
X171859000Y-101723667D01*
X171859000Y-101536333D01*
X171895546Y-101352604D01*
X171967234Y-101179534D01*
X172071312Y-101023770D01*
X172203770Y-100891312D01*
X172359534Y-100787234D01*
X172532604Y-100715546D01*
X172716333Y-100679000D01*
X172903667Y-100679000D01*
X173087396Y-100715546D01*
X173087396Y-100715546D01*
G37*
G36*
X198262565Y-100412389D02*
X198453834Y-100491615D01*
X198625976Y-100606637D01*
X198772363Y-100753024D01*
X198887385Y-100925166D01*
X198966611Y-101116435D01*
X199007000Y-101319484D01*
X199007000Y-101526516D01*
X198966611Y-101729565D01*
X198887385Y-101920834D01*
X198772363Y-102092976D01*
X198625976Y-102239363D01*
X198453834Y-102354385D01*
X198262565Y-102433611D01*
X198059516Y-102474000D01*
X197852484Y-102474000D01*
X197649435Y-102433611D01*
X197458166Y-102354385D01*
X197286024Y-102239363D01*
X197139637Y-102092976D01*
X197024615Y-101920834D01*
X196945389Y-101729565D01*
X196905000Y-101526516D01*
X196905000Y-101319484D01*
X196945389Y-101116435D01*
X197024615Y-100925166D01*
X197139637Y-100753024D01*
X197286024Y-100606637D01*
X197458166Y-100491615D01*
X197649435Y-100412389D01*
X197852484Y-100372000D01*
X198059516Y-100372000D01*
X198262565Y-100412389D01*
X198262565Y-100412389D01*
G37*
G36*
X177942565Y-100412389D02*
X178133834Y-100491615D01*
X178305976Y-100606637D01*
X178452363Y-100753024D01*
X178567385Y-100925166D01*
X178646611Y-101116435D01*
X178687000Y-101319484D01*
X178687000Y-101526516D01*
X178646611Y-101729565D01*
X178567385Y-101920834D01*
X178452363Y-102092976D01*
X178305976Y-102239363D01*
X178133834Y-102354385D01*
X177942565Y-102433611D01*
X177739516Y-102474000D01*
X177532484Y-102474000D01*
X177329435Y-102433611D01*
X177138166Y-102354385D01*
X176966024Y-102239363D01*
X176819637Y-102092976D01*
X176704615Y-101920834D01*
X176625389Y-101729565D01*
X176585000Y-101526516D01*
X176585000Y-101319484D01*
X176625389Y-101116435D01*
X176704615Y-100925166D01*
X176819637Y-100753024D01*
X176966024Y-100606637D01*
X177138166Y-100491615D01*
X177329435Y-100412389D01*
X177532484Y-100372000D01*
X177739516Y-100372000D01*
X177942565Y-100412389D01*
X177942565Y-100412389D01*
G37*
G36*
X166408252Y-97757818D02*
X166408254Y-97757819D01*
X166408255Y-97757819D01*
X166781513Y-97912427D01*
X166840163Y-97951616D01*
X167117439Y-98136886D01*
X167403114Y-98422561D01*
X167403116Y-98422564D01*
X167627573Y-98758487D01*
X167722025Y-98986516D01*
X167782182Y-99131748D01*
X167861000Y-99527993D01*
X167861000Y-99932007D01*
X167860604Y-99934000D01*
X167782181Y-100328255D01*
X167627573Y-100701513D01*
X167412247Y-101023770D01*
X167403114Y-101037439D01*
X167117439Y-101323114D01*
X167117436Y-101323116D01*
X166781513Y-101547573D01*
X166408255Y-101702181D01*
X166408254Y-101702181D01*
X166408252Y-101702182D01*
X166012007Y-101781000D01*
X165607993Y-101781000D01*
X165211748Y-101702182D01*
X165211746Y-101702181D01*
X165211745Y-101702181D01*
X164838487Y-101547573D01*
X164502564Y-101323116D01*
X164502561Y-101323114D01*
X164216886Y-101037439D01*
X164207753Y-101023770D01*
X163992427Y-100701513D01*
X163837819Y-100328255D01*
X163759397Y-99934000D01*
X163759000Y-99932007D01*
X163759000Y-99527993D01*
X163837818Y-99131748D01*
X163897975Y-98986516D01*
X163992427Y-98758487D01*
X164216884Y-98422564D01*
X164216886Y-98422561D01*
X164502561Y-98136886D01*
X164779837Y-97951616D01*
X164838487Y-97912427D01*
X165211745Y-97757819D01*
X165211746Y-97757819D01*
X165211748Y-97757818D01*
X165607993Y-97679000D01*
X166012007Y-97679000D01*
X166408252Y-97757818D01*
X166408252Y-97757818D01*
G37*
G36*
X198262565Y-97872389D02*
X198453834Y-97951615D01*
X198625976Y-98066637D01*
X198772363Y-98213024D01*
X198887385Y-98385166D01*
X198966611Y-98576435D01*
X199007000Y-98779484D01*
X199007000Y-98986516D01*
X198966611Y-99189565D01*
X198887385Y-99380834D01*
X198772363Y-99552976D01*
X198625976Y-99699363D01*
X198453834Y-99814385D01*
X198262565Y-99893611D01*
X198059516Y-99934000D01*
X197852484Y-99934000D01*
X197649435Y-99893611D01*
X197458166Y-99814385D01*
X197286024Y-99699363D01*
X197139637Y-99552976D01*
X197024615Y-99380834D01*
X196945389Y-99189565D01*
X196905000Y-98986516D01*
X196905000Y-98779484D01*
X196945389Y-98576435D01*
X197024615Y-98385166D01*
X197139637Y-98213024D01*
X197286024Y-98066637D01*
X197458166Y-97951615D01*
X197649435Y-97872389D01*
X197852484Y-97832000D01*
X198059516Y-97832000D01*
X198262565Y-97872389D01*
X198262565Y-97872389D01*
G37*
G36*
X177942565Y-97872389D02*
X178133834Y-97951615D01*
X178305976Y-98066637D01*
X178452363Y-98213024D01*
X178567385Y-98385166D01*
X178646611Y-98576435D01*
X178687000Y-98779484D01*
X178687000Y-98986516D01*
X178646611Y-99189565D01*
X178567385Y-99380834D01*
X178452363Y-99552976D01*
X178305976Y-99699363D01*
X178133834Y-99814385D01*
X177942565Y-99893611D01*
X177739516Y-99934000D01*
X177532484Y-99934000D01*
X177329435Y-99893611D01*
X177138166Y-99814385D01*
X176966024Y-99699363D01*
X176819637Y-99552976D01*
X176704615Y-99380834D01*
X176625389Y-99189565D01*
X176585000Y-98986516D01*
X176585000Y-98779484D01*
X176625389Y-98576435D01*
X176704615Y-98385166D01*
X176819637Y-98213024D01*
X176966024Y-98066637D01*
X177138166Y-97951615D01*
X177329435Y-97872389D01*
X177532484Y-97832000D01*
X177739516Y-97832000D01*
X177942565Y-97872389D01*
X177942565Y-97872389D01*
G37*
G36*
X177942565Y-95332389D02*
X178133834Y-95411615D01*
X178305976Y-95526637D01*
X178452363Y-95673024D01*
X178567385Y-95845166D01*
X178646611Y-96036435D01*
X178687000Y-96239484D01*
X178687000Y-96446516D01*
X178646611Y-96649565D01*
X178567385Y-96840834D01*
X178452363Y-97012976D01*
X178305976Y-97159363D01*
X178133834Y-97274385D01*
X177942565Y-97353611D01*
X177739516Y-97394000D01*
X177532484Y-97394000D01*
X177329435Y-97353611D01*
X177138166Y-97274385D01*
X176966024Y-97159363D01*
X176819637Y-97012976D01*
X176704615Y-96840834D01*
X176625389Y-96649565D01*
X176585000Y-96446516D01*
X176585000Y-96239484D01*
X176625389Y-96036435D01*
X176704615Y-95845166D01*
X176819637Y-95673024D01*
X176966024Y-95526637D01*
X177138166Y-95411615D01*
X177329435Y-95332389D01*
X177532484Y-95292000D01*
X177739516Y-95292000D01*
X177942565Y-95332389D01*
X177942565Y-95332389D01*
G37*
G36*
X198262565Y-95332389D02*
X198453834Y-95411615D01*
X198625976Y-95526637D01*
X198772363Y-95673024D01*
X198887385Y-95845166D01*
X198966611Y-96036435D01*
X199007000Y-96239484D01*
X199007000Y-96446516D01*
X198966611Y-96649565D01*
X198887385Y-96840834D01*
X198772363Y-97012976D01*
X198625976Y-97159363D01*
X198453834Y-97274385D01*
X198262565Y-97353611D01*
X198059516Y-97394000D01*
X197852484Y-97394000D01*
X197649435Y-97353611D01*
X197458166Y-97274385D01*
X197286024Y-97159363D01*
X197139637Y-97012976D01*
X197024615Y-96840834D01*
X196945389Y-96649565D01*
X196905000Y-96446516D01*
X196905000Y-96239484D01*
X196945389Y-96036435D01*
X197024615Y-95845166D01*
X197139637Y-95673024D01*
X197286024Y-95526637D01*
X197458166Y-95411615D01*
X197649435Y-95332389D01*
X197852484Y-95292000D01*
X198059516Y-95292000D01*
X198262565Y-95332389D01*
X198262565Y-95332389D01*
G37*
G36*
X198262565Y-92792389D02*
X198453834Y-92871615D01*
X198625976Y-92986637D01*
X198772363Y-93133024D01*
X198887385Y-93305166D01*
X198966611Y-93496435D01*
X199007000Y-93699484D01*
X199007000Y-93906516D01*
X198966611Y-94109565D01*
X198887385Y-94300834D01*
X198772363Y-94472976D01*
X198625976Y-94619363D01*
X198453834Y-94734385D01*
X198262565Y-94813611D01*
X198059516Y-94854000D01*
X197852484Y-94854000D01*
X197649435Y-94813611D01*
X197458166Y-94734385D01*
X197286024Y-94619363D01*
X197139637Y-94472976D01*
X197024615Y-94300834D01*
X196945389Y-94109565D01*
X196905000Y-93906516D01*
X196905000Y-93699484D01*
X196945389Y-93496435D01*
X197024615Y-93305166D01*
X197139637Y-93133024D01*
X197286024Y-92986637D01*
X197458166Y-92871615D01*
X197649435Y-92792389D01*
X197852484Y-92752000D01*
X198059516Y-92752000D01*
X198262565Y-92792389D01*
X198262565Y-92792389D01*
G37*
G36*
X177942565Y-92792389D02*
X178133834Y-92871615D01*
X178305976Y-92986637D01*
X178452363Y-93133024D01*
X178567385Y-93305166D01*
X178646611Y-93496435D01*
X178687000Y-93699484D01*
X178687000Y-93906516D01*
X178646611Y-94109565D01*
X178567385Y-94300834D01*
X178452363Y-94472976D01*
X178305976Y-94619363D01*
X178133834Y-94734385D01*
X177942565Y-94813611D01*
X177739516Y-94854000D01*
X177532484Y-94854000D01*
X177329435Y-94813611D01*
X177138166Y-94734385D01*
X176966024Y-94619363D01*
X176819637Y-94472976D01*
X176704615Y-94300834D01*
X176625389Y-94109565D01*
X176585000Y-93906516D01*
X176585000Y-93699484D01*
X176625389Y-93496435D01*
X176704615Y-93305166D01*
X176819637Y-93133024D01*
X176966024Y-92986637D01*
X177138166Y-92871615D01*
X177329435Y-92792389D01*
X177532484Y-92752000D01*
X177739516Y-92752000D01*
X177942565Y-92792389D01*
X177942565Y-92792389D01*
G37*
G36*
X198262565Y-90252389D02*
X198453834Y-90331615D01*
X198625976Y-90446637D01*
X198772363Y-90593024D01*
X198887385Y-90765166D01*
X198966611Y-90956435D01*
X199007000Y-91159484D01*
X199007000Y-91366516D01*
X198966611Y-91569565D01*
X198887385Y-91760834D01*
X198772363Y-91932976D01*
X198625976Y-92079363D01*
X198453834Y-92194385D01*
X198262565Y-92273611D01*
X198059516Y-92314000D01*
X197852484Y-92314000D01*
X197649435Y-92273611D01*
X197458166Y-92194385D01*
X197286024Y-92079363D01*
X197139637Y-91932976D01*
X197024615Y-91760834D01*
X196945389Y-91569565D01*
X196905000Y-91366516D01*
X196905000Y-91159484D01*
X196945389Y-90956435D01*
X197024615Y-90765166D01*
X197139637Y-90593024D01*
X197286024Y-90446637D01*
X197458166Y-90331615D01*
X197649435Y-90252389D01*
X197852484Y-90212000D01*
X198059516Y-90212000D01*
X198262565Y-90252389D01*
X198262565Y-90252389D01*
G37*
G36*
X177942565Y-90252389D02*
X178133834Y-90331615D01*
X178305976Y-90446637D01*
X178452363Y-90593024D01*
X178567385Y-90765166D01*
X178646611Y-90956435D01*
X178687000Y-91159484D01*
X178687000Y-91366516D01*
X178646611Y-91569565D01*
X178567385Y-91760834D01*
X178452363Y-91932976D01*
X178305976Y-92079363D01*
X178133834Y-92194385D01*
X177942565Y-92273611D01*
X177739516Y-92314000D01*
X177532484Y-92314000D01*
X177329435Y-92273611D01*
X177138166Y-92194385D01*
X176966024Y-92079363D01*
X176819637Y-91932976D01*
X176704615Y-91760834D01*
X176625389Y-91569565D01*
X176585000Y-91366516D01*
X176585000Y-91159484D01*
X176625389Y-90956435D01*
X176704615Y-90765166D01*
X176819637Y-90593024D01*
X176966024Y-90446637D01*
X177138166Y-90331615D01*
X177329435Y-90252389D01*
X177532484Y-90212000D01*
X177739516Y-90212000D01*
X177942565Y-90252389D01*
X177942565Y-90252389D01*
G37*
G36*
X177942565Y-87712389D02*
X178133834Y-87791615D01*
X178305976Y-87906637D01*
X178452363Y-88053024D01*
X178567385Y-88225166D01*
X178646611Y-88416435D01*
X178687000Y-88619484D01*
X178687000Y-88826516D01*
X178646611Y-89029565D01*
X178567385Y-89220834D01*
X178452363Y-89392976D01*
X178305976Y-89539363D01*
X178133834Y-89654385D01*
X177942565Y-89733611D01*
X177739516Y-89774000D01*
X177532484Y-89774000D01*
X177329435Y-89733611D01*
X177138166Y-89654385D01*
X176966024Y-89539363D01*
X176819637Y-89392976D01*
X176704615Y-89220834D01*
X176625389Y-89029565D01*
X176585000Y-88826516D01*
X176585000Y-88619484D01*
X176625389Y-88416435D01*
X176704615Y-88225166D01*
X176819637Y-88053024D01*
X176966024Y-87906637D01*
X177138166Y-87791615D01*
X177329435Y-87712389D01*
X177532484Y-87672000D01*
X177739516Y-87672000D01*
X177942565Y-87712389D01*
X177942565Y-87712389D01*
G37*
G36*
X198262565Y-87712389D02*
X198453834Y-87791615D01*
X198625976Y-87906637D01*
X198772363Y-88053024D01*
X198887385Y-88225166D01*
X198966611Y-88416435D01*
X199007000Y-88619484D01*
X199007000Y-88826516D01*
X198966611Y-89029565D01*
X198887385Y-89220834D01*
X198772363Y-89392976D01*
X198625976Y-89539363D01*
X198453834Y-89654385D01*
X198262565Y-89733611D01*
X198059516Y-89774000D01*
X197852484Y-89774000D01*
X197649435Y-89733611D01*
X197458166Y-89654385D01*
X197286024Y-89539363D01*
X197139637Y-89392976D01*
X197024615Y-89220834D01*
X196945389Y-89029565D01*
X196905000Y-88826516D01*
X196905000Y-88619484D01*
X196945389Y-88416435D01*
X197024615Y-88225166D01*
X197139637Y-88053024D01*
X197286024Y-87906637D01*
X197458166Y-87791615D01*
X197649435Y-87712389D01*
X197852484Y-87672000D01*
X198059516Y-87672000D01*
X198262565Y-87712389D01*
X198262565Y-87712389D01*
G37*
G36*
X177942565Y-85172389D02*
X178133834Y-85251615D01*
X178305976Y-85366637D01*
X178452363Y-85513024D01*
X178567385Y-85685166D01*
X178646611Y-85876435D01*
X178687000Y-86079484D01*
X178687000Y-86286516D01*
X178646611Y-86489565D01*
X178567385Y-86680834D01*
X178452363Y-86852976D01*
X178305976Y-86999363D01*
X178133834Y-87114385D01*
X177942565Y-87193611D01*
X177739516Y-87234000D01*
X177532484Y-87234000D01*
X177329435Y-87193611D01*
X177138166Y-87114385D01*
X176966024Y-86999363D01*
X176819637Y-86852976D01*
X176704615Y-86680834D01*
X176625389Y-86489565D01*
X176585000Y-86286516D01*
X176585000Y-86079484D01*
X176625389Y-85876435D01*
X176704615Y-85685166D01*
X176819637Y-85513024D01*
X176966024Y-85366637D01*
X177138166Y-85251615D01*
X177329435Y-85172389D01*
X177532484Y-85132000D01*
X177739516Y-85132000D01*
X177942565Y-85172389D01*
X177942565Y-85172389D01*
G37*
G36*
X198262565Y-85172389D02*
X198453834Y-85251615D01*
X198625976Y-85366637D01*
X198772363Y-85513024D01*
X198887385Y-85685166D01*
X198966611Y-85876435D01*
X199007000Y-86079484D01*
X199007000Y-86286516D01*
X198966611Y-86489565D01*
X198887385Y-86680834D01*
X198772363Y-86852976D01*
X198625976Y-86999363D01*
X198453834Y-87114385D01*
X198262565Y-87193611D01*
X198059516Y-87234000D01*
X197852484Y-87234000D01*
X197649435Y-87193611D01*
X197458166Y-87114385D01*
X197286024Y-86999363D01*
X197139637Y-86852976D01*
X197024615Y-86680834D01*
X196945389Y-86489565D01*
X196905000Y-86286516D01*
X196905000Y-86079484D01*
X196945389Y-85876435D01*
X197024615Y-85685166D01*
X197139637Y-85513024D01*
X197286024Y-85366637D01*
X197458166Y-85251615D01*
X197649435Y-85172389D01*
X197852484Y-85132000D01*
X198059516Y-85132000D01*
X198262565Y-85172389D01*
X198262565Y-85172389D01*
G37*
G36*
X161875256Y-79891298D02*
X161981579Y-79912447D01*
X162282042Y-80036903D01*
X162548852Y-80215180D01*
X162552454Y-80217587D01*
X162782413Y-80447546D01*
X162963098Y-80717960D01*
X163087553Y-81018422D01*
X163151000Y-81337389D01*
X163151000Y-81662611D01*
X163087553Y-81981578D01*
X162963098Y-82282040D01*
X162782413Y-82552454D01*
X162552454Y-82782413D01*
X162552451Y-82782415D01*
X162282042Y-82963097D01*
X161981579Y-83087553D01*
X161875256Y-83108702D01*
X161662611Y-83151000D01*
X161337389Y-83151000D01*
X161124744Y-83108702D01*
X161018421Y-83087553D01*
X160717958Y-82963097D01*
X160447549Y-82782415D01*
X160447546Y-82782413D01*
X160217587Y-82552454D01*
X160036902Y-82282040D01*
X159912447Y-81981578D01*
X159849000Y-81662611D01*
X159849000Y-81337389D01*
X159912447Y-81018422D01*
X160036902Y-80717960D01*
X160217587Y-80447546D01*
X160447546Y-80217587D01*
X160451148Y-80215180D01*
X160717958Y-80036903D01*
X161018421Y-79912447D01*
X161124744Y-79891298D01*
X161337389Y-79849000D01*
X161662611Y-79849000D01*
X161875256Y-79891298D01*
X161875256Y-79891298D01*
G37*
G36*
X228875256Y-79891298D02*
X228981579Y-79912447D01*
X229282042Y-80036903D01*
X229548852Y-80215180D01*
X229552454Y-80217587D01*
X229782413Y-80447546D01*
X229963098Y-80717960D01*
X230087553Y-81018422D01*
X230151000Y-81337389D01*
X230151000Y-81662611D01*
X230087553Y-81981578D01*
X229963098Y-82282040D01*
X229782413Y-82552454D01*
X229552454Y-82782413D01*
X229552451Y-82782415D01*
X229282042Y-82963097D01*
X228981579Y-83087553D01*
X228875256Y-83108702D01*
X228662611Y-83151000D01*
X228337389Y-83151000D01*
X228124744Y-83108702D01*
X228018421Y-83087553D01*
X227717958Y-82963097D01*
X227447549Y-82782415D01*
X227447546Y-82782413D01*
X227217587Y-82552454D01*
X227036902Y-82282040D01*
X226912447Y-81981578D01*
X226849000Y-81662611D01*
X226849000Y-81337389D01*
X226912447Y-81018422D01*
X227036902Y-80717960D01*
X227217587Y-80447546D01*
X227447546Y-80217587D01*
X227451148Y-80215180D01*
X227717958Y-80036903D01*
X228018421Y-79912447D01*
X228124744Y-79891298D01*
X228337389Y-79849000D01*
X228662611Y-79849000D01*
X228875256Y-79891298D01*
X228875256Y-79891298D01*
G37*
M02*
