G04 #@! TF.GenerationSoftware,KiCad,Pcbnew,(5.0.2)-1*
G04 #@! TF.CreationDate,2020-05-08T19:47:46+09:00*
G04 #@! TF.ProjectId,Sensorless_BLDC_Driver,53656e73-6f72-46c6-9573-735f424c4443,rev?*
G04 #@! TF.SameCoordinates,Original*
G04 #@! TF.FileFunction,Copper,L2,Bot*
G04 #@! TF.FilePolarity,Positive*
%FSLAX46Y46*%
G04 Gerber Fmt 4.6, Leading zero omitted, Abs format (unit mm)*
G04 Created by KiCad (PCBNEW (5.0.2)-1) date 2020/05/08 19:47:46*
%MOMM*%
%LPD*%
G01*
G04 APERTURE LIST*
G04 #@! TA.AperFunction,ComponentPad*
%ADD10C,2.000000*%
G04 #@! TD*
G04 #@! TA.AperFunction,ComponentPad*
%ADD11C,3.500000*%
G04 #@! TD*
G04 #@! TA.AperFunction,WasherPad*
%ADD12C,4.000000*%
G04 #@! TD*
G04 #@! TA.AperFunction,ComponentPad*
%ADD13C,1.800000*%
G04 #@! TD*
G04 #@! TA.AperFunction,ViaPad*
%ADD14C,0.600000*%
G04 #@! TD*
G04 #@! TA.AperFunction,Conductor*
%ADD15C,0.300000*%
G04 #@! TD*
G04 #@! TA.AperFunction,Conductor*
%ADD16C,0.254000*%
G04 #@! TD*
G04 APERTURE END LIST*
D10*
G04 #@! TO.P,U1,52*
G04 #@! TO.N,Net-(U1-Pad52)*
X177636000Y-149683000D03*
G04 #@! TO.P,U1,51*
G04 #@! TO.N,GND*
X177636000Y-147143000D03*
G04 #@! TO.P,U1,50*
G04 #@! TO.N,Net-(U1-Pad50)*
X177636000Y-144603000D03*
G04 #@! TO.P,U1,49*
G04 #@! TO.N,/Ch_A*
X177636000Y-142063000D03*
G04 #@! TO.P,U1,48*
G04 #@! TO.N,/Ch_B*
X177636000Y-139523000D03*
G04 #@! TO.P,U1,47*
G04 #@! TO.N,/Index*
X177636000Y-136983000D03*
G04 #@! TO.P,U1,46*
G04 #@! TO.N,Net-(U1-Pad46)*
X177636000Y-134443000D03*
G04 #@! TO.P,U1,45*
G04 #@! TO.N,/POT_2*
X177636000Y-131903000D03*
G04 #@! TO.P,U1,44*
G04 #@! TO.N,Net-(U1-Pad44)*
X177636000Y-129363000D03*
G04 #@! TO.P,U1,43*
G04 #@! TO.N,Net-(U1-Pad43)*
X177636000Y-126823000D03*
G04 #@! TO.P,U1,42*
G04 #@! TO.N,Net-(U1-Pad42)*
X177636000Y-124283000D03*
G04 #@! TO.P,U1,41*
G04 #@! TO.N,Net-(U1-Pad41)*
X177636000Y-121743000D03*
G04 #@! TO.P,U1,40*
G04 #@! TO.N,Net-(U1-Pad40)*
X177636000Y-119203000D03*
G04 #@! TO.P,U1,39*
G04 #@! TO.N,Net-(U1-Pad39)*
X177636000Y-116663000D03*
G04 #@! TO.P,U1,38*
G04 #@! TO.N,/POT_1*
X177636000Y-114123000D03*
G04 #@! TO.P,U1,37*
G04 #@! TO.N,Net-(U1-Pad37)*
X177636000Y-111583000D03*
G04 #@! TO.P,U1,36*
G04 #@! TO.N,Net-(U1-Pad36)*
X177636000Y-109043000D03*
G04 #@! TO.P,U1,35*
G04 #@! TO.N,Net-(U1-Pad35)*
X177636000Y-106503000D03*
G04 #@! TO.P,U1,34*
G04 #@! TO.N,/LIN_3*
X177636000Y-103963000D03*
G04 #@! TO.P,U1,33*
G04 #@! TO.N,/HIN_3*
X177636000Y-101423000D03*
G04 #@! TO.P,U1,32*
G04 #@! TO.N,/LIN_2*
X177636000Y-98883000D03*
G04 #@! TO.P,U1,31*
G04 #@! TO.N,/HIN_2*
X177636000Y-96343000D03*
G04 #@! TO.P,U1,30*
G04 #@! TO.N,/LIN_1*
X177636000Y-93803000D03*
G04 #@! TO.P,U1,29*
G04 #@! TO.N,/HIN_1*
X177636000Y-91263000D03*
G04 #@! TO.P,U1,28*
G04 #@! TO.N,Net-(U1-Pad28)*
X177636000Y-88723000D03*
G04 #@! TO.P,U1,26*
G04 #@! TO.N,GND*
X197956000Y-149683000D03*
G04 #@! TO.P,U1,25*
G04 #@! TO.N,Net-(U1-Pad25)*
X197956000Y-147143000D03*
G04 #@! TO.P,U1,24*
G04 #@! TO.N,/VS*
X197956000Y-144603000D03*
G04 #@! TO.P,U1,23*
G04 #@! TO.N,Net-(U1-Pad23)*
X197956000Y-142063000D03*
G04 #@! TO.P,U1,22*
G04 #@! TO.N,/BEMF_N*
X197956000Y-139523000D03*
G04 #@! TO.P,U1,21*
G04 #@! TO.N,/BEMF3*
X197956000Y-136983000D03*
G04 #@! TO.P,U1,20*
G04 #@! TO.N,/BEMF2*
X197956000Y-134443000D03*
G04 #@! TO.P,U1,19*
G04 #@! TO.N,/BEMF1*
X197956000Y-131903000D03*
G04 #@! TO.P,U1,18*
G04 #@! TO.N,Net-(U1-Pad18)*
X197956000Y-129363000D03*
G04 #@! TO.P,U1,17*
G04 #@! TO.N,Net-(U1-Pad17)*
X197956000Y-126823000D03*
G04 #@! TO.P,U1,16*
G04 #@! TO.N,Net-(U1-Pad16)*
X197956000Y-124283000D03*
G04 #@! TO.P,U1,15*
G04 #@! TO.N,/ISH_1*
X197956000Y-121743000D03*
G04 #@! TO.P,U1,14*
G04 #@! TO.N,/ISL_1*
X197956000Y-119203000D03*
G04 #@! TO.P,U1,13*
G04 #@! TO.N,/ISL_2*
X197956000Y-116663000D03*
G04 #@! TO.P,U1,12*
G04 #@! TO.N,/ISH_2*
X197956000Y-114123000D03*
G04 #@! TO.P,U1,11*
G04 #@! TO.N,/ISL_3*
X197956000Y-111583000D03*
G04 #@! TO.P,U1,10*
G04 #@! TO.N,/ISH_3*
X197956000Y-109043000D03*
G04 #@! TO.P,U1,9*
G04 #@! TO.N,Net-(U1-Pad9)*
X197956000Y-106503000D03*
G04 #@! TO.P,U1,8*
G04 #@! TO.N,Net-(U1-Pad8)*
X197956000Y-103963000D03*
G04 #@! TO.P,U1,7*
G04 #@! TO.N,Net-(U1-Pad7)*
X197956000Y-101423000D03*
G04 #@! TO.P,U1,6*
G04 #@! TO.N,Net-(U1-Pad6)*
X197956000Y-98883000D03*
G04 #@! TO.P,U1,5*
G04 #@! TO.N,Net-(U1-Pad5)*
X197956000Y-96343000D03*
G04 #@! TO.P,U1,4*
G04 #@! TO.N,Net-(U1-Pad4)*
X197956000Y-93803000D03*
G04 #@! TO.P,U1,3*
G04 #@! TO.N,Net-(U1-Pad3)*
X197956000Y-91263000D03*
G04 #@! TO.P,U1,2*
G04 #@! TO.N,GND*
X197956000Y-88723000D03*
G04 #@! TO.P,U1,27*
G04 #@! TO.N,Net-(U1-Pad27)*
X177636000Y-86183000D03*
G04 #@! TO.P,U1,1*
G04 #@! TO.N,+5V*
X197956000Y-86183000D03*
G04 #@! TD*
D11*
G04 #@! TO.P,J1,1*
G04 #@! TO.N,VDD*
X226658000Y-139904000D03*
G04 #@! TO.P,J1,2*
G04 #@! TO.N,GND*
X226658000Y-132284000D03*
G04 #@! TD*
G04 #@! TO.P,J2,3*
G04 #@! TO.N,MOTOR_W*
X226658000Y-107138000D03*
G04 #@! TO.P,J2,2*
G04 #@! TO.N,MOTOR_V*
X226658000Y-114758000D03*
G04 #@! TO.P,J2,1*
G04 #@! TO.N,MOTOR_U*
X226658000Y-122378000D03*
G04 #@! TD*
D10*
G04 #@! TO.P,J3,4*
G04 #@! TO.N,/Ch_B*
X170270000Y-137230000D03*
G04 #@! TO.P,J3,2*
G04 #@! TO.N,GND*
X170270000Y-142230000D03*
G04 #@! TO.P,J3,3*
G04 #@! TO.N,/Ch_A*
X170270000Y-139730000D03*
G04 #@! TO.P,J3,1*
G04 #@! TO.N,+5V*
X170270000Y-144730000D03*
G04 #@! TO.P,J3,5*
G04 #@! TO.N,/Index*
X170270000Y-134730000D03*
G04 #@! TD*
D12*
G04 #@! TO.P,RV1,*
G04 #@! TO.N,*
X165810000Y-99730000D03*
X165810000Y-108530000D03*
D13*
G04 #@! TO.P,RV1,1*
G04 #@! TO.N,+5V*
X172810000Y-101630000D03*
G04 #@! TO.P,RV1,2*
G04 #@! TO.N,/POT_1*
X172810000Y-104130000D03*
G04 #@! TO.P,RV1,3*
G04 #@! TO.N,GND*
X172810000Y-106630000D03*
G04 #@! TD*
G04 #@! TO.P,RV2,3*
G04 #@! TO.N,GND*
X172810000Y-123140000D03*
G04 #@! TO.P,RV2,2*
G04 #@! TO.N,/POT_2*
X172810000Y-120640000D03*
G04 #@! TO.P,RV2,1*
G04 #@! TO.N,+5V*
X172810000Y-118140000D03*
D12*
G04 #@! TO.P,RV2,*
G04 #@! TO.N,*
X165810000Y-125040000D03*
X165810000Y-116240000D03*
G04 #@! TD*
D14*
G04 #@! TO.N,VDD*
X213688238Y-103328000D03*
X213688238Y-102328000D03*
X213688238Y-104328000D03*
X212688238Y-104328000D03*
X212688238Y-103328000D03*
X212688238Y-102328000D03*
X211688238Y-102328000D03*
X211688238Y-103328000D03*
X211688238Y-104328000D03*
X210688238Y-104328000D03*
X210688238Y-103328000D03*
X210688238Y-102328000D03*
X213688238Y-109948000D03*
X213688238Y-110948000D03*
X212688238Y-111948000D03*
X212688238Y-110948000D03*
X212688238Y-109948000D03*
X211688238Y-109948000D03*
X211688238Y-110948000D03*
X211688238Y-111948000D03*
X210688238Y-111948000D03*
X210688238Y-110948000D03*
X210688238Y-109948000D03*
X213688238Y-111948000D03*
X213688238Y-117568000D03*
X213688238Y-118568000D03*
X213688238Y-119568000D03*
X212688238Y-119568000D03*
X212688238Y-118568000D03*
X212688238Y-117568000D03*
X211688238Y-117568000D03*
X211688238Y-118568000D03*
X211688238Y-119568000D03*
X210688238Y-119568000D03*
X210688238Y-118568000D03*
X210688238Y-117568000D03*
X213688238Y-130568000D03*
X213688238Y-131568000D03*
X213688238Y-132568000D03*
X213688238Y-133568000D03*
X212688238Y-133568000D03*
X212688238Y-132568000D03*
X212688238Y-131568000D03*
X212688238Y-130568000D03*
X211688238Y-130568000D03*
X211688238Y-132568000D03*
X211688238Y-131568000D03*
X211688238Y-133568000D03*
X210688238Y-133568000D03*
X210688238Y-132568000D03*
X210688238Y-131568000D03*
X210688238Y-130568000D03*
X211672000Y-100868000D03*
G04 #@! TO.N,GND*
X199226000Y-133126000D03*
X199226000Y-135666000D03*
X199226000Y-138206000D03*
X203544000Y-137952000D03*
X203036000Y-136174000D03*
X207100000Y-126776000D03*
X204814000Y-126776000D03*
X201766000Y-122204000D03*
X204052000Y-122458000D03*
X208624000Y-123982000D03*
X205576000Y-123982000D03*
X205830000Y-117171000D03*
X205830000Y-118695000D03*
X204814000Y-117171000D03*
X204814000Y-118695000D03*
X203798000Y-118695000D03*
X203798000Y-117171000D03*
X202782000Y-117171000D03*
X202782000Y-118695000D03*
X201766000Y-118695000D03*
X201766000Y-117171000D03*
X200750000Y-117171000D03*
X200750000Y-118695000D03*
X199734000Y-118695000D03*
X199734000Y-117171000D03*
X205830000Y-117933000D03*
X204814000Y-117933000D03*
X203798000Y-117933000D03*
X202782000Y-117933000D03*
X201766000Y-117933000D03*
X200750000Y-117933000D03*
X199734000Y-117933000D03*
X206846000Y-117171000D03*
X206846000Y-117933000D03*
X206846000Y-118695000D03*
X207862000Y-117171000D03*
X207862000Y-116155000D03*
X200750000Y-112091000D03*
X199734000Y-112853000D03*
X201766000Y-113615000D03*
X200750000Y-112853000D03*
X203798000Y-112091000D03*
X200750000Y-113615000D03*
X201766000Y-112091000D03*
X202782000Y-112091000D03*
X199734000Y-113615000D03*
X203798000Y-113615000D03*
X201766000Y-112853000D03*
X202782000Y-112853000D03*
X199734000Y-112091000D03*
X202782000Y-113615000D03*
X203798000Y-112853000D03*
X208370000Y-110012000D03*
X204306000Y-108234000D03*
X202020000Y-108742000D03*
X199480000Y-107980000D03*
X206338000Y-106456000D03*
X208878000Y-104424000D03*
X226150000Y-126522000D03*
X230468000Y-123982000D03*
X215482000Y-127538000D03*
X215482000Y-129570000D03*
X215482000Y-131856000D03*
X215482000Y-134142000D03*
X220308000Y-136428000D03*
X224372000Y-136428000D03*
X228690000Y-136428000D03*
X230000000Y-85000000D03*
X230000000Y-90000000D03*
X230000000Y-95000000D03*
X230000000Y-100000000D03*
X230000000Y-105000000D03*
X230000000Y-145000000D03*
X225000000Y-150000000D03*
X230000000Y-135000000D03*
X230000000Y-127500000D03*
X217500000Y-150000000D03*
X210000000Y-150000000D03*
X205000000Y-150000000D03*
X200000000Y-150000000D03*
X195000000Y-150000000D03*
X190000000Y-150000000D03*
X185000000Y-150000000D03*
X180000000Y-150000000D03*
X175000000Y-150000000D03*
X170000000Y-150000000D03*
X165000000Y-150000000D03*
X160000000Y-145000000D03*
X160000000Y-140000000D03*
X160000000Y-135000000D03*
X160000000Y-130000000D03*
X160000000Y-125000000D03*
X160000000Y-120000000D03*
X160000000Y-115000000D03*
X160000000Y-110000000D03*
X160000000Y-105000000D03*
X160000000Y-100000000D03*
X160000000Y-95000000D03*
X160000000Y-90000000D03*
X160000000Y-85000000D03*
X165000000Y-80000000D03*
X170000000Y-80000000D03*
X175000000Y-80000000D03*
X180000000Y-80000000D03*
X185000000Y-80000000D03*
X225000000Y-80000000D03*
X215228000Y-89692000D03*
X218276000Y-92486000D03*
X222340000Y-88422000D03*
X223864000Y-94010000D03*
X224880000Y-101884000D03*
X220562000Y-127538000D03*
X230468000Y-115854000D03*
X208624000Y-129824000D03*
X208624000Y-141254000D03*
X199734000Y-143794000D03*
X199734000Y-140492000D03*
X208624000Y-143286000D03*
X199734000Y-145826000D03*
X203290000Y-144810000D03*
X204560000Y-139476000D03*
X205576000Y-131348000D03*
X201512000Y-130586000D03*
X202528000Y-126522000D03*
X208624000Y-134904000D03*
X205322000Y-135412000D03*
X221578000Y-145572000D03*
X223864000Y-145572000D03*
X215482000Y-145572000D03*
X209640000Y-145572000D03*
X210402000Y-97566000D03*
X208370000Y-97566000D03*
X208370000Y-100360000D03*
X210402000Y-100106000D03*
X210402000Y-87152000D03*
X210402000Y-83342000D03*
X204560000Y-88676000D03*
X204306000Y-83088000D03*
X202274000Y-91724000D03*
X202274000Y-95534000D03*
X203290000Y-100106000D03*
X198464000Y-83342000D03*
X192876000Y-83342000D03*
X188812000Y-83596000D03*
X188812000Y-87660000D03*
X196178000Y-87406000D03*
X188812000Y-92232000D03*
X188812000Y-97058000D03*
X187288000Y-103154000D03*
X179414000Y-105186000D03*
X173826000Y-85882000D03*
X180938000Y-84866000D03*
X183478000Y-87152000D03*
X179160000Y-90200000D03*
X173826000Y-91470000D03*
X173826000Y-95534000D03*
X173826000Y-100106000D03*
X174080000Y-102900000D03*
X176112000Y-102900000D03*
X171286000Y-104678000D03*
X174080000Y-105440000D03*
X171286000Y-108742000D03*
X174080000Y-108742000D03*
X171032000Y-113060000D03*
X174080000Y-113060000D03*
X172048000Y-116108000D03*
X176112000Y-115600000D03*
X174080000Y-119410000D03*
X176366000Y-120426000D03*
X171286000Y-120934000D03*
X174080000Y-122204000D03*
X170016000Y-123982000D03*
X174334000Y-123982000D03*
X170016000Y-126522000D03*
X174334000Y-127030000D03*
X170016000Y-130332000D03*
X174842000Y-131094000D03*
X175858000Y-133888000D03*
X168746000Y-135920000D03*
X168746000Y-139476000D03*
X168746000Y-143286000D03*
X171794000Y-141000000D03*
X172048000Y-143540000D03*
X175604000Y-141762000D03*
X175604000Y-146080000D03*
X172302000Y-133888000D03*
X167730000Y-129570000D03*
X166714000Y-135920000D03*
X166206000Y-142270000D03*
X168746000Y-146080000D03*
X167730000Y-121696000D03*
X170778000Y-118140000D03*
X169254000Y-112044000D03*
X169254000Y-106202000D03*
X171032000Y-101630000D03*
X171032000Y-96804000D03*
X171032000Y-91978000D03*
X171032000Y-87406000D03*
X172556000Y-83596000D03*
X177382000Y-82580000D03*
X182970000Y-83342000D03*
G04 #@! TO.N,MOTOR_U*
X220404000Y-99970000D03*
G04 #@! TO.N,MOTOR_V*
X215324000Y-98954000D03*
G04 #@! TO.N,MOTOR_W*
X214054000Y-88540000D03*
G04 #@! TO.N,Net-(Q1-Pad4)*
X221676238Y-100956000D03*
X219644238Y-117593000D03*
G04 #@! TO.N,Net-(Q2-Pad4)*
X219114238Y-101001000D03*
X215558238Y-124369000D03*
G04 #@! TO.N,Net-(Q3-Pad4)*
X216596238Y-100194000D03*
X219517238Y-109973000D03*
G04 #@! TO.N,Net-(Q4-Pad4)*
X214034238Y-100239000D03*
X215558238Y-116368000D03*
G04 #@! TO.N,Net-(Q5-Pad4)*
X212891238Y-101001000D03*
X204783000Y-99335000D03*
G04 #@! TO.N,Net-(Q6-Pad4)*
X215558238Y-108875000D03*
X206053000Y-98461000D03*
G04 #@! TO.N,+5V*
X182970000Y-85120000D03*
G04 #@! TO.N,Net-(R20-Pad1)*
X202528000Y-129697000D03*
X202528000Y-132872000D03*
G04 #@! TO.N,Net-(R21-Pad1)*
X204814000Y-129697000D03*
X202528000Y-135412000D03*
G04 #@! TO.N,Net-(R22-Pad1)*
X202528000Y-137952000D03*
X207100000Y-129697000D03*
G04 #@! TD*
D15*
G04 #@! TO.N,VDD*
X210688238Y-102328000D02*
X210688238Y-101851762D01*
X210688238Y-101851762D02*
X211672000Y-100868000D01*
G04 #@! TO.N,MOTOR_U*
X224183127Y-122378000D02*
X222436000Y-120630873D01*
X226658000Y-122378000D02*
X224183127Y-122378000D01*
X221652240Y-99970000D02*
X220404000Y-99970000D01*
X222436000Y-120630873D02*
X222436000Y-100753760D01*
X222436000Y-100753760D02*
X221652240Y-99970000D01*
G04 #@! TO.N,MOTOR_V*
X223762000Y-114758000D02*
X226658000Y-114758000D01*
X223071000Y-114067000D02*
X223762000Y-114758000D01*
X223071000Y-100097000D02*
X223071000Y-114067000D01*
X215324000Y-98954000D02*
X221928000Y-98954000D01*
X221928000Y-98954000D02*
X223071000Y-100097000D01*
G04 #@! TO.N,MOTOR_W*
X224183127Y-107138000D02*
X226658000Y-107138000D01*
X214054000Y-96922000D02*
X215197000Y-98065000D01*
X215197000Y-98065000D02*
X222309000Y-98065000D01*
X222309000Y-98065000D02*
X223833000Y-99589000D01*
X223833000Y-99589000D02*
X223833000Y-106787873D01*
X223833000Y-106787873D02*
X224183127Y-107138000D01*
X214054000Y-88794000D02*
X214054000Y-96922000D01*
X214054000Y-88794000D02*
X214054000Y-88540000D01*
G04 #@! TO.N,Net-(Q1-Pad4)*
X221676238Y-116981000D02*
X221064238Y-117593000D01*
X221041238Y-117593000D02*
X219644238Y-117593000D01*
X221064238Y-117593000D02*
X221041238Y-117593000D01*
X221676238Y-100956000D02*
X221676238Y-116981000D01*
G04 #@! TO.N,Net-(Q2-Pad4)*
X220892238Y-102779000D02*
X219114238Y-101001000D01*
X220892238Y-116495000D02*
X220892238Y-102779000D01*
X220511238Y-116876000D02*
X220892238Y-116495000D01*
X216320238Y-116876000D02*
X220511238Y-116876000D01*
X215558238Y-124369000D02*
X215558238Y-117638000D01*
X215558238Y-117638000D02*
X216320238Y-116876000D01*
G04 #@! TO.N,Net-(Q3-Pad4)*
X217231238Y-100194000D02*
X219517238Y-102480000D01*
X219517238Y-102480000D02*
X219517238Y-109973000D01*
X216596238Y-100194000D02*
X217231238Y-100194000D01*
G04 #@! TO.N,Net-(Q4-Pad4)*
X214034238Y-100239000D02*
X215685238Y-100239000D01*
X215685238Y-100239000D02*
X216320238Y-100874000D01*
X216320238Y-115606000D02*
X215558238Y-116368000D01*
X216320238Y-100874000D02*
X216320238Y-115606000D01*
G04 #@! TO.N,Net-(Q5-Pad4)*
X211225238Y-99335000D02*
X212891238Y-101001000D01*
X204783000Y-99335000D02*
X211225238Y-99335000D01*
G04 #@! TO.N,Net-(Q6-Pad4)*
X213199236Y-100366000D02*
X213018238Y-100185002D01*
X211294236Y-98461000D02*
X213199236Y-100366000D01*
X213722237Y-100889001D02*
X213199236Y-100366000D01*
X215558238Y-102017000D02*
X215558238Y-101763000D01*
X215558238Y-108875000D02*
X215558238Y-102017000D01*
X215558238Y-101763000D02*
X214684239Y-100889001D01*
X214684239Y-100889001D02*
X213722237Y-100889001D01*
X211294236Y-98461000D02*
X206053000Y-98461000D01*
G04 #@! TO.N,+5V*
X197956000Y-86183000D02*
X184033000Y-86183000D01*
X184033000Y-86183000D02*
X182970000Y-85120000D01*
G04 #@! TO.N,Net-(R20-Pad1)*
X202528000Y-129697000D02*
X202528000Y-132872000D01*
G04 #@! TO.N,Net-(R21-Pad1)*
X203178001Y-134761999D02*
X202528000Y-135412000D01*
X203178001Y-130009001D02*
X203178001Y-134761999D01*
X203490002Y-129697000D02*
X203178001Y-130009001D01*
X204814000Y-129697000D02*
X203490002Y-129697000D01*
G04 #@! TO.N,Net-(R22-Pad1)*
X202528000Y-137952000D02*
X203925000Y-136555000D01*
X203925000Y-136555000D02*
X203925000Y-130840000D01*
X204417999Y-130347001D02*
X203925000Y-130840000D01*
X206449999Y-130347001D02*
X204417999Y-130347001D01*
X207100000Y-129697000D02*
X206449999Y-130347001D01*
G04 #@! TD*
D16*
G04 #@! TO.N,VDD*
G36*
X212755779Y-101682000D02*
X213026697Y-101682000D01*
X213038768Y-101677000D01*
X214203279Y-101677000D01*
X214404259Y-101730852D01*
X214539148Y-101865741D01*
X214593000Y-102066721D01*
X214593000Y-134053279D01*
X214539148Y-134254259D01*
X214404259Y-134389148D01*
X214203279Y-134443000D01*
X210156721Y-134443000D01*
X209955741Y-134389148D01*
X209820852Y-134254259D01*
X209767000Y-134053279D01*
X209767000Y-102066721D01*
X209820852Y-101865741D01*
X209955741Y-101730852D01*
X210156721Y-101677000D01*
X212743708Y-101677000D01*
X212755779Y-101682000D01*
X212755779Y-101682000D01*
G37*
X212755779Y-101682000D02*
X213026697Y-101682000D01*
X213038768Y-101677000D01*
X214203279Y-101677000D01*
X214404259Y-101730852D01*
X214539148Y-101865741D01*
X214593000Y-102066721D01*
X214593000Y-134053279D01*
X214539148Y-134254259D01*
X214404259Y-134389148D01*
X214203279Y-134443000D01*
X210156721Y-134443000D01*
X209955741Y-134389148D01*
X209820852Y-134254259D01*
X209767000Y-134053279D01*
X209767000Y-102066721D01*
X209820852Y-101865741D01*
X209955741Y-101730852D01*
X210156721Y-101677000D01*
X212743708Y-101677000D01*
X212755779Y-101682000D01*
G04 #@! TO.N,GND*
G36*
X230507420Y-78023726D02*
X230982957Y-78212004D01*
X231396735Y-78512631D01*
X231722746Y-78906711D01*
X231940513Y-79369492D01*
X232035719Y-79868577D01*
X232019000Y-79952628D01*
X232019001Y-85047373D01*
X232044000Y-85173052D01*
X232044001Y-125243026D01*
X232009203Y-125159017D01*
X231676983Y-124826797D01*
X231242915Y-124647000D01*
X230773085Y-124647000D01*
X230339017Y-124826797D01*
X230006797Y-125159017D01*
X229827000Y-125593085D01*
X229827000Y-126062915D01*
X230006797Y-126496983D01*
X230339017Y-126829203D01*
X230773085Y-127009000D01*
X231242915Y-127009000D01*
X231676983Y-126829203D01*
X232009203Y-126496983D01*
X232044001Y-126412974D01*
X232044001Y-142769026D01*
X232009203Y-142685017D01*
X231676983Y-142352797D01*
X231242915Y-142173000D01*
X230773085Y-142173000D01*
X230339017Y-142352797D01*
X230006797Y-142685017D01*
X229827000Y-143119085D01*
X229827000Y-143588915D01*
X230006797Y-144022983D01*
X230339017Y-144355203D01*
X230773085Y-144535000D01*
X231242915Y-144535000D01*
X231676983Y-144355203D01*
X232009203Y-144022983D01*
X232044001Y-143938973D01*
X232044001Y-149971306D01*
X231976274Y-150507420D01*
X231787995Y-150982958D01*
X231487371Y-151396733D01*
X231093288Y-151722747D01*
X230630512Y-151940512D01*
X230106782Y-152040419D01*
X229992837Y-152044000D01*
X165173057Y-152044000D01*
X165047373Y-152019000D01*
X159952627Y-152019000D01*
X159905303Y-152028413D01*
X159492580Y-151976274D01*
X159017042Y-151787995D01*
X158603267Y-151487371D01*
X158277253Y-151093288D01*
X158059488Y-150630512D01*
X157959581Y-150106782D01*
X157956000Y-149992837D01*
X157956000Y-148105955D01*
X159519000Y-148105955D01*
X159519000Y-148894045D01*
X159820589Y-149622146D01*
X160377854Y-150179411D01*
X161105955Y-150481000D01*
X161894045Y-150481000D01*
X162622146Y-150179411D01*
X163179411Y-149622146D01*
X163267987Y-149408302D01*
X176255000Y-149408302D01*
X176255000Y-149957698D01*
X176465245Y-150465273D01*
X176853727Y-150853755D01*
X177361302Y-151064000D01*
X177910698Y-151064000D01*
X178418273Y-150853755D01*
X178575286Y-150696742D01*
X197121863Y-150696742D01*
X197234485Y-150892146D01*
X197752126Y-151076217D01*
X198300806Y-151048184D01*
X198677515Y-150892146D01*
X198790137Y-150696742D01*
X197956000Y-149862605D01*
X197121863Y-150696742D01*
X178575286Y-150696742D01*
X178806755Y-150465273D01*
X179017000Y-149957698D01*
X179017000Y-149479126D01*
X196562783Y-149479126D01*
X196590816Y-150027806D01*
X196746854Y-150404515D01*
X196942258Y-150517137D01*
X197776395Y-149683000D01*
X198135605Y-149683000D01*
X198969742Y-150517137D01*
X199165146Y-150404515D01*
X199349217Y-149886874D01*
X199321184Y-149338194D01*
X199165146Y-148961485D01*
X198969742Y-148848863D01*
X198135605Y-149683000D01*
X197776395Y-149683000D01*
X196942258Y-148848863D01*
X196746854Y-148961485D01*
X196562783Y-149479126D01*
X179017000Y-149479126D01*
X179017000Y-149408302D01*
X178806755Y-148900727D01*
X178418273Y-148512245D01*
X178194638Y-148419612D01*
X178357515Y-148352146D01*
X178470137Y-148156742D01*
X177636000Y-147322605D01*
X176801863Y-148156742D01*
X176914485Y-148352146D01*
X177089765Y-148414475D01*
X176853727Y-148512245D01*
X176465245Y-148900727D01*
X176255000Y-149408302D01*
X163267987Y-149408302D01*
X163481000Y-148894045D01*
X163481000Y-148105955D01*
X163179411Y-147377854D01*
X162740683Y-146939126D01*
X176242783Y-146939126D01*
X176270816Y-147487806D01*
X176426854Y-147864515D01*
X176622258Y-147977137D01*
X177456395Y-147143000D01*
X177815605Y-147143000D01*
X178649742Y-147977137D01*
X178845146Y-147864515D01*
X179029217Y-147346874D01*
X179001184Y-146798194D01*
X178845146Y-146421485D01*
X178649742Y-146308863D01*
X177815605Y-147143000D01*
X177456395Y-147143000D01*
X176622258Y-146308863D01*
X176426854Y-146421485D01*
X176242783Y-146939126D01*
X162740683Y-146939126D01*
X162622146Y-146820589D01*
X161894045Y-146519000D01*
X161105955Y-146519000D01*
X160377854Y-146820589D01*
X159820589Y-147377854D01*
X159519000Y-148105955D01*
X157956000Y-148105955D01*
X157956000Y-144455302D01*
X168889000Y-144455302D01*
X168889000Y-145004698D01*
X169099245Y-145512273D01*
X169487727Y-145900755D01*
X169995302Y-146111000D01*
X170544698Y-146111000D01*
X171052273Y-145900755D01*
X171440755Y-145512273D01*
X171651000Y-145004698D01*
X171651000Y-144455302D01*
X171440755Y-143947727D01*
X171052273Y-143559245D01*
X170876922Y-143486612D01*
X170991515Y-143439146D01*
X171104137Y-143243742D01*
X170270000Y-142409605D01*
X169435863Y-143243742D01*
X169548485Y-143439146D01*
X169671804Y-143482998D01*
X169487727Y-143559245D01*
X169099245Y-143947727D01*
X168889000Y-144455302D01*
X157956000Y-144455302D01*
X157956000Y-142026126D01*
X168876783Y-142026126D01*
X168904816Y-142574806D01*
X169060854Y-142951515D01*
X169256258Y-143064137D01*
X170090395Y-142230000D01*
X170449605Y-142230000D01*
X171283742Y-143064137D01*
X171479146Y-142951515D01*
X171663217Y-142433874D01*
X171635184Y-141885194D01*
X171479146Y-141508485D01*
X171283742Y-141395863D01*
X170449605Y-142230000D01*
X170090395Y-142230000D01*
X169256258Y-141395863D01*
X169060854Y-141508485D01*
X168876783Y-142026126D01*
X157956000Y-142026126D01*
X157956000Y-134455302D01*
X168889000Y-134455302D01*
X168889000Y-135004698D01*
X169099245Y-135512273D01*
X169487727Y-135900755D01*
X169679041Y-135980000D01*
X169487727Y-136059245D01*
X169099245Y-136447727D01*
X168889000Y-136955302D01*
X168889000Y-137504698D01*
X169099245Y-138012273D01*
X169487727Y-138400755D01*
X169679041Y-138480000D01*
X169487727Y-138559245D01*
X169099245Y-138947727D01*
X168889000Y-139455302D01*
X168889000Y-140004698D01*
X169099245Y-140512273D01*
X169487727Y-140900755D01*
X169663078Y-140973388D01*
X169548485Y-141020854D01*
X169435863Y-141216258D01*
X170270000Y-142050395D01*
X171104137Y-141216258D01*
X170991515Y-141020854D01*
X170868196Y-140977002D01*
X171052273Y-140900755D01*
X171440755Y-140512273D01*
X171651000Y-140004698D01*
X171651000Y-139455302D01*
X171440755Y-138947727D01*
X171052273Y-138559245D01*
X170860959Y-138480000D01*
X171052273Y-138400755D01*
X171440755Y-138012273D01*
X171651000Y-137504698D01*
X171651000Y-136955302D01*
X171440755Y-136447727D01*
X171052273Y-136059245D01*
X170860959Y-135980000D01*
X171052273Y-135900755D01*
X171440755Y-135512273D01*
X171651000Y-135004698D01*
X171651000Y-134455302D01*
X171440755Y-133947727D01*
X171052273Y-133559245D01*
X170544698Y-133349000D01*
X169995302Y-133349000D01*
X169487727Y-133559245D01*
X169099245Y-133947727D01*
X168889000Y-134455302D01*
X157956000Y-134455302D01*
X157956000Y-124566390D01*
X163429000Y-124566390D01*
X163429000Y-125513610D01*
X163791485Y-126388728D01*
X164461272Y-127058515D01*
X165336390Y-127421000D01*
X166283610Y-127421000D01*
X167158728Y-127058515D01*
X167828515Y-126388728D01*
X168191000Y-125513610D01*
X168191000Y-124566390D01*
X167990061Y-124081277D01*
X172048328Y-124081277D01*
X172148679Y-124266296D01*
X172630034Y-124433638D01*
X173138787Y-124404036D01*
X173471321Y-124266296D01*
X173571672Y-124081277D01*
X172810000Y-123319605D01*
X172048328Y-124081277D01*
X167990061Y-124081277D01*
X167828515Y-123691272D01*
X167158728Y-123021485D01*
X167010372Y-122960034D01*
X171516362Y-122960034D01*
X171545964Y-123468787D01*
X171683704Y-123801321D01*
X171868723Y-123901672D01*
X172630395Y-123140000D01*
X172989605Y-123140000D01*
X173751277Y-123901672D01*
X173936296Y-123801321D01*
X174103638Y-123319966D01*
X174074036Y-122811213D01*
X173936296Y-122478679D01*
X173751277Y-122378328D01*
X172989605Y-123140000D01*
X172630395Y-123140000D01*
X171868723Y-122378328D01*
X171683704Y-122478679D01*
X171516362Y-122960034D01*
X167010372Y-122960034D01*
X166283610Y-122659000D01*
X165336390Y-122659000D01*
X164461272Y-123021485D01*
X163791485Y-123691272D01*
X163429000Y-124566390D01*
X157956000Y-124566390D01*
X157956000Y-115766390D01*
X163429000Y-115766390D01*
X163429000Y-116713610D01*
X163791485Y-117588728D01*
X164461272Y-118258515D01*
X165336390Y-118621000D01*
X166283610Y-118621000D01*
X167158728Y-118258515D01*
X167532050Y-117885193D01*
X171529000Y-117885193D01*
X171529000Y-118394807D01*
X171724021Y-118865628D01*
X172084372Y-119225979D01*
X172480353Y-119390000D01*
X172084372Y-119554021D01*
X171724021Y-119914372D01*
X171529000Y-120385193D01*
X171529000Y-120894807D01*
X171724021Y-121365628D01*
X172084372Y-121725979D01*
X172463840Y-121883160D01*
X172148679Y-122013704D01*
X172048328Y-122198723D01*
X172810000Y-122960395D01*
X173571672Y-122198723D01*
X173471321Y-122013704D01*
X173128624Y-121894566D01*
X173535628Y-121725979D01*
X173895979Y-121365628D01*
X174091000Y-120894807D01*
X174091000Y-120385193D01*
X173895979Y-119914372D01*
X173535628Y-119554021D01*
X173139647Y-119390000D01*
X173535628Y-119225979D01*
X173895979Y-118865628D01*
X174091000Y-118394807D01*
X174091000Y-117885193D01*
X173895979Y-117414372D01*
X173535628Y-117054021D01*
X173064807Y-116859000D01*
X172555193Y-116859000D01*
X172084372Y-117054021D01*
X171724021Y-117414372D01*
X171529000Y-117885193D01*
X167532050Y-117885193D01*
X167828515Y-117588728D01*
X168191000Y-116713610D01*
X168191000Y-115766390D01*
X167828515Y-114891272D01*
X167158728Y-114221485D01*
X166283610Y-113859000D01*
X165336390Y-113859000D01*
X164461272Y-114221485D01*
X163791485Y-114891272D01*
X163429000Y-115766390D01*
X157956000Y-115766390D01*
X157956000Y-108056390D01*
X163429000Y-108056390D01*
X163429000Y-109003610D01*
X163791485Y-109878728D01*
X164461272Y-110548515D01*
X165336390Y-110911000D01*
X166283610Y-110911000D01*
X167158728Y-110548515D01*
X167828515Y-109878728D01*
X168191000Y-109003610D01*
X168191000Y-108056390D01*
X167990061Y-107571277D01*
X172048328Y-107571277D01*
X172148679Y-107756296D01*
X172630034Y-107923638D01*
X173138787Y-107894036D01*
X173471321Y-107756296D01*
X173571672Y-107571277D01*
X172810000Y-106809605D01*
X172048328Y-107571277D01*
X167990061Y-107571277D01*
X167828515Y-107181272D01*
X167158728Y-106511485D01*
X167010372Y-106450034D01*
X171516362Y-106450034D01*
X171545964Y-106958787D01*
X171683704Y-107291321D01*
X171868723Y-107391672D01*
X172630395Y-106630000D01*
X172989605Y-106630000D01*
X173751277Y-107391672D01*
X173936296Y-107291321D01*
X174103638Y-106809966D01*
X174074036Y-106301213D01*
X173936296Y-105968679D01*
X173751277Y-105868328D01*
X172989605Y-106630000D01*
X172630395Y-106630000D01*
X171868723Y-105868328D01*
X171683704Y-105968679D01*
X171516362Y-106450034D01*
X167010372Y-106450034D01*
X166283610Y-106149000D01*
X165336390Y-106149000D01*
X164461272Y-106511485D01*
X163791485Y-107181272D01*
X163429000Y-108056390D01*
X157956000Y-108056390D01*
X157956000Y-99256390D01*
X163429000Y-99256390D01*
X163429000Y-100203610D01*
X163791485Y-101078728D01*
X164461272Y-101748515D01*
X165336390Y-102111000D01*
X166283610Y-102111000D01*
X167158728Y-101748515D01*
X167532050Y-101375193D01*
X171529000Y-101375193D01*
X171529000Y-101884807D01*
X171724021Y-102355628D01*
X172084372Y-102715979D01*
X172480353Y-102880000D01*
X172084372Y-103044021D01*
X171724021Y-103404372D01*
X171529000Y-103875193D01*
X171529000Y-104384807D01*
X171724021Y-104855628D01*
X172084372Y-105215979D01*
X172463840Y-105373160D01*
X172148679Y-105503704D01*
X172048328Y-105688723D01*
X172810000Y-106450395D01*
X173571672Y-105688723D01*
X173471321Y-105503704D01*
X173128624Y-105384566D01*
X173535628Y-105215979D01*
X173895979Y-104855628D01*
X174091000Y-104384807D01*
X174091000Y-103875193D01*
X173895979Y-103404372D01*
X173535628Y-103044021D01*
X173139647Y-102880000D01*
X173535628Y-102715979D01*
X173895979Y-102355628D01*
X174091000Y-101884807D01*
X174091000Y-101375193D01*
X173895979Y-100904372D01*
X173535628Y-100544021D01*
X173064807Y-100349000D01*
X172555193Y-100349000D01*
X172084372Y-100544021D01*
X171724021Y-100904372D01*
X171529000Y-101375193D01*
X167532050Y-101375193D01*
X167828515Y-101078728D01*
X168191000Y-100203610D01*
X168191000Y-99256390D01*
X167828515Y-98381272D01*
X167158728Y-97711485D01*
X166283610Y-97349000D01*
X165336390Y-97349000D01*
X164461272Y-97711485D01*
X163791485Y-98381272D01*
X163429000Y-99256390D01*
X157956000Y-99256390D01*
X157956000Y-85908302D01*
X176255000Y-85908302D01*
X176255000Y-86457698D01*
X176465245Y-86965273D01*
X176853727Y-87353755D01*
X177093325Y-87453000D01*
X176853727Y-87552245D01*
X176465245Y-87940727D01*
X176255000Y-88448302D01*
X176255000Y-88997698D01*
X176465245Y-89505273D01*
X176853727Y-89893755D01*
X177093325Y-89993000D01*
X176853727Y-90092245D01*
X176465245Y-90480727D01*
X176255000Y-90988302D01*
X176255000Y-91537698D01*
X176465245Y-92045273D01*
X176853727Y-92433755D01*
X177093325Y-92533000D01*
X176853727Y-92632245D01*
X176465245Y-93020727D01*
X176255000Y-93528302D01*
X176255000Y-94077698D01*
X176465245Y-94585273D01*
X176853727Y-94973755D01*
X177093325Y-95073000D01*
X176853727Y-95172245D01*
X176465245Y-95560727D01*
X176255000Y-96068302D01*
X176255000Y-96617698D01*
X176465245Y-97125273D01*
X176853727Y-97513755D01*
X177093325Y-97613000D01*
X176853727Y-97712245D01*
X176465245Y-98100727D01*
X176255000Y-98608302D01*
X176255000Y-99157698D01*
X176465245Y-99665273D01*
X176853727Y-100053755D01*
X177093325Y-100153000D01*
X176853727Y-100252245D01*
X176465245Y-100640727D01*
X176255000Y-101148302D01*
X176255000Y-101697698D01*
X176465245Y-102205273D01*
X176853727Y-102593755D01*
X177093325Y-102693000D01*
X176853727Y-102792245D01*
X176465245Y-103180727D01*
X176255000Y-103688302D01*
X176255000Y-104237698D01*
X176465245Y-104745273D01*
X176853727Y-105133755D01*
X177093325Y-105233000D01*
X176853727Y-105332245D01*
X176465245Y-105720727D01*
X176255000Y-106228302D01*
X176255000Y-106777698D01*
X176465245Y-107285273D01*
X176853727Y-107673755D01*
X177093325Y-107773000D01*
X176853727Y-107872245D01*
X176465245Y-108260727D01*
X176255000Y-108768302D01*
X176255000Y-109317698D01*
X176465245Y-109825273D01*
X176853727Y-110213755D01*
X177093325Y-110313000D01*
X176853727Y-110412245D01*
X176465245Y-110800727D01*
X176255000Y-111308302D01*
X176255000Y-111857698D01*
X176465245Y-112365273D01*
X176853727Y-112753755D01*
X177093325Y-112853000D01*
X176853727Y-112952245D01*
X176465245Y-113340727D01*
X176255000Y-113848302D01*
X176255000Y-114397698D01*
X176465245Y-114905273D01*
X176853727Y-115293755D01*
X177093325Y-115393000D01*
X176853727Y-115492245D01*
X176465245Y-115880727D01*
X176255000Y-116388302D01*
X176255000Y-116937698D01*
X176465245Y-117445273D01*
X176853727Y-117833755D01*
X177093325Y-117933000D01*
X176853727Y-118032245D01*
X176465245Y-118420727D01*
X176255000Y-118928302D01*
X176255000Y-119477698D01*
X176465245Y-119985273D01*
X176853727Y-120373755D01*
X177093325Y-120473000D01*
X176853727Y-120572245D01*
X176465245Y-120960727D01*
X176255000Y-121468302D01*
X176255000Y-122017698D01*
X176465245Y-122525273D01*
X176853727Y-122913755D01*
X177093325Y-123013000D01*
X176853727Y-123112245D01*
X176465245Y-123500727D01*
X176255000Y-124008302D01*
X176255000Y-124557698D01*
X176465245Y-125065273D01*
X176853727Y-125453755D01*
X177093325Y-125553000D01*
X176853727Y-125652245D01*
X176465245Y-126040727D01*
X176255000Y-126548302D01*
X176255000Y-127097698D01*
X176465245Y-127605273D01*
X176853727Y-127993755D01*
X177093325Y-128093000D01*
X176853727Y-128192245D01*
X176465245Y-128580727D01*
X176255000Y-129088302D01*
X176255000Y-129637698D01*
X176465245Y-130145273D01*
X176853727Y-130533755D01*
X177093325Y-130633000D01*
X176853727Y-130732245D01*
X176465245Y-131120727D01*
X176255000Y-131628302D01*
X176255000Y-132177698D01*
X176465245Y-132685273D01*
X176853727Y-133073755D01*
X177093325Y-133173000D01*
X176853727Y-133272245D01*
X176465245Y-133660727D01*
X176255000Y-134168302D01*
X176255000Y-134717698D01*
X176465245Y-135225273D01*
X176853727Y-135613755D01*
X177093325Y-135713000D01*
X176853727Y-135812245D01*
X176465245Y-136200727D01*
X176255000Y-136708302D01*
X176255000Y-137257698D01*
X176465245Y-137765273D01*
X176853727Y-138153755D01*
X177093325Y-138253000D01*
X176853727Y-138352245D01*
X176465245Y-138740727D01*
X176255000Y-139248302D01*
X176255000Y-139797698D01*
X176465245Y-140305273D01*
X176853727Y-140693755D01*
X177093325Y-140793000D01*
X176853727Y-140892245D01*
X176465245Y-141280727D01*
X176255000Y-141788302D01*
X176255000Y-142337698D01*
X176465245Y-142845273D01*
X176853727Y-143233755D01*
X177093325Y-143333000D01*
X176853727Y-143432245D01*
X176465245Y-143820727D01*
X176255000Y-144328302D01*
X176255000Y-144877698D01*
X176465245Y-145385273D01*
X176853727Y-145773755D01*
X177077362Y-145866388D01*
X176914485Y-145933854D01*
X176801863Y-146129258D01*
X177636000Y-146963395D01*
X178470137Y-146129258D01*
X178357515Y-145933854D01*
X178182235Y-145871525D01*
X178418273Y-145773755D01*
X178806755Y-145385273D01*
X179017000Y-144877698D01*
X179017000Y-144328302D01*
X178806755Y-143820727D01*
X178418273Y-143432245D01*
X178178675Y-143333000D01*
X178418273Y-143233755D01*
X178806755Y-142845273D01*
X179017000Y-142337698D01*
X179017000Y-141788302D01*
X178806755Y-141280727D01*
X178418273Y-140892245D01*
X178178675Y-140793000D01*
X178418273Y-140693755D01*
X178806755Y-140305273D01*
X179017000Y-139797698D01*
X179017000Y-139248302D01*
X178806755Y-138740727D01*
X178418273Y-138352245D01*
X178178675Y-138253000D01*
X178418273Y-138153755D01*
X178806755Y-137765273D01*
X179017000Y-137257698D01*
X179017000Y-136708302D01*
X178806755Y-136200727D01*
X178418273Y-135812245D01*
X178178675Y-135713000D01*
X178418273Y-135613755D01*
X178806755Y-135225273D01*
X179017000Y-134717698D01*
X179017000Y-134168302D01*
X178806755Y-133660727D01*
X178418273Y-133272245D01*
X178178675Y-133173000D01*
X178418273Y-133073755D01*
X178806755Y-132685273D01*
X179017000Y-132177698D01*
X179017000Y-131628302D01*
X178806755Y-131120727D01*
X178418273Y-130732245D01*
X178178675Y-130633000D01*
X178418273Y-130533755D01*
X178806755Y-130145273D01*
X179017000Y-129637698D01*
X179017000Y-129088302D01*
X178806755Y-128580727D01*
X178418273Y-128192245D01*
X178178675Y-128093000D01*
X178418273Y-127993755D01*
X178806755Y-127605273D01*
X179017000Y-127097698D01*
X179017000Y-126548302D01*
X178806755Y-126040727D01*
X178418273Y-125652245D01*
X178178675Y-125553000D01*
X178418273Y-125453755D01*
X178806755Y-125065273D01*
X179017000Y-124557698D01*
X179017000Y-124008302D01*
X178806755Y-123500727D01*
X178418273Y-123112245D01*
X178178675Y-123013000D01*
X178418273Y-122913755D01*
X178806755Y-122525273D01*
X179017000Y-122017698D01*
X179017000Y-121468302D01*
X178806755Y-120960727D01*
X178418273Y-120572245D01*
X178178675Y-120473000D01*
X178418273Y-120373755D01*
X178806755Y-119985273D01*
X179017000Y-119477698D01*
X179017000Y-118928302D01*
X178806755Y-118420727D01*
X178418273Y-118032245D01*
X178178675Y-117933000D01*
X178418273Y-117833755D01*
X178806755Y-117445273D01*
X179017000Y-116937698D01*
X179017000Y-116388302D01*
X178806755Y-115880727D01*
X178418273Y-115492245D01*
X178178675Y-115393000D01*
X178418273Y-115293755D01*
X178806755Y-114905273D01*
X179017000Y-114397698D01*
X179017000Y-113848302D01*
X178806755Y-113340727D01*
X178418273Y-112952245D01*
X178178675Y-112853000D01*
X178418273Y-112753755D01*
X178806755Y-112365273D01*
X179017000Y-111857698D01*
X179017000Y-111308302D01*
X178806755Y-110800727D01*
X178418273Y-110412245D01*
X178178675Y-110313000D01*
X178418273Y-110213755D01*
X178806755Y-109825273D01*
X179017000Y-109317698D01*
X179017000Y-108768302D01*
X178806755Y-108260727D01*
X178418273Y-107872245D01*
X178178675Y-107773000D01*
X178418273Y-107673755D01*
X178806755Y-107285273D01*
X179017000Y-106777698D01*
X179017000Y-106228302D01*
X178806755Y-105720727D01*
X178418273Y-105332245D01*
X178178675Y-105233000D01*
X178418273Y-105133755D01*
X178806755Y-104745273D01*
X179017000Y-104237698D01*
X179017000Y-103688302D01*
X178806755Y-103180727D01*
X178418273Y-102792245D01*
X178178675Y-102693000D01*
X178418273Y-102593755D01*
X178806755Y-102205273D01*
X179017000Y-101697698D01*
X179017000Y-101148302D01*
X178806755Y-100640727D01*
X178418273Y-100252245D01*
X178178675Y-100153000D01*
X178418273Y-100053755D01*
X178806755Y-99665273D01*
X179017000Y-99157698D01*
X179017000Y-98608302D01*
X178806755Y-98100727D01*
X178418273Y-97712245D01*
X178178675Y-97613000D01*
X178418273Y-97513755D01*
X178806755Y-97125273D01*
X179017000Y-96617698D01*
X179017000Y-96068302D01*
X178806755Y-95560727D01*
X178418273Y-95172245D01*
X178178675Y-95073000D01*
X178418273Y-94973755D01*
X178806755Y-94585273D01*
X179017000Y-94077698D01*
X179017000Y-93528302D01*
X178806755Y-93020727D01*
X178418273Y-92632245D01*
X178178675Y-92533000D01*
X178418273Y-92433755D01*
X178806755Y-92045273D01*
X179017000Y-91537698D01*
X179017000Y-90988302D01*
X196575000Y-90988302D01*
X196575000Y-91537698D01*
X196785245Y-92045273D01*
X197173727Y-92433755D01*
X197413325Y-92533000D01*
X197173727Y-92632245D01*
X196785245Y-93020727D01*
X196575000Y-93528302D01*
X196575000Y-94077698D01*
X196785245Y-94585273D01*
X197173727Y-94973755D01*
X197413325Y-95073000D01*
X197173727Y-95172245D01*
X196785245Y-95560727D01*
X196575000Y-96068302D01*
X196575000Y-96617698D01*
X196785245Y-97125273D01*
X197173727Y-97513755D01*
X197413325Y-97613000D01*
X197173727Y-97712245D01*
X196785245Y-98100727D01*
X196575000Y-98608302D01*
X196575000Y-99157698D01*
X196785245Y-99665273D01*
X197173727Y-100053755D01*
X197413325Y-100153000D01*
X197173727Y-100252245D01*
X196785245Y-100640727D01*
X196575000Y-101148302D01*
X196575000Y-101697698D01*
X196785245Y-102205273D01*
X197173727Y-102593755D01*
X197413325Y-102693000D01*
X197173727Y-102792245D01*
X196785245Y-103180727D01*
X196575000Y-103688302D01*
X196575000Y-104237698D01*
X196785245Y-104745273D01*
X197173727Y-105133755D01*
X197413325Y-105233000D01*
X197173727Y-105332245D01*
X196785245Y-105720727D01*
X196575000Y-106228302D01*
X196575000Y-106777698D01*
X196785245Y-107285273D01*
X197173727Y-107673755D01*
X197413325Y-107773000D01*
X197173727Y-107872245D01*
X196785245Y-108260727D01*
X196575000Y-108768302D01*
X196575000Y-109317698D01*
X196785245Y-109825273D01*
X197173727Y-110213755D01*
X197413325Y-110313000D01*
X197173727Y-110412245D01*
X196785245Y-110800727D01*
X196575000Y-111308302D01*
X196575000Y-111857698D01*
X196785245Y-112365273D01*
X197173727Y-112753755D01*
X197413325Y-112853000D01*
X197173727Y-112952245D01*
X196785245Y-113340727D01*
X196575000Y-113848302D01*
X196575000Y-114397698D01*
X196785245Y-114905273D01*
X197173727Y-115293755D01*
X197413325Y-115393000D01*
X197173727Y-115492245D01*
X196785245Y-115880727D01*
X196575000Y-116388302D01*
X196575000Y-116937698D01*
X196785245Y-117445273D01*
X197173727Y-117833755D01*
X197413325Y-117933000D01*
X197173727Y-118032245D01*
X196785245Y-118420727D01*
X196575000Y-118928302D01*
X196575000Y-119477698D01*
X196785245Y-119985273D01*
X197173727Y-120373755D01*
X197413325Y-120473000D01*
X197173727Y-120572245D01*
X196785245Y-120960727D01*
X196575000Y-121468302D01*
X196575000Y-122017698D01*
X196785245Y-122525273D01*
X197173727Y-122913755D01*
X197413325Y-123013000D01*
X197173727Y-123112245D01*
X196785245Y-123500727D01*
X196575000Y-124008302D01*
X196575000Y-124557698D01*
X196785245Y-125065273D01*
X197173727Y-125453755D01*
X197413325Y-125553000D01*
X197173727Y-125652245D01*
X196785245Y-126040727D01*
X196575000Y-126548302D01*
X196575000Y-127097698D01*
X196785245Y-127605273D01*
X197173727Y-127993755D01*
X197413325Y-128093000D01*
X197173727Y-128192245D01*
X196785245Y-128580727D01*
X196575000Y-129088302D01*
X196575000Y-129637698D01*
X196785245Y-130145273D01*
X197173727Y-130533755D01*
X197413325Y-130633000D01*
X197173727Y-130732245D01*
X196785245Y-131120727D01*
X196575000Y-131628302D01*
X196575000Y-132177698D01*
X196785245Y-132685273D01*
X197173727Y-133073755D01*
X197413325Y-133173000D01*
X197173727Y-133272245D01*
X196785245Y-133660727D01*
X196575000Y-134168302D01*
X196575000Y-134717698D01*
X196785245Y-135225273D01*
X197173727Y-135613755D01*
X197413325Y-135713000D01*
X197173727Y-135812245D01*
X196785245Y-136200727D01*
X196575000Y-136708302D01*
X196575000Y-137257698D01*
X196785245Y-137765273D01*
X197173727Y-138153755D01*
X197413325Y-138253000D01*
X197173727Y-138352245D01*
X196785245Y-138740727D01*
X196575000Y-139248302D01*
X196575000Y-139797698D01*
X196785245Y-140305273D01*
X197173727Y-140693755D01*
X197413325Y-140793000D01*
X197173727Y-140892245D01*
X196785245Y-141280727D01*
X196575000Y-141788302D01*
X196575000Y-142337698D01*
X196785245Y-142845273D01*
X197173727Y-143233755D01*
X197413325Y-143333000D01*
X197173727Y-143432245D01*
X196785245Y-143820727D01*
X196575000Y-144328302D01*
X196575000Y-144877698D01*
X196785245Y-145385273D01*
X197173727Y-145773755D01*
X197413325Y-145873000D01*
X197173727Y-145972245D01*
X196785245Y-146360727D01*
X196575000Y-146868302D01*
X196575000Y-147417698D01*
X196785245Y-147925273D01*
X197173727Y-148313755D01*
X197397362Y-148406388D01*
X197234485Y-148473854D01*
X197121863Y-148669258D01*
X197956000Y-149503395D01*
X198790137Y-148669258D01*
X198677515Y-148473854D01*
X198502235Y-148411525D01*
X198738273Y-148313755D01*
X198946073Y-148105955D01*
X226519000Y-148105955D01*
X226519000Y-148894045D01*
X226820589Y-149622146D01*
X227377854Y-150179411D01*
X228105955Y-150481000D01*
X228894045Y-150481000D01*
X229622146Y-150179411D01*
X230179411Y-149622146D01*
X230481000Y-148894045D01*
X230481000Y-148105955D01*
X230179411Y-147377854D01*
X229622146Y-146820589D01*
X228894045Y-146519000D01*
X228105955Y-146519000D01*
X227377854Y-146820589D01*
X226820589Y-147377854D01*
X226519000Y-148105955D01*
X198946073Y-148105955D01*
X199126755Y-147925273D01*
X199337000Y-147417698D01*
X199337000Y-146868302D01*
X199126755Y-146360727D01*
X198738273Y-145972245D01*
X198498675Y-145873000D01*
X198738273Y-145773755D01*
X199126755Y-145385273D01*
X199337000Y-144877698D01*
X199337000Y-144328302D01*
X199126755Y-143820727D01*
X198738273Y-143432245D01*
X198498675Y-143333000D01*
X198738273Y-143233755D01*
X199126755Y-142845273D01*
X199337000Y-142337698D01*
X199337000Y-141788302D01*
X199126755Y-141280727D01*
X198738273Y-140892245D01*
X198498675Y-140793000D01*
X198738273Y-140693755D01*
X199126755Y-140305273D01*
X199337000Y-139797698D01*
X199337000Y-139480118D01*
X224527000Y-139480118D01*
X224527000Y-140327882D01*
X224851425Y-141111115D01*
X225450885Y-141710575D01*
X226234118Y-142035000D01*
X227081882Y-142035000D01*
X227865115Y-141710575D01*
X228464575Y-141111115D01*
X228789000Y-140327882D01*
X228789000Y-139480118D01*
X228464575Y-138696885D01*
X227865115Y-138097425D01*
X227081882Y-137773000D01*
X226234118Y-137773000D01*
X225450885Y-138097425D01*
X224851425Y-138696885D01*
X224527000Y-139480118D01*
X199337000Y-139480118D01*
X199337000Y-139248302D01*
X199126755Y-138740727D01*
X198738273Y-138352245D01*
X198498675Y-138253000D01*
X198738273Y-138153755D01*
X199126755Y-137765273D01*
X199337000Y-137257698D01*
X199337000Y-136708302D01*
X199126755Y-136200727D01*
X198738273Y-135812245D01*
X198498675Y-135713000D01*
X198738273Y-135613755D01*
X199126755Y-135225273D01*
X199337000Y-134717698D01*
X199337000Y-134168302D01*
X199126755Y-133660727D01*
X198738273Y-133272245D01*
X198498675Y-133173000D01*
X198738273Y-133073755D01*
X199126755Y-132685273D01*
X199337000Y-132177698D01*
X199337000Y-131628302D01*
X199126755Y-131120727D01*
X198738273Y-130732245D01*
X198498675Y-130633000D01*
X198738273Y-130533755D01*
X199126755Y-130145273D01*
X199337000Y-129637698D01*
X199337000Y-129561541D01*
X201847000Y-129561541D01*
X201847000Y-129832459D01*
X201950676Y-130082756D01*
X201997000Y-130129080D01*
X201997001Y-132439919D01*
X201950676Y-132486244D01*
X201847000Y-132736541D01*
X201847000Y-133007459D01*
X201950676Y-133257756D01*
X202142244Y-133449324D01*
X202392541Y-133553000D01*
X202647002Y-133553000D01*
X202647002Y-134542051D01*
X202458053Y-134731000D01*
X202392541Y-134731000D01*
X202142244Y-134834676D01*
X201950676Y-135026244D01*
X201847000Y-135276541D01*
X201847000Y-135547459D01*
X201950676Y-135797756D01*
X202142244Y-135989324D01*
X202392541Y-136093000D01*
X202663459Y-136093000D01*
X202913756Y-135989324D01*
X203105324Y-135797756D01*
X203209000Y-135547459D01*
X203209000Y-135481947D01*
X203394000Y-135296947D01*
X203394000Y-136335053D01*
X202458053Y-137271000D01*
X202392541Y-137271000D01*
X202142244Y-137374676D01*
X201950676Y-137566244D01*
X201847000Y-137816541D01*
X201847000Y-138087459D01*
X201950676Y-138337756D01*
X202142244Y-138529324D01*
X202392541Y-138633000D01*
X202663459Y-138633000D01*
X202913756Y-138529324D01*
X203105324Y-138337756D01*
X203209000Y-138087459D01*
X203209000Y-138021947D01*
X204263495Y-136967452D01*
X204307829Y-136937829D01*
X204425190Y-136762186D01*
X204456000Y-136607294D01*
X204456000Y-136607291D01*
X204466401Y-136555001D01*
X204456000Y-136502711D01*
X204456000Y-131059947D01*
X204637947Y-130878001D01*
X206397709Y-130878001D01*
X206449999Y-130888402D01*
X206502289Y-130878001D01*
X206502293Y-130878001D01*
X206657185Y-130847191D01*
X206832828Y-130729830D01*
X206862451Y-130685496D01*
X207169947Y-130378000D01*
X207235459Y-130378000D01*
X207485756Y-130274324D01*
X207677324Y-130082756D01*
X207781000Y-129832459D01*
X207781000Y-129561541D01*
X207677324Y-129311244D01*
X207485756Y-129119676D01*
X207235459Y-129016000D01*
X206964541Y-129016000D01*
X206714244Y-129119676D01*
X206522676Y-129311244D01*
X206419000Y-129561541D01*
X206419000Y-129627053D01*
X206230052Y-129816001D01*
X205495000Y-129816001D01*
X205495000Y-129561541D01*
X205391324Y-129311244D01*
X205199756Y-129119676D01*
X204949459Y-129016000D01*
X204678541Y-129016000D01*
X204428244Y-129119676D01*
X204381920Y-129166000D01*
X203542291Y-129166000D01*
X203490001Y-129155599D01*
X203437711Y-129166000D01*
X203437708Y-129166000D01*
X203282816Y-129196810D01*
X203107173Y-129314171D01*
X203106780Y-129314759D01*
X203105324Y-129311244D01*
X202913756Y-129119676D01*
X202663459Y-129016000D01*
X202392541Y-129016000D01*
X202142244Y-129119676D01*
X201950676Y-129311244D01*
X201847000Y-129561541D01*
X199337000Y-129561541D01*
X199337000Y-129088302D01*
X199126755Y-128580727D01*
X198738273Y-128192245D01*
X198498675Y-128093000D01*
X198738273Y-127993755D01*
X199126755Y-127605273D01*
X199337000Y-127097698D01*
X199337000Y-126548302D01*
X199126755Y-126040727D01*
X198738273Y-125652245D01*
X198498675Y-125553000D01*
X198738273Y-125453755D01*
X199126755Y-125065273D01*
X199337000Y-124557698D01*
X199337000Y-124008302D01*
X199126755Y-123500727D01*
X198738273Y-123112245D01*
X198498675Y-123013000D01*
X198738273Y-122913755D01*
X199126755Y-122525273D01*
X199337000Y-122017698D01*
X199337000Y-121468302D01*
X199126755Y-120960727D01*
X198738273Y-120572245D01*
X198498675Y-120473000D01*
X198738273Y-120373755D01*
X199126755Y-119985273D01*
X199337000Y-119477698D01*
X199337000Y-118928302D01*
X199126755Y-118420727D01*
X198738273Y-118032245D01*
X198498675Y-117933000D01*
X198738273Y-117833755D01*
X199126755Y-117445273D01*
X199337000Y-116937698D01*
X199337000Y-116388302D01*
X199126755Y-115880727D01*
X198738273Y-115492245D01*
X198498675Y-115393000D01*
X198738273Y-115293755D01*
X199126755Y-114905273D01*
X199337000Y-114397698D01*
X199337000Y-113848302D01*
X199126755Y-113340727D01*
X198738273Y-112952245D01*
X198498675Y-112853000D01*
X198738273Y-112753755D01*
X199126755Y-112365273D01*
X199337000Y-111857698D01*
X199337000Y-111308302D01*
X199126755Y-110800727D01*
X198738273Y-110412245D01*
X198498675Y-110313000D01*
X198738273Y-110213755D01*
X199126755Y-109825273D01*
X199337000Y-109317698D01*
X199337000Y-108768302D01*
X199126755Y-108260727D01*
X198738273Y-107872245D01*
X198498675Y-107773000D01*
X198738273Y-107673755D01*
X199126755Y-107285273D01*
X199337000Y-106777698D01*
X199337000Y-106228302D01*
X199126755Y-105720727D01*
X198738273Y-105332245D01*
X198498675Y-105233000D01*
X198738273Y-105133755D01*
X199126755Y-104745273D01*
X199337000Y-104237698D01*
X199337000Y-103688302D01*
X199126755Y-103180727D01*
X198738273Y-102792245D01*
X198498675Y-102693000D01*
X198738273Y-102593755D01*
X199126755Y-102205273D01*
X199337000Y-101697698D01*
X199337000Y-101148302D01*
X199126755Y-100640727D01*
X198738273Y-100252245D01*
X198498675Y-100153000D01*
X198738273Y-100053755D01*
X199126755Y-99665273D01*
X199319668Y-99199541D01*
X204102000Y-99199541D01*
X204102000Y-99470459D01*
X204205676Y-99720756D01*
X204397244Y-99912324D01*
X204647541Y-100016000D01*
X204918459Y-100016000D01*
X205168756Y-99912324D01*
X205215080Y-99866000D01*
X211005291Y-99866000D01*
X211387871Y-100248581D01*
X211286244Y-100290676D01*
X211094676Y-100482244D01*
X210991000Y-100732541D01*
X210991000Y-100798053D01*
X210620053Y-101169000D01*
X210140000Y-101169000D01*
X210041390Y-101181982D01*
X209791390Y-101248969D01*
X209620592Y-101347579D01*
X209437579Y-101530592D01*
X209338969Y-101701390D01*
X209271982Y-101951390D01*
X209259000Y-102050000D01*
X209259000Y-134070000D01*
X209271982Y-134168610D01*
X209338969Y-134418610D01*
X209437579Y-134589408D01*
X209620592Y-134772421D01*
X209791390Y-134871031D01*
X210041390Y-134938018D01*
X210140000Y-134951000D01*
X214220000Y-134951000D01*
X214318610Y-134938018D01*
X214568610Y-134871031D01*
X214739408Y-134772421D01*
X214922421Y-134589408D01*
X215021031Y-134418610D01*
X215088018Y-134168610D01*
X215101000Y-134070000D01*
X215101000Y-133840069D01*
X225281536Y-133840069D01*
X225485819Y-134113434D01*
X226275140Y-134422751D01*
X227122748Y-134406462D01*
X227830181Y-134113434D01*
X228034464Y-133840069D01*
X226658000Y-132463605D01*
X225281536Y-133840069D01*
X215101000Y-133840069D01*
X215101000Y-131901140D01*
X224519249Y-131901140D01*
X224535538Y-132748748D01*
X224828566Y-133456181D01*
X225101931Y-133660464D01*
X226478395Y-132284000D01*
X226837605Y-132284000D01*
X228214069Y-133660464D01*
X228487434Y-133456181D01*
X228796751Y-132666860D01*
X228780462Y-131819252D01*
X228487434Y-131111819D01*
X228214069Y-130907536D01*
X226837605Y-132284000D01*
X226478395Y-132284000D01*
X225101931Y-130907536D01*
X224828566Y-131111819D01*
X224519249Y-131901140D01*
X215101000Y-131901140D01*
X215101000Y-130727931D01*
X225281536Y-130727931D01*
X226658000Y-132104395D01*
X228034464Y-130727931D01*
X227830181Y-130454566D01*
X227040860Y-130145249D01*
X226193252Y-130161538D01*
X225485819Y-130454566D01*
X225281536Y-130727931D01*
X215101000Y-130727931D01*
X215101000Y-124874842D01*
X215172482Y-124946324D01*
X215422779Y-125050000D01*
X215693697Y-125050000D01*
X215943994Y-124946324D01*
X216135562Y-124754756D01*
X216239238Y-124504459D01*
X216239238Y-124233541D01*
X216135562Y-123983244D01*
X216089238Y-123936920D01*
X216089238Y-117857947D01*
X216540186Y-117407000D01*
X218984173Y-117407000D01*
X218963238Y-117457541D01*
X218963238Y-117728459D01*
X219066914Y-117978756D01*
X219258482Y-118170324D01*
X219508779Y-118274000D01*
X219779697Y-118274000D01*
X220029994Y-118170324D01*
X220076318Y-118124000D01*
X221011948Y-118124000D01*
X221064238Y-118134401D01*
X221116528Y-118124000D01*
X221116532Y-118124000D01*
X221271424Y-118093190D01*
X221447067Y-117975829D01*
X221476690Y-117931495D01*
X221905000Y-117503186D01*
X221905000Y-120578583D01*
X221894599Y-120630873D01*
X221905000Y-120683163D01*
X221905000Y-120683166D01*
X221935810Y-120838058D01*
X222053171Y-121013702D01*
X222097505Y-121043325D01*
X223770677Y-122716498D01*
X223800298Y-122760829D01*
X223975941Y-122878190D01*
X224130833Y-122909000D01*
X224183127Y-122919402D01*
X224235421Y-122909000D01*
X224571370Y-122909000D01*
X224851425Y-123585115D01*
X225450885Y-124184575D01*
X226234118Y-124509000D01*
X227081882Y-124509000D01*
X227865115Y-124184575D01*
X228464575Y-123585115D01*
X228789000Y-122801882D01*
X228789000Y-121954118D01*
X228464575Y-121170885D01*
X227865115Y-120571425D01*
X227081882Y-120247000D01*
X226234118Y-120247000D01*
X225450885Y-120571425D01*
X224851425Y-121170885D01*
X224571370Y-121847000D01*
X224403075Y-121847000D01*
X222967000Y-120410926D01*
X222967000Y-114713947D01*
X223349548Y-115096495D01*
X223379171Y-115140829D01*
X223554814Y-115258190D01*
X223709706Y-115289000D01*
X223762000Y-115299402D01*
X223814294Y-115289000D01*
X224571370Y-115289000D01*
X224851425Y-115965115D01*
X225450885Y-116564575D01*
X226234118Y-116889000D01*
X227081882Y-116889000D01*
X227865115Y-116564575D01*
X228464575Y-115965115D01*
X228789000Y-115181882D01*
X228789000Y-114334118D01*
X228464575Y-113550885D01*
X227865115Y-112951425D01*
X227081882Y-112627000D01*
X226234118Y-112627000D01*
X225450885Y-112951425D01*
X224851425Y-113550885D01*
X224571370Y-114227000D01*
X223981947Y-114227000D01*
X223602000Y-113847053D01*
X223602000Y-107307820D01*
X223770675Y-107476495D01*
X223800298Y-107520829D01*
X223975941Y-107638190D01*
X224130833Y-107669000D01*
X224130836Y-107669000D01*
X224183126Y-107679401D01*
X224235416Y-107669000D01*
X224571370Y-107669000D01*
X224851425Y-108345115D01*
X225450885Y-108944575D01*
X226234118Y-109269000D01*
X227081882Y-109269000D01*
X227865115Y-108944575D01*
X228464575Y-108345115D01*
X228789000Y-107561882D01*
X228789000Y-106714118D01*
X228464575Y-105930885D01*
X227865115Y-105331425D01*
X227081882Y-105007000D01*
X226234118Y-105007000D01*
X225450885Y-105331425D01*
X224851425Y-105930885D01*
X224571370Y-106607000D01*
X224403074Y-106607000D01*
X224364000Y-106567926D01*
X224364000Y-99641289D01*
X224374401Y-99588999D01*
X224364000Y-99536707D01*
X224364000Y-99536706D01*
X224333190Y-99381814D01*
X224215829Y-99206171D01*
X224171495Y-99176548D01*
X222721452Y-97726505D01*
X222691829Y-97682171D01*
X222516186Y-97564810D01*
X222361294Y-97534000D01*
X222361290Y-97534000D01*
X222309000Y-97523599D01*
X222256710Y-97534000D01*
X215416948Y-97534000D01*
X214585000Y-96702053D01*
X214585000Y-88972080D01*
X214631324Y-88925756D01*
X214735000Y-88675459D01*
X214735000Y-88404541D01*
X214631324Y-88154244D01*
X214439756Y-87962676D01*
X214189459Y-87859000D01*
X213918541Y-87859000D01*
X213668244Y-87962676D01*
X213476676Y-88154244D01*
X213373000Y-88404541D01*
X213373000Y-88675459D01*
X213476676Y-88925756D01*
X213523000Y-88972080D01*
X213523001Y-96518031D01*
X211391600Y-97938965D01*
X211346530Y-97930000D01*
X211346526Y-97930000D01*
X211294236Y-97919599D01*
X211241946Y-97930000D01*
X206485080Y-97930000D01*
X206438756Y-97883676D01*
X206188459Y-97780000D01*
X205917541Y-97780000D01*
X205667244Y-97883676D01*
X205475676Y-98075244D01*
X205372000Y-98325541D01*
X205372000Y-98596459D01*
X205457966Y-98804000D01*
X205215080Y-98804000D01*
X205168756Y-98757676D01*
X204918459Y-98654000D01*
X204647541Y-98654000D01*
X204397244Y-98757676D01*
X204205676Y-98949244D01*
X204102000Y-99199541D01*
X199319668Y-99199541D01*
X199337000Y-99157698D01*
X199337000Y-98608302D01*
X199126755Y-98100727D01*
X198738273Y-97712245D01*
X198498675Y-97613000D01*
X198738273Y-97513755D01*
X199126755Y-97125273D01*
X199337000Y-96617698D01*
X199337000Y-96068302D01*
X199126755Y-95560727D01*
X198738273Y-95172245D01*
X198498675Y-95073000D01*
X198738273Y-94973755D01*
X199126755Y-94585273D01*
X199337000Y-94077698D01*
X199337000Y-93528302D01*
X199126755Y-93020727D01*
X198738273Y-92632245D01*
X198498675Y-92533000D01*
X198738273Y-92433755D01*
X199126755Y-92045273D01*
X199337000Y-91537698D01*
X199337000Y-90988302D01*
X199126755Y-90480727D01*
X198738273Y-90092245D01*
X198514638Y-89999612D01*
X198677515Y-89932146D01*
X198790137Y-89736742D01*
X197956000Y-88902605D01*
X197121863Y-89736742D01*
X197234485Y-89932146D01*
X197409765Y-89994475D01*
X197173727Y-90092245D01*
X196785245Y-90480727D01*
X196575000Y-90988302D01*
X179017000Y-90988302D01*
X178806755Y-90480727D01*
X178418273Y-90092245D01*
X178178675Y-89993000D01*
X178418273Y-89893755D01*
X178806755Y-89505273D01*
X179017000Y-88997698D01*
X179017000Y-88519126D01*
X196562783Y-88519126D01*
X196590816Y-89067806D01*
X196746854Y-89444515D01*
X196942258Y-89557137D01*
X197776395Y-88723000D01*
X198135605Y-88723000D01*
X198969742Y-89557137D01*
X199165146Y-89444515D01*
X199349217Y-88926874D01*
X199321184Y-88378194D01*
X199165146Y-88001485D01*
X198969742Y-87888863D01*
X198135605Y-88723000D01*
X197776395Y-88723000D01*
X196942258Y-87888863D01*
X196746854Y-88001485D01*
X196562783Y-88519126D01*
X179017000Y-88519126D01*
X179017000Y-88448302D01*
X178806755Y-87940727D01*
X178418273Y-87552245D01*
X178178675Y-87453000D01*
X178418273Y-87353755D01*
X178806755Y-86965273D01*
X179017000Y-86457698D01*
X179017000Y-85908302D01*
X178806755Y-85400727D01*
X178418273Y-85012245D01*
X178351390Y-84984541D01*
X182289000Y-84984541D01*
X182289000Y-85255459D01*
X182392676Y-85505756D01*
X182584244Y-85697324D01*
X182834541Y-85801000D01*
X182900053Y-85801000D01*
X183620550Y-86521498D01*
X183650171Y-86565829D01*
X183825814Y-86683190D01*
X183980706Y-86714000D01*
X183980709Y-86714000D01*
X184032999Y-86724401D01*
X184085289Y-86714000D01*
X196681164Y-86714000D01*
X196785245Y-86965273D01*
X197173727Y-87353755D01*
X197397362Y-87446388D01*
X197234485Y-87513854D01*
X197121863Y-87709258D01*
X197956000Y-88543395D01*
X198790137Y-87709258D01*
X198677515Y-87513854D01*
X198502235Y-87451525D01*
X198738273Y-87353755D01*
X199126755Y-86965273D01*
X199337000Y-86457698D01*
X199337000Y-85908302D01*
X199126755Y-85400727D01*
X198738273Y-85012245D01*
X198230698Y-84802000D01*
X197681302Y-84802000D01*
X197173727Y-85012245D01*
X196785245Y-85400727D01*
X196681164Y-85652000D01*
X184252948Y-85652000D01*
X183651000Y-85050053D01*
X183651000Y-84984541D01*
X183547324Y-84734244D01*
X183355756Y-84542676D01*
X183105459Y-84439000D01*
X182834541Y-84439000D01*
X182584244Y-84542676D01*
X182392676Y-84734244D01*
X182289000Y-84984541D01*
X178351390Y-84984541D01*
X177910698Y-84802000D01*
X177361302Y-84802000D01*
X176853727Y-85012245D01*
X176465245Y-85400727D01*
X176255000Y-85908302D01*
X157956000Y-85908302D01*
X157956000Y-85173057D01*
X157981000Y-85047373D01*
X157981000Y-81105955D01*
X159519000Y-81105955D01*
X159519000Y-81894045D01*
X159820589Y-82622146D01*
X160377854Y-83179411D01*
X161105955Y-83481000D01*
X161894045Y-83481000D01*
X162622146Y-83179411D01*
X163179411Y-82622146D01*
X163481000Y-81894045D01*
X163481000Y-81105955D01*
X226519000Y-81105955D01*
X226519000Y-81894045D01*
X226820589Y-82622146D01*
X227377854Y-83179411D01*
X228105955Y-83481000D01*
X228894045Y-83481000D01*
X229622146Y-83179411D01*
X230179411Y-82622146D01*
X230481000Y-81894045D01*
X230481000Y-81105955D01*
X230179411Y-80377854D01*
X229622146Y-79820589D01*
X228894045Y-79519000D01*
X228105955Y-79519000D01*
X227377854Y-79820589D01*
X226820589Y-80377854D01*
X226519000Y-81105955D01*
X163481000Y-81105955D01*
X163179411Y-80377854D01*
X162622146Y-79820589D01*
X161894045Y-79519000D01*
X161105955Y-79519000D01*
X160377854Y-79820589D01*
X159820589Y-80377854D01*
X159519000Y-81105955D01*
X157981000Y-81105955D01*
X157981000Y-79952627D01*
X157971587Y-79905304D01*
X158023726Y-79492580D01*
X158212004Y-79017043D01*
X158512631Y-78603265D01*
X158906711Y-78277254D01*
X159369492Y-78059487D01*
X159868576Y-77964281D01*
X159952627Y-77981000D01*
X165047373Y-77981000D01*
X165173057Y-77956000D01*
X229971313Y-77956000D01*
X230507420Y-78023726D01*
X230507420Y-78023726D01*
G37*
X230507420Y-78023726D02*
X230982957Y-78212004D01*
X231396735Y-78512631D01*
X231722746Y-78906711D01*
X231940513Y-79369492D01*
X232035719Y-79868577D01*
X232019000Y-79952628D01*
X232019001Y-85047373D01*
X232044000Y-85173052D01*
X232044001Y-125243026D01*
X232009203Y-125159017D01*
X231676983Y-124826797D01*
X231242915Y-124647000D01*
X230773085Y-124647000D01*
X230339017Y-124826797D01*
X230006797Y-125159017D01*
X229827000Y-125593085D01*
X229827000Y-126062915D01*
X230006797Y-126496983D01*
X230339017Y-126829203D01*
X230773085Y-127009000D01*
X231242915Y-127009000D01*
X231676983Y-126829203D01*
X232009203Y-126496983D01*
X232044001Y-126412974D01*
X232044001Y-142769026D01*
X232009203Y-142685017D01*
X231676983Y-142352797D01*
X231242915Y-142173000D01*
X230773085Y-142173000D01*
X230339017Y-142352797D01*
X230006797Y-142685017D01*
X229827000Y-143119085D01*
X229827000Y-143588915D01*
X230006797Y-144022983D01*
X230339017Y-144355203D01*
X230773085Y-144535000D01*
X231242915Y-144535000D01*
X231676983Y-144355203D01*
X232009203Y-144022983D01*
X232044001Y-143938973D01*
X232044001Y-149971306D01*
X231976274Y-150507420D01*
X231787995Y-150982958D01*
X231487371Y-151396733D01*
X231093288Y-151722747D01*
X230630512Y-151940512D01*
X230106782Y-152040419D01*
X229992837Y-152044000D01*
X165173057Y-152044000D01*
X165047373Y-152019000D01*
X159952627Y-152019000D01*
X159905303Y-152028413D01*
X159492580Y-151976274D01*
X159017042Y-151787995D01*
X158603267Y-151487371D01*
X158277253Y-151093288D01*
X158059488Y-150630512D01*
X157959581Y-150106782D01*
X157956000Y-149992837D01*
X157956000Y-148105955D01*
X159519000Y-148105955D01*
X159519000Y-148894045D01*
X159820589Y-149622146D01*
X160377854Y-150179411D01*
X161105955Y-150481000D01*
X161894045Y-150481000D01*
X162622146Y-150179411D01*
X163179411Y-149622146D01*
X163267987Y-149408302D01*
X176255000Y-149408302D01*
X176255000Y-149957698D01*
X176465245Y-150465273D01*
X176853727Y-150853755D01*
X177361302Y-151064000D01*
X177910698Y-151064000D01*
X178418273Y-150853755D01*
X178575286Y-150696742D01*
X197121863Y-150696742D01*
X197234485Y-150892146D01*
X197752126Y-151076217D01*
X198300806Y-151048184D01*
X198677515Y-150892146D01*
X198790137Y-150696742D01*
X197956000Y-149862605D01*
X197121863Y-150696742D01*
X178575286Y-150696742D01*
X178806755Y-150465273D01*
X179017000Y-149957698D01*
X179017000Y-149479126D01*
X196562783Y-149479126D01*
X196590816Y-150027806D01*
X196746854Y-150404515D01*
X196942258Y-150517137D01*
X197776395Y-149683000D01*
X198135605Y-149683000D01*
X198969742Y-150517137D01*
X199165146Y-150404515D01*
X199349217Y-149886874D01*
X199321184Y-149338194D01*
X199165146Y-148961485D01*
X198969742Y-148848863D01*
X198135605Y-149683000D01*
X197776395Y-149683000D01*
X196942258Y-148848863D01*
X196746854Y-148961485D01*
X196562783Y-149479126D01*
X179017000Y-149479126D01*
X179017000Y-149408302D01*
X178806755Y-148900727D01*
X178418273Y-148512245D01*
X178194638Y-148419612D01*
X178357515Y-148352146D01*
X178470137Y-148156742D01*
X177636000Y-147322605D01*
X176801863Y-148156742D01*
X176914485Y-148352146D01*
X177089765Y-148414475D01*
X176853727Y-148512245D01*
X176465245Y-148900727D01*
X176255000Y-149408302D01*
X163267987Y-149408302D01*
X163481000Y-148894045D01*
X163481000Y-148105955D01*
X163179411Y-147377854D01*
X162740683Y-146939126D01*
X176242783Y-146939126D01*
X176270816Y-147487806D01*
X176426854Y-147864515D01*
X176622258Y-147977137D01*
X177456395Y-147143000D01*
X177815605Y-147143000D01*
X178649742Y-147977137D01*
X178845146Y-147864515D01*
X179029217Y-147346874D01*
X179001184Y-146798194D01*
X178845146Y-146421485D01*
X178649742Y-146308863D01*
X177815605Y-147143000D01*
X177456395Y-147143000D01*
X176622258Y-146308863D01*
X176426854Y-146421485D01*
X176242783Y-146939126D01*
X162740683Y-146939126D01*
X162622146Y-146820589D01*
X161894045Y-146519000D01*
X161105955Y-146519000D01*
X160377854Y-146820589D01*
X159820589Y-147377854D01*
X159519000Y-148105955D01*
X157956000Y-148105955D01*
X157956000Y-144455302D01*
X168889000Y-144455302D01*
X168889000Y-145004698D01*
X169099245Y-145512273D01*
X169487727Y-145900755D01*
X169995302Y-146111000D01*
X170544698Y-146111000D01*
X171052273Y-145900755D01*
X171440755Y-145512273D01*
X171651000Y-145004698D01*
X171651000Y-144455302D01*
X171440755Y-143947727D01*
X171052273Y-143559245D01*
X170876922Y-143486612D01*
X170991515Y-143439146D01*
X171104137Y-143243742D01*
X170270000Y-142409605D01*
X169435863Y-143243742D01*
X169548485Y-143439146D01*
X169671804Y-143482998D01*
X169487727Y-143559245D01*
X169099245Y-143947727D01*
X168889000Y-144455302D01*
X157956000Y-144455302D01*
X157956000Y-142026126D01*
X168876783Y-142026126D01*
X168904816Y-142574806D01*
X169060854Y-142951515D01*
X169256258Y-143064137D01*
X170090395Y-142230000D01*
X170449605Y-142230000D01*
X171283742Y-143064137D01*
X171479146Y-142951515D01*
X171663217Y-142433874D01*
X171635184Y-141885194D01*
X171479146Y-141508485D01*
X171283742Y-141395863D01*
X170449605Y-142230000D01*
X170090395Y-142230000D01*
X169256258Y-141395863D01*
X169060854Y-141508485D01*
X168876783Y-142026126D01*
X157956000Y-142026126D01*
X157956000Y-134455302D01*
X168889000Y-134455302D01*
X168889000Y-135004698D01*
X169099245Y-135512273D01*
X169487727Y-135900755D01*
X169679041Y-135980000D01*
X169487727Y-136059245D01*
X169099245Y-136447727D01*
X168889000Y-136955302D01*
X168889000Y-137504698D01*
X169099245Y-138012273D01*
X169487727Y-138400755D01*
X169679041Y-138480000D01*
X169487727Y-138559245D01*
X169099245Y-138947727D01*
X168889000Y-139455302D01*
X168889000Y-140004698D01*
X169099245Y-140512273D01*
X169487727Y-140900755D01*
X169663078Y-140973388D01*
X169548485Y-141020854D01*
X169435863Y-141216258D01*
X170270000Y-142050395D01*
X171104137Y-141216258D01*
X170991515Y-141020854D01*
X170868196Y-140977002D01*
X171052273Y-140900755D01*
X171440755Y-140512273D01*
X171651000Y-140004698D01*
X171651000Y-139455302D01*
X171440755Y-138947727D01*
X171052273Y-138559245D01*
X170860959Y-138480000D01*
X171052273Y-138400755D01*
X171440755Y-138012273D01*
X171651000Y-137504698D01*
X171651000Y-136955302D01*
X171440755Y-136447727D01*
X171052273Y-136059245D01*
X170860959Y-135980000D01*
X171052273Y-135900755D01*
X171440755Y-135512273D01*
X171651000Y-135004698D01*
X171651000Y-134455302D01*
X171440755Y-133947727D01*
X171052273Y-133559245D01*
X170544698Y-133349000D01*
X169995302Y-133349000D01*
X169487727Y-133559245D01*
X169099245Y-133947727D01*
X168889000Y-134455302D01*
X157956000Y-134455302D01*
X157956000Y-124566390D01*
X163429000Y-124566390D01*
X163429000Y-125513610D01*
X163791485Y-126388728D01*
X164461272Y-127058515D01*
X165336390Y-127421000D01*
X166283610Y-127421000D01*
X167158728Y-127058515D01*
X167828515Y-126388728D01*
X168191000Y-125513610D01*
X168191000Y-124566390D01*
X167990061Y-124081277D01*
X172048328Y-124081277D01*
X172148679Y-124266296D01*
X172630034Y-124433638D01*
X173138787Y-124404036D01*
X173471321Y-124266296D01*
X173571672Y-124081277D01*
X172810000Y-123319605D01*
X172048328Y-124081277D01*
X167990061Y-124081277D01*
X167828515Y-123691272D01*
X167158728Y-123021485D01*
X167010372Y-122960034D01*
X171516362Y-122960034D01*
X171545964Y-123468787D01*
X171683704Y-123801321D01*
X171868723Y-123901672D01*
X172630395Y-123140000D01*
X172989605Y-123140000D01*
X173751277Y-123901672D01*
X173936296Y-123801321D01*
X174103638Y-123319966D01*
X174074036Y-122811213D01*
X173936296Y-122478679D01*
X173751277Y-122378328D01*
X172989605Y-123140000D01*
X172630395Y-123140000D01*
X171868723Y-122378328D01*
X171683704Y-122478679D01*
X171516362Y-122960034D01*
X167010372Y-122960034D01*
X166283610Y-122659000D01*
X165336390Y-122659000D01*
X164461272Y-123021485D01*
X163791485Y-123691272D01*
X163429000Y-124566390D01*
X157956000Y-124566390D01*
X157956000Y-115766390D01*
X163429000Y-115766390D01*
X163429000Y-116713610D01*
X163791485Y-117588728D01*
X164461272Y-118258515D01*
X165336390Y-118621000D01*
X166283610Y-118621000D01*
X167158728Y-118258515D01*
X167532050Y-117885193D01*
X171529000Y-117885193D01*
X171529000Y-118394807D01*
X171724021Y-118865628D01*
X172084372Y-119225979D01*
X172480353Y-119390000D01*
X172084372Y-119554021D01*
X171724021Y-119914372D01*
X171529000Y-120385193D01*
X171529000Y-120894807D01*
X171724021Y-121365628D01*
X172084372Y-121725979D01*
X172463840Y-121883160D01*
X172148679Y-122013704D01*
X172048328Y-122198723D01*
X172810000Y-122960395D01*
X173571672Y-122198723D01*
X173471321Y-122013704D01*
X173128624Y-121894566D01*
X173535628Y-121725979D01*
X173895979Y-121365628D01*
X174091000Y-120894807D01*
X174091000Y-120385193D01*
X173895979Y-119914372D01*
X173535628Y-119554021D01*
X173139647Y-119390000D01*
X173535628Y-119225979D01*
X173895979Y-118865628D01*
X174091000Y-118394807D01*
X174091000Y-117885193D01*
X173895979Y-117414372D01*
X173535628Y-117054021D01*
X173064807Y-116859000D01*
X172555193Y-116859000D01*
X172084372Y-117054021D01*
X171724021Y-117414372D01*
X171529000Y-117885193D01*
X167532050Y-117885193D01*
X167828515Y-117588728D01*
X168191000Y-116713610D01*
X168191000Y-115766390D01*
X167828515Y-114891272D01*
X167158728Y-114221485D01*
X166283610Y-113859000D01*
X165336390Y-113859000D01*
X164461272Y-114221485D01*
X163791485Y-114891272D01*
X163429000Y-115766390D01*
X157956000Y-115766390D01*
X157956000Y-108056390D01*
X163429000Y-108056390D01*
X163429000Y-109003610D01*
X163791485Y-109878728D01*
X164461272Y-110548515D01*
X165336390Y-110911000D01*
X166283610Y-110911000D01*
X167158728Y-110548515D01*
X167828515Y-109878728D01*
X168191000Y-109003610D01*
X168191000Y-108056390D01*
X167990061Y-107571277D01*
X172048328Y-107571277D01*
X172148679Y-107756296D01*
X172630034Y-107923638D01*
X173138787Y-107894036D01*
X173471321Y-107756296D01*
X173571672Y-107571277D01*
X172810000Y-106809605D01*
X172048328Y-107571277D01*
X167990061Y-107571277D01*
X167828515Y-107181272D01*
X167158728Y-106511485D01*
X167010372Y-106450034D01*
X171516362Y-106450034D01*
X171545964Y-106958787D01*
X171683704Y-107291321D01*
X171868723Y-107391672D01*
X172630395Y-106630000D01*
X172989605Y-106630000D01*
X173751277Y-107391672D01*
X173936296Y-107291321D01*
X174103638Y-106809966D01*
X174074036Y-106301213D01*
X173936296Y-105968679D01*
X173751277Y-105868328D01*
X172989605Y-106630000D01*
X172630395Y-106630000D01*
X171868723Y-105868328D01*
X171683704Y-105968679D01*
X171516362Y-106450034D01*
X167010372Y-106450034D01*
X166283610Y-106149000D01*
X165336390Y-106149000D01*
X164461272Y-106511485D01*
X163791485Y-107181272D01*
X163429000Y-108056390D01*
X157956000Y-108056390D01*
X157956000Y-99256390D01*
X163429000Y-99256390D01*
X163429000Y-100203610D01*
X163791485Y-101078728D01*
X164461272Y-101748515D01*
X165336390Y-102111000D01*
X166283610Y-102111000D01*
X167158728Y-101748515D01*
X167532050Y-101375193D01*
X171529000Y-101375193D01*
X171529000Y-101884807D01*
X171724021Y-102355628D01*
X172084372Y-102715979D01*
X172480353Y-102880000D01*
X172084372Y-103044021D01*
X171724021Y-103404372D01*
X171529000Y-103875193D01*
X171529000Y-104384807D01*
X171724021Y-104855628D01*
X172084372Y-105215979D01*
X172463840Y-105373160D01*
X172148679Y-105503704D01*
X172048328Y-105688723D01*
X172810000Y-106450395D01*
X173571672Y-105688723D01*
X173471321Y-105503704D01*
X173128624Y-105384566D01*
X173535628Y-105215979D01*
X173895979Y-104855628D01*
X174091000Y-104384807D01*
X174091000Y-103875193D01*
X173895979Y-103404372D01*
X173535628Y-103044021D01*
X173139647Y-102880000D01*
X173535628Y-102715979D01*
X173895979Y-102355628D01*
X174091000Y-101884807D01*
X174091000Y-101375193D01*
X173895979Y-100904372D01*
X173535628Y-100544021D01*
X173064807Y-100349000D01*
X172555193Y-100349000D01*
X172084372Y-100544021D01*
X171724021Y-100904372D01*
X171529000Y-101375193D01*
X167532050Y-101375193D01*
X167828515Y-101078728D01*
X168191000Y-100203610D01*
X168191000Y-99256390D01*
X167828515Y-98381272D01*
X167158728Y-97711485D01*
X166283610Y-97349000D01*
X165336390Y-97349000D01*
X164461272Y-97711485D01*
X163791485Y-98381272D01*
X163429000Y-99256390D01*
X157956000Y-99256390D01*
X157956000Y-85908302D01*
X176255000Y-85908302D01*
X176255000Y-86457698D01*
X176465245Y-86965273D01*
X176853727Y-87353755D01*
X177093325Y-87453000D01*
X176853727Y-87552245D01*
X176465245Y-87940727D01*
X176255000Y-88448302D01*
X176255000Y-88997698D01*
X176465245Y-89505273D01*
X176853727Y-89893755D01*
X177093325Y-89993000D01*
X176853727Y-90092245D01*
X176465245Y-90480727D01*
X176255000Y-90988302D01*
X176255000Y-91537698D01*
X176465245Y-92045273D01*
X176853727Y-92433755D01*
X177093325Y-92533000D01*
X176853727Y-92632245D01*
X176465245Y-93020727D01*
X176255000Y-93528302D01*
X176255000Y-94077698D01*
X176465245Y-94585273D01*
X176853727Y-94973755D01*
X177093325Y-95073000D01*
X176853727Y-95172245D01*
X176465245Y-95560727D01*
X176255000Y-96068302D01*
X176255000Y-96617698D01*
X176465245Y-97125273D01*
X176853727Y-97513755D01*
X177093325Y-97613000D01*
X176853727Y-97712245D01*
X176465245Y-98100727D01*
X176255000Y-98608302D01*
X176255000Y-99157698D01*
X176465245Y-99665273D01*
X176853727Y-100053755D01*
X177093325Y-100153000D01*
X176853727Y-100252245D01*
X176465245Y-100640727D01*
X176255000Y-101148302D01*
X176255000Y-101697698D01*
X176465245Y-102205273D01*
X176853727Y-102593755D01*
X177093325Y-102693000D01*
X176853727Y-102792245D01*
X176465245Y-103180727D01*
X176255000Y-103688302D01*
X176255000Y-104237698D01*
X176465245Y-104745273D01*
X176853727Y-105133755D01*
X177093325Y-105233000D01*
X176853727Y-105332245D01*
X176465245Y-105720727D01*
X176255000Y-106228302D01*
X176255000Y-106777698D01*
X176465245Y-107285273D01*
X176853727Y-107673755D01*
X177093325Y-107773000D01*
X176853727Y-107872245D01*
X176465245Y-108260727D01*
X176255000Y-108768302D01*
X176255000Y-109317698D01*
X176465245Y-109825273D01*
X176853727Y-110213755D01*
X177093325Y-110313000D01*
X176853727Y-110412245D01*
X176465245Y-110800727D01*
X176255000Y-111308302D01*
X176255000Y-111857698D01*
X176465245Y-112365273D01*
X176853727Y-112753755D01*
X177093325Y-112853000D01*
X176853727Y-112952245D01*
X176465245Y-113340727D01*
X176255000Y-113848302D01*
X176255000Y-114397698D01*
X176465245Y-114905273D01*
X176853727Y-115293755D01*
X177093325Y-115393000D01*
X176853727Y-115492245D01*
X176465245Y-115880727D01*
X176255000Y-116388302D01*
X176255000Y-116937698D01*
X176465245Y-117445273D01*
X176853727Y-117833755D01*
X177093325Y-117933000D01*
X176853727Y-118032245D01*
X176465245Y-118420727D01*
X176255000Y-118928302D01*
X176255000Y-119477698D01*
X176465245Y-119985273D01*
X176853727Y-120373755D01*
X177093325Y-120473000D01*
X176853727Y-120572245D01*
X176465245Y-120960727D01*
X176255000Y-121468302D01*
X176255000Y-122017698D01*
X176465245Y-122525273D01*
X176853727Y-122913755D01*
X177093325Y-123013000D01*
X176853727Y-123112245D01*
X176465245Y-123500727D01*
X176255000Y-124008302D01*
X176255000Y-124557698D01*
X176465245Y-125065273D01*
X176853727Y-125453755D01*
X177093325Y-125553000D01*
X176853727Y-125652245D01*
X176465245Y-126040727D01*
X176255000Y-126548302D01*
X176255000Y-127097698D01*
X176465245Y-127605273D01*
X176853727Y-127993755D01*
X177093325Y-128093000D01*
X176853727Y-128192245D01*
X176465245Y-128580727D01*
X176255000Y-129088302D01*
X176255000Y-129637698D01*
X176465245Y-130145273D01*
X176853727Y-130533755D01*
X177093325Y-130633000D01*
X176853727Y-130732245D01*
X176465245Y-131120727D01*
X176255000Y-131628302D01*
X176255000Y-132177698D01*
X176465245Y-132685273D01*
X176853727Y-133073755D01*
X177093325Y-133173000D01*
X176853727Y-133272245D01*
X176465245Y-133660727D01*
X176255000Y-134168302D01*
X176255000Y-134717698D01*
X176465245Y-135225273D01*
X176853727Y-135613755D01*
X177093325Y-135713000D01*
X176853727Y-135812245D01*
X176465245Y-136200727D01*
X176255000Y-136708302D01*
X176255000Y-137257698D01*
X176465245Y-137765273D01*
X176853727Y-138153755D01*
X177093325Y-138253000D01*
X176853727Y-138352245D01*
X176465245Y-138740727D01*
X176255000Y-139248302D01*
X176255000Y-139797698D01*
X176465245Y-140305273D01*
X176853727Y-140693755D01*
X177093325Y-140793000D01*
X176853727Y-140892245D01*
X176465245Y-141280727D01*
X176255000Y-141788302D01*
X176255000Y-142337698D01*
X176465245Y-142845273D01*
X176853727Y-143233755D01*
X177093325Y-143333000D01*
X176853727Y-143432245D01*
X176465245Y-143820727D01*
X176255000Y-144328302D01*
X176255000Y-144877698D01*
X176465245Y-145385273D01*
X176853727Y-145773755D01*
X177077362Y-145866388D01*
X176914485Y-145933854D01*
X176801863Y-146129258D01*
X177636000Y-146963395D01*
X178470137Y-146129258D01*
X178357515Y-145933854D01*
X178182235Y-145871525D01*
X178418273Y-145773755D01*
X178806755Y-145385273D01*
X179017000Y-144877698D01*
X179017000Y-144328302D01*
X178806755Y-143820727D01*
X178418273Y-143432245D01*
X178178675Y-143333000D01*
X178418273Y-143233755D01*
X178806755Y-142845273D01*
X179017000Y-142337698D01*
X179017000Y-141788302D01*
X178806755Y-141280727D01*
X178418273Y-140892245D01*
X178178675Y-140793000D01*
X178418273Y-140693755D01*
X178806755Y-140305273D01*
X179017000Y-139797698D01*
X179017000Y-139248302D01*
X178806755Y-138740727D01*
X178418273Y-138352245D01*
X178178675Y-138253000D01*
X178418273Y-138153755D01*
X178806755Y-137765273D01*
X179017000Y-137257698D01*
X179017000Y-136708302D01*
X178806755Y-136200727D01*
X178418273Y-135812245D01*
X178178675Y-135713000D01*
X178418273Y-135613755D01*
X178806755Y-135225273D01*
X179017000Y-134717698D01*
X179017000Y-134168302D01*
X178806755Y-133660727D01*
X178418273Y-133272245D01*
X178178675Y-133173000D01*
X178418273Y-133073755D01*
X178806755Y-132685273D01*
X179017000Y-132177698D01*
X179017000Y-131628302D01*
X178806755Y-131120727D01*
X178418273Y-130732245D01*
X178178675Y-130633000D01*
X178418273Y-130533755D01*
X178806755Y-130145273D01*
X179017000Y-129637698D01*
X179017000Y-129088302D01*
X178806755Y-128580727D01*
X178418273Y-128192245D01*
X178178675Y-128093000D01*
X178418273Y-127993755D01*
X178806755Y-127605273D01*
X179017000Y-127097698D01*
X179017000Y-126548302D01*
X178806755Y-126040727D01*
X178418273Y-125652245D01*
X178178675Y-125553000D01*
X178418273Y-125453755D01*
X178806755Y-125065273D01*
X179017000Y-124557698D01*
X179017000Y-124008302D01*
X178806755Y-123500727D01*
X178418273Y-123112245D01*
X178178675Y-123013000D01*
X178418273Y-122913755D01*
X178806755Y-122525273D01*
X179017000Y-122017698D01*
X179017000Y-121468302D01*
X178806755Y-120960727D01*
X178418273Y-120572245D01*
X178178675Y-120473000D01*
X178418273Y-120373755D01*
X178806755Y-119985273D01*
X179017000Y-119477698D01*
X179017000Y-118928302D01*
X178806755Y-118420727D01*
X178418273Y-118032245D01*
X178178675Y-117933000D01*
X178418273Y-117833755D01*
X178806755Y-117445273D01*
X179017000Y-116937698D01*
X179017000Y-116388302D01*
X178806755Y-115880727D01*
X178418273Y-115492245D01*
X178178675Y-115393000D01*
X178418273Y-115293755D01*
X178806755Y-114905273D01*
X179017000Y-114397698D01*
X179017000Y-113848302D01*
X178806755Y-113340727D01*
X178418273Y-112952245D01*
X178178675Y-112853000D01*
X178418273Y-112753755D01*
X178806755Y-112365273D01*
X179017000Y-111857698D01*
X179017000Y-111308302D01*
X178806755Y-110800727D01*
X178418273Y-110412245D01*
X178178675Y-110313000D01*
X178418273Y-110213755D01*
X178806755Y-109825273D01*
X179017000Y-109317698D01*
X179017000Y-108768302D01*
X178806755Y-108260727D01*
X178418273Y-107872245D01*
X178178675Y-107773000D01*
X178418273Y-107673755D01*
X178806755Y-107285273D01*
X179017000Y-106777698D01*
X179017000Y-106228302D01*
X178806755Y-105720727D01*
X178418273Y-105332245D01*
X178178675Y-105233000D01*
X178418273Y-105133755D01*
X178806755Y-104745273D01*
X179017000Y-104237698D01*
X179017000Y-103688302D01*
X178806755Y-103180727D01*
X178418273Y-102792245D01*
X178178675Y-102693000D01*
X178418273Y-102593755D01*
X178806755Y-102205273D01*
X179017000Y-101697698D01*
X179017000Y-101148302D01*
X178806755Y-100640727D01*
X178418273Y-100252245D01*
X178178675Y-100153000D01*
X178418273Y-100053755D01*
X178806755Y-99665273D01*
X179017000Y-99157698D01*
X179017000Y-98608302D01*
X178806755Y-98100727D01*
X178418273Y-97712245D01*
X178178675Y-97613000D01*
X178418273Y-97513755D01*
X178806755Y-97125273D01*
X179017000Y-96617698D01*
X179017000Y-96068302D01*
X178806755Y-95560727D01*
X178418273Y-95172245D01*
X178178675Y-95073000D01*
X178418273Y-94973755D01*
X178806755Y-94585273D01*
X179017000Y-94077698D01*
X179017000Y-93528302D01*
X178806755Y-93020727D01*
X178418273Y-92632245D01*
X178178675Y-92533000D01*
X178418273Y-92433755D01*
X178806755Y-92045273D01*
X179017000Y-91537698D01*
X179017000Y-90988302D01*
X196575000Y-90988302D01*
X196575000Y-91537698D01*
X196785245Y-92045273D01*
X197173727Y-92433755D01*
X197413325Y-92533000D01*
X197173727Y-92632245D01*
X196785245Y-93020727D01*
X196575000Y-93528302D01*
X196575000Y-94077698D01*
X196785245Y-94585273D01*
X197173727Y-94973755D01*
X197413325Y-95073000D01*
X197173727Y-95172245D01*
X196785245Y-95560727D01*
X196575000Y-96068302D01*
X196575000Y-96617698D01*
X196785245Y-97125273D01*
X197173727Y-97513755D01*
X197413325Y-97613000D01*
X197173727Y-97712245D01*
X196785245Y-98100727D01*
X196575000Y-98608302D01*
X196575000Y-99157698D01*
X196785245Y-99665273D01*
X197173727Y-100053755D01*
X197413325Y-100153000D01*
X197173727Y-100252245D01*
X196785245Y-100640727D01*
X196575000Y-101148302D01*
X196575000Y-101697698D01*
X196785245Y-102205273D01*
X197173727Y-102593755D01*
X197413325Y-102693000D01*
X197173727Y-102792245D01*
X196785245Y-103180727D01*
X196575000Y-103688302D01*
X196575000Y-104237698D01*
X196785245Y-104745273D01*
X197173727Y-105133755D01*
X197413325Y-105233000D01*
X197173727Y-105332245D01*
X196785245Y-105720727D01*
X196575000Y-106228302D01*
X196575000Y-106777698D01*
X196785245Y-107285273D01*
X197173727Y-107673755D01*
X197413325Y-107773000D01*
X197173727Y-107872245D01*
X196785245Y-108260727D01*
X196575000Y-108768302D01*
X196575000Y-109317698D01*
X196785245Y-109825273D01*
X197173727Y-110213755D01*
X197413325Y-110313000D01*
X197173727Y-110412245D01*
X196785245Y-110800727D01*
X196575000Y-111308302D01*
X196575000Y-111857698D01*
X196785245Y-112365273D01*
X197173727Y-112753755D01*
X197413325Y-112853000D01*
X197173727Y-112952245D01*
X196785245Y-113340727D01*
X196575000Y-113848302D01*
X196575000Y-114397698D01*
X196785245Y-114905273D01*
X197173727Y-115293755D01*
X197413325Y-115393000D01*
X197173727Y-115492245D01*
X196785245Y-115880727D01*
X196575000Y-116388302D01*
X196575000Y-116937698D01*
X196785245Y-117445273D01*
X197173727Y-117833755D01*
X197413325Y-117933000D01*
X197173727Y-118032245D01*
X196785245Y-118420727D01*
X196575000Y-118928302D01*
X196575000Y-119477698D01*
X196785245Y-119985273D01*
X197173727Y-120373755D01*
X197413325Y-120473000D01*
X197173727Y-120572245D01*
X196785245Y-120960727D01*
X196575000Y-121468302D01*
X196575000Y-122017698D01*
X196785245Y-122525273D01*
X197173727Y-122913755D01*
X197413325Y-123013000D01*
X197173727Y-123112245D01*
X196785245Y-123500727D01*
X196575000Y-124008302D01*
X196575000Y-124557698D01*
X196785245Y-125065273D01*
X197173727Y-125453755D01*
X197413325Y-125553000D01*
X197173727Y-125652245D01*
X196785245Y-126040727D01*
X196575000Y-126548302D01*
X196575000Y-127097698D01*
X196785245Y-127605273D01*
X197173727Y-127993755D01*
X197413325Y-128093000D01*
X197173727Y-128192245D01*
X196785245Y-128580727D01*
X196575000Y-129088302D01*
X196575000Y-129637698D01*
X196785245Y-130145273D01*
X197173727Y-130533755D01*
X197413325Y-130633000D01*
X197173727Y-130732245D01*
X196785245Y-131120727D01*
X196575000Y-131628302D01*
X196575000Y-132177698D01*
X196785245Y-132685273D01*
X197173727Y-133073755D01*
X197413325Y-133173000D01*
X197173727Y-133272245D01*
X196785245Y-133660727D01*
X196575000Y-134168302D01*
X196575000Y-134717698D01*
X196785245Y-135225273D01*
X197173727Y-135613755D01*
X197413325Y-135713000D01*
X197173727Y-135812245D01*
X196785245Y-136200727D01*
X196575000Y-136708302D01*
X196575000Y-137257698D01*
X196785245Y-137765273D01*
X197173727Y-138153755D01*
X197413325Y-138253000D01*
X197173727Y-138352245D01*
X196785245Y-138740727D01*
X196575000Y-139248302D01*
X196575000Y-139797698D01*
X196785245Y-140305273D01*
X197173727Y-140693755D01*
X197413325Y-140793000D01*
X197173727Y-140892245D01*
X196785245Y-141280727D01*
X196575000Y-141788302D01*
X196575000Y-142337698D01*
X196785245Y-142845273D01*
X197173727Y-143233755D01*
X197413325Y-143333000D01*
X197173727Y-143432245D01*
X196785245Y-143820727D01*
X196575000Y-144328302D01*
X196575000Y-144877698D01*
X196785245Y-145385273D01*
X197173727Y-145773755D01*
X197413325Y-145873000D01*
X197173727Y-145972245D01*
X196785245Y-146360727D01*
X196575000Y-146868302D01*
X196575000Y-147417698D01*
X196785245Y-147925273D01*
X197173727Y-148313755D01*
X197397362Y-148406388D01*
X197234485Y-148473854D01*
X197121863Y-148669258D01*
X197956000Y-149503395D01*
X198790137Y-148669258D01*
X198677515Y-148473854D01*
X198502235Y-148411525D01*
X198738273Y-148313755D01*
X198946073Y-148105955D01*
X226519000Y-148105955D01*
X226519000Y-148894045D01*
X226820589Y-149622146D01*
X227377854Y-150179411D01*
X228105955Y-150481000D01*
X228894045Y-150481000D01*
X229622146Y-150179411D01*
X230179411Y-149622146D01*
X230481000Y-148894045D01*
X230481000Y-148105955D01*
X230179411Y-147377854D01*
X229622146Y-146820589D01*
X228894045Y-146519000D01*
X228105955Y-146519000D01*
X227377854Y-146820589D01*
X226820589Y-147377854D01*
X226519000Y-148105955D01*
X198946073Y-148105955D01*
X199126755Y-147925273D01*
X199337000Y-147417698D01*
X199337000Y-146868302D01*
X199126755Y-146360727D01*
X198738273Y-145972245D01*
X198498675Y-145873000D01*
X198738273Y-145773755D01*
X199126755Y-145385273D01*
X199337000Y-144877698D01*
X199337000Y-144328302D01*
X199126755Y-143820727D01*
X198738273Y-143432245D01*
X198498675Y-143333000D01*
X198738273Y-143233755D01*
X199126755Y-142845273D01*
X199337000Y-142337698D01*
X199337000Y-141788302D01*
X199126755Y-141280727D01*
X198738273Y-140892245D01*
X198498675Y-140793000D01*
X198738273Y-140693755D01*
X199126755Y-140305273D01*
X199337000Y-139797698D01*
X199337000Y-139480118D01*
X224527000Y-139480118D01*
X224527000Y-140327882D01*
X224851425Y-141111115D01*
X225450885Y-141710575D01*
X226234118Y-142035000D01*
X227081882Y-142035000D01*
X227865115Y-141710575D01*
X228464575Y-141111115D01*
X228789000Y-140327882D01*
X228789000Y-139480118D01*
X228464575Y-138696885D01*
X227865115Y-138097425D01*
X227081882Y-137773000D01*
X226234118Y-137773000D01*
X225450885Y-138097425D01*
X224851425Y-138696885D01*
X224527000Y-139480118D01*
X199337000Y-139480118D01*
X199337000Y-139248302D01*
X199126755Y-138740727D01*
X198738273Y-138352245D01*
X198498675Y-138253000D01*
X198738273Y-138153755D01*
X199126755Y-137765273D01*
X199337000Y-137257698D01*
X199337000Y-136708302D01*
X199126755Y-136200727D01*
X198738273Y-135812245D01*
X198498675Y-135713000D01*
X198738273Y-135613755D01*
X199126755Y-135225273D01*
X199337000Y-134717698D01*
X199337000Y-134168302D01*
X199126755Y-133660727D01*
X198738273Y-133272245D01*
X198498675Y-133173000D01*
X198738273Y-133073755D01*
X199126755Y-132685273D01*
X199337000Y-132177698D01*
X199337000Y-131628302D01*
X199126755Y-131120727D01*
X198738273Y-130732245D01*
X198498675Y-130633000D01*
X198738273Y-130533755D01*
X199126755Y-130145273D01*
X199337000Y-129637698D01*
X199337000Y-129561541D01*
X201847000Y-129561541D01*
X201847000Y-129832459D01*
X201950676Y-130082756D01*
X201997000Y-130129080D01*
X201997001Y-132439919D01*
X201950676Y-132486244D01*
X201847000Y-132736541D01*
X201847000Y-133007459D01*
X201950676Y-133257756D01*
X202142244Y-133449324D01*
X202392541Y-133553000D01*
X202647002Y-133553000D01*
X202647002Y-134542051D01*
X202458053Y-134731000D01*
X202392541Y-134731000D01*
X202142244Y-134834676D01*
X201950676Y-135026244D01*
X201847000Y-135276541D01*
X201847000Y-135547459D01*
X201950676Y-135797756D01*
X202142244Y-135989324D01*
X202392541Y-136093000D01*
X202663459Y-136093000D01*
X202913756Y-135989324D01*
X203105324Y-135797756D01*
X203209000Y-135547459D01*
X203209000Y-135481947D01*
X203394000Y-135296947D01*
X203394000Y-136335053D01*
X202458053Y-137271000D01*
X202392541Y-137271000D01*
X202142244Y-137374676D01*
X201950676Y-137566244D01*
X201847000Y-137816541D01*
X201847000Y-138087459D01*
X201950676Y-138337756D01*
X202142244Y-138529324D01*
X202392541Y-138633000D01*
X202663459Y-138633000D01*
X202913756Y-138529324D01*
X203105324Y-138337756D01*
X203209000Y-138087459D01*
X203209000Y-138021947D01*
X204263495Y-136967452D01*
X204307829Y-136937829D01*
X204425190Y-136762186D01*
X204456000Y-136607294D01*
X204456000Y-136607291D01*
X204466401Y-136555001D01*
X204456000Y-136502711D01*
X204456000Y-131059947D01*
X204637947Y-130878001D01*
X206397709Y-130878001D01*
X206449999Y-130888402D01*
X206502289Y-130878001D01*
X206502293Y-130878001D01*
X206657185Y-130847191D01*
X206832828Y-130729830D01*
X206862451Y-130685496D01*
X207169947Y-130378000D01*
X207235459Y-130378000D01*
X207485756Y-130274324D01*
X207677324Y-130082756D01*
X207781000Y-129832459D01*
X207781000Y-129561541D01*
X207677324Y-129311244D01*
X207485756Y-129119676D01*
X207235459Y-129016000D01*
X206964541Y-129016000D01*
X206714244Y-129119676D01*
X206522676Y-129311244D01*
X206419000Y-129561541D01*
X206419000Y-129627053D01*
X206230052Y-129816001D01*
X205495000Y-129816001D01*
X205495000Y-129561541D01*
X205391324Y-129311244D01*
X205199756Y-129119676D01*
X204949459Y-129016000D01*
X204678541Y-129016000D01*
X204428244Y-129119676D01*
X204381920Y-129166000D01*
X203542291Y-129166000D01*
X203490001Y-129155599D01*
X203437711Y-129166000D01*
X203437708Y-129166000D01*
X203282816Y-129196810D01*
X203107173Y-129314171D01*
X203106780Y-129314759D01*
X203105324Y-129311244D01*
X202913756Y-129119676D01*
X202663459Y-129016000D01*
X202392541Y-129016000D01*
X202142244Y-129119676D01*
X201950676Y-129311244D01*
X201847000Y-129561541D01*
X199337000Y-129561541D01*
X199337000Y-129088302D01*
X199126755Y-128580727D01*
X198738273Y-128192245D01*
X198498675Y-128093000D01*
X198738273Y-127993755D01*
X199126755Y-127605273D01*
X199337000Y-127097698D01*
X199337000Y-126548302D01*
X199126755Y-126040727D01*
X198738273Y-125652245D01*
X198498675Y-125553000D01*
X198738273Y-125453755D01*
X199126755Y-125065273D01*
X199337000Y-124557698D01*
X199337000Y-124008302D01*
X199126755Y-123500727D01*
X198738273Y-123112245D01*
X198498675Y-123013000D01*
X198738273Y-122913755D01*
X199126755Y-122525273D01*
X199337000Y-122017698D01*
X199337000Y-121468302D01*
X199126755Y-120960727D01*
X198738273Y-120572245D01*
X198498675Y-120473000D01*
X198738273Y-120373755D01*
X199126755Y-119985273D01*
X199337000Y-119477698D01*
X199337000Y-118928302D01*
X199126755Y-118420727D01*
X198738273Y-118032245D01*
X198498675Y-117933000D01*
X198738273Y-117833755D01*
X199126755Y-117445273D01*
X199337000Y-116937698D01*
X199337000Y-116388302D01*
X199126755Y-115880727D01*
X198738273Y-115492245D01*
X198498675Y-115393000D01*
X198738273Y-115293755D01*
X199126755Y-114905273D01*
X199337000Y-114397698D01*
X199337000Y-113848302D01*
X199126755Y-113340727D01*
X198738273Y-112952245D01*
X198498675Y-112853000D01*
X198738273Y-112753755D01*
X199126755Y-112365273D01*
X199337000Y-111857698D01*
X199337000Y-111308302D01*
X199126755Y-110800727D01*
X198738273Y-110412245D01*
X198498675Y-110313000D01*
X198738273Y-110213755D01*
X199126755Y-109825273D01*
X199337000Y-109317698D01*
X199337000Y-108768302D01*
X199126755Y-108260727D01*
X198738273Y-107872245D01*
X198498675Y-107773000D01*
X198738273Y-107673755D01*
X199126755Y-107285273D01*
X199337000Y-106777698D01*
X199337000Y-106228302D01*
X199126755Y-105720727D01*
X198738273Y-105332245D01*
X198498675Y-105233000D01*
X198738273Y-105133755D01*
X199126755Y-104745273D01*
X199337000Y-104237698D01*
X199337000Y-103688302D01*
X199126755Y-103180727D01*
X198738273Y-102792245D01*
X198498675Y-102693000D01*
X198738273Y-102593755D01*
X199126755Y-102205273D01*
X199337000Y-101697698D01*
X199337000Y-101148302D01*
X199126755Y-100640727D01*
X198738273Y-100252245D01*
X198498675Y-100153000D01*
X198738273Y-100053755D01*
X199126755Y-99665273D01*
X199319668Y-99199541D01*
X204102000Y-99199541D01*
X204102000Y-99470459D01*
X204205676Y-99720756D01*
X204397244Y-99912324D01*
X204647541Y-100016000D01*
X204918459Y-100016000D01*
X205168756Y-99912324D01*
X205215080Y-99866000D01*
X211005291Y-99866000D01*
X211387871Y-100248581D01*
X211286244Y-100290676D01*
X211094676Y-100482244D01*
X210991000Y-100732541D01*
X210991000Y-100798053D01*
X210620053Y-101169000D01*
X210140000Y-101169000D01*
X210041390Y-101181982D01*
X209791390Y-101248969D01*
X209620592Y-101347579D01*
X209437579Y-101530592D01*
X209338969Y-101701390D01*
X209271982Y-101951390D01*
X209259000Y-102050000D01*
X209259000Y-134070000D01*
X209271982Y-134168610D01*
X209338969Y-134418610D01*
X209437579Y-134589408D01*
X209620592Y-134772421D01*
X209791390Y-134871031D01*
X210041390Y-134938018D01*
X210140000Y-134951000D01*
X214220000Y-134951000D01*
X214318610Y-134938018D01*
X214568610Y-134871031D01*
X214739408Y-134772421D01*
X214922421Y-134589408D01*
X215021031Y-134418610D01*
X215088018Y-134168610D01*
X215101000Y-134070000D01*
X215101000Y-133840069D01*
X225281536Y-133840069D01*
X225485819Y-134113434D01*
X226275140Y-134422751D01*
X227122748Y-134406462D01*
X227830181Y-134113434D01*
X228034464Y-133840069D01*
X226658000Y-132463605D01*
X225281536Y-133840069D01*
X215101000Y-133840069D01*
X215101000Y-131901140D01*
X224519249Y-131901140D01*
X224535538Y-132748748D01*
X224828566Y-133456181D01*
X225101931Y-133660464D01*
X226478395Y-132284000D01*
X226837605Y-132284000D01*
X228214069Y-133660464D01*
X228487434Y-133456181D01*
X228796751Y-132666860D01*
X228780462Y-131819252D01*
X228487434Y-131111819D01*
X228214069Y-130907536D01*
X226837605Y-132284000D01*
X226478395Y-132284000D01*
X225101931Y-130907536D01*
X224828566Y-131111819D01*
X224519249Y-131901140D01*
X215101000Y-131901140D01*
X215101000Y-130727931D01*
X225281536Y-130727931D01*
X226658000Y-132104395D01*
X228034464Y-130727931D01*
X227830181Y-130454566D01*
X227040860Y-130145249D01*
X226193252Y-130161538D01*
X225485819Y-130454566D01*
X225281536Y-130727931D01*
X215101000Y-130727931D01*
X215101000Y-124874842D01*
X215172482Y-124946324D01*
X215422779Y-125050000D01*
X215693697Y-125050000D01*
X215943994Y-124946324D01*
X216135562Y-124754756D01*
X216239238Y-124504459D01*
X216239238Y-124233541D01*
X216135562Y-123983244D01*
X216089238Y-123936920D01*
X216089238Y-117857947D01*
X216540186Y-117407000D01*
X218984173Y-117407000D01*
X218963238Y-117457541D01*
X218963238Y-117728459D01*
X219066914Y-117978756D01*
X219258482Y-118170324D01*
X219508779Y-118274000D01*
X219779697Y-118274000D01*
X220029994Y-118170324D01*
X220076318Y-118124000D01*
X221011948Y-118124000D01*
X221064238Y-118134401D01*
X221116528Y-118124000D01*
X221116532Y-118124000D01*
X221271424Y-118093190D01*
X221447067Y-117975829D01*
X221476690Y-117931495D01*
X221905000Y-117503186D01*
X221905000Y-120578583D01*
X221894599Y-120630873D01*
X221905000Y-120683163D01*
X221905000Y-120683166D01*
X221935810Y-120838058D01*
X222053171Y-121013702D01*
X222097505Y-121043325D01*
X223770677Y-122716498D01*
X223800298Y-122760829D01*
X223975941Y-122878190D01*
X224130833Y-122909000D01*
X224183127Y-122919402D01*
X224235421Y-122909000D01*
X224571370Y-122909000D01*
X224851425Y-123585115D01*
X225450885Y-124184575D01*
X226234118Y-124509000D01*
X227081882Y-124509000D01*
X227865115Y-124184575D01*
X228464575Y-123585115D01*
X228789000Y-122801882D01*
X228789000Y-121954118D01*
X228464575Y-121170885D01*
X227865115Y-120571425D01*
X227081882Y-120247000D01*
X226234118Y-120247000D01*
X225450885Y-120571425D01*
X224851425Y-121170885D01*
X224571370Y-121847000D01*
X224403075Y-121847000D01*
X222967000Y-120410926D01*
X222967000Y-114713947D01*
X223349548Y-115096495D01*
X223379171Y-115140829D01*
X223554814Y-115258190D01*
X223709706Y-115289000D01*
X223762000Y-115299402D01*
X223814294Y-115289000D01*
X224571370Y-115289000D01*
X224851425Y-115965115D01*
X225450885Y-116564575D01*
X226234118Y-116889000D01*
X227081882Y-116889000D01*
X227865115Y-116564575D01*
X228464575Y-115965115D01*
X228789000Y-115181882D01*
X228789000Y-114334118D01*
X228464575Y-113550885D01*
X227865115Y-112951425D01*
X227081882Y-112627000D01*
X226234118Y-112627000D01*
X225450885Y-112951425D01*
X224851425Y-113550885D01*
X224571370Y-114227000D01*
X223981947Y-114227000D01*
X223602000Y-113847053D01*
X223602000Y-107307820D01*
X223770675Y-107476495D01*
X223800298Y-107520829D01*
X223975941Y-107638190D01*
X224130833Y-107669000D01*
X224130836Y-107669000D01*
X224183126Y-107679401D01*
X224235416Y-107669000D01*
X224571370Y-107669000D01*
X224851425Y-108345115D01*
X225450885Y-108944575D01*
X226234118Y-109269000D01*
X227081882Y-109269000D01*
X227865115Y-108944575D01*
X228464575Y-108345115D01*
X228789000Y-107561882D01*
X228789000Y-106714118D01*
X228464575Y-105930885D01*
X227865115Y-105331425D01*
X227081882Y-105007000D01*
X226234118Y-105007000D01*
X225450885Y-105331425D01*
X224851425Y-105930885D01*
X224571370Y-106607000D01*
X224403074Y-106607000D01*
X224364000Y-106567926D01*
X224364000Y-99641289D01*
X224374401Y-99588999D01*
X224364000Y-99536707D01*
X224364000Y-99536706D01*
X224333190Y-99381814D01*
X224215829Y-99206171D01*
X224171495Y-99176548D01*
X222721452Y-97726505D01*
X222691829Y-97682171D01*
X222516186Y-97564810D01*
X222361294Y-97534000D01*
X222361290Y-97534000D01*
X222309000Y-97523599D01*
X222256710Y-97534000D01*
X215416948Y-97534000D01*
X214585000Y-96702053D01*
X214585000Y-88972080D01*
X214631324Y-88925756D01*
X214735000Y-88675459D01*
X214735000Y-88404541D01*
X214631324Y-88154244D01*
X214439756Y-87962676D01*
X214189459Y-87859000D01*
X213918541Y-87859000D01*
X213668244Y-87962676D01*
X213476676Y-88154244D01*
X213373000Y-88404541D01*
X213373000Y-88675459D01*
X213476676Y-88925756D01*
X213523000Y-88972080D01*
X213523001Y-96518031D01*
X211391600Y-97938965D01*
X211346530Y-97930000D01*
X211346526Y-97930000D01*
X211294236Y-97919599D01*
X211241946Y-97930000D01*
X206485080Y-97930000D01*
X206438756Y-97883676D01*
X206188459Y-97780000D01*
X205917541Y-97780000D01*
X205667244Y-97883676D01*
X205475676Y-98075244D01*
X205372000Y-98325541D01*
X205372000Y-98596459D01*
X205457966Y-98804000D01*
X205215080Y-98804000D01*
X205168756Y-98757676D01*
X204918459Y-98654000D01*
X204647541Y-98654000D01*
X204397244Y-98757676D01*
X204205676Y-98949244D01*
X204102000Y-99199541D01*
X199319668Y-99199541D01*
X199337000Y-99157698D01*
X199337000Y-98608302D01*
X199126755Y-98100727D01*
X198738273Y-97712245D01*
X198498675Y-97613000D01*
X198738273Y-97513755D01*
X199126755Y-97125273D01*
X199337000Y-96617698D01*
X199337000Y-96068302D01*
X199126755Y-95560727D01*
X198738273Y-95172245D01*
X198498675Y-95073000D01*
X198738273Y-94973755D01*
X199126755Y-94585273D01*
X199337000Y-94077698D01*
X199337000Y-93528302D01*
X199126755Y-93020727D01*
X198738273Y-92632245D01*
X198498675Y-92533000D01*
X198738273Y-92433755D01*
X199126755Y-92045273D01*
X199337000Y-91537698D01*
X199337000Y-90988302D01*
X199126755Y-90480727D01*
X198738273Y-90092245D01*
X198514638Y-89999612D01*
X198677515Y-89932146D01*
X198790137Y-89736742D01*
X197956000Y-88902605D01*
X197121863Y-89736742D01*
X197234485Y-89932146D01*
X197409765Y-89994475D01*
X197173727Y-90092245D01*
X196785245Y-90480727D01*
X196575000Y-90988302D01*
X179017000Y-90988302D01*
X178806755Y-90480727D01*
X178418273Y-90092245D01*
X178178675Y-89993000D01*
X178418273Y-89893755D01*
X178806755Y-89505273D01*
X179017000Y-88997698D01*
X179017000Y-88519126D01*
X196562783Y-88519126D01*
X196590816Y-89067806D01*
X196746854Y-89444515D01*
X196942258Y-89557137D01*
X197776395Y-88723000D01*
X198135605Y-88723000D01*
X198969742Y-89557137D01*
X199165146Y-89444515D01*
X199349217Y-88926874D01*
X199321184Y-88378194D01*
X199165146Y-88001485D01*
X198969742Y-87888863D01*
X198135605Y-88723000D01*
X197776395Y-88723000D01*
X196942258Y-87888863D01*
X196746854Y-88001485D01*
X196562783Y-88519126D01*
X179017000Y-88519126D01*
X179017000Y-88448302D01*
X178806755Y-87940727D01*
X178418273Y-87552245D01*
X178178675Y-87453000D01*
X178418273Y-87353755D01*
X178806755Y-86965273D01*
X179017000Y-86457698D01*
X179017000Y-85908302D01*
X178806755Y-85400727D01*
X178418273Y-85012245D01*
X178351390Y-84984541D01*
X182289000Y-84984541D01*
X182289000Y-85255459D01*
X182392676Y-85505756D01*
X182584244Y-85697324D01*
X182834541Y-85801000D01*
X182900053Y-85801000D01*
X183620550Y-86521498D01*
X183650171Y-86565829D01*
X183825814Y-86683190D01*
X183980706Y-86714000D01*
X183980709Y-86714000D01*
X184032999Y-86724401D01*
X184085289Y-86714000D01*
X196681164Y-86714000D01*
X196785245Y-86965273D01*
X197173727Y-87353755D01*
X197397362Y-87446388D01*
X197234485Y-87513854D01*
X197121863Y-87709258D01*
X197956000Y-88543395D01*
X198790137Y-87709258D01*
X198677515Y-87513854D01*
X198502235Y-87451525D01*
X198738273Y-87353755D01*
X199126755Y-86965273D01*
X199337000Y-86457698D01*
X199337000Y-85908302D01*
X199126755Y-85400727D01*
X198738273Y-85012245D01*
X198230698Y-84802000D01*
X197681302Y-84802000D01*
X197173727Y-85012245D01*
X196785245Y-85400727D01*
X196681164Y-85652000D01*
X184252948Y-85652000D01*
X183651000Y-85050053D01*
X183651000Y-84984541D01*
X183547324Y-84734244D01*
X183355756Y-84542676D01*
X183105459Y-84439000D01*
X182834541Y-84439000D01*
X182584244Y-84542676D01*
X182392676Y-84734244D01*
X182289000Y-84984541D01*
X178351390Y-84984541D01*
X177910698Y-84802000D01*
X177361302Y-84802000D01*
X176853727Y-85012245D01*
X176465245Y-85400727D01*
X176255000Y-85908302D01*
X157956000Y-85908302D01*
X157956000Y-85173057D01*
X157981000Y-85047373D01*
X157981000Y-81105955D01*
X159519000Y-81105955D01*
X159519000Y-81894045D01*
X159820589Y-82622146D01*
X160377854Y-83179411D01*
X161105955Y-83481000D01*
X161894045Y-83481000D01*
X162622146Y-83179411D01*
X163179411Y-82622146D01*
X163481000Y-81894045D01*
X163481000Y-81105955D01*
X226519000Y-81105955D01*
X226519000Y-81894045D01*
X226820589Y-82622146D01*
X227377854Y-83179411D01*
X228105955Y-83481000D01*
X228894045Y-83481000D01*
X229622146Y-83179411D01*
X230179411Y-82622146D01*
X230481000Y-81894045D01*
X230481000Y-81105955D01*
X230179411Y-80377854D01*
X229622146Y-79820589D01*
X228894045Y-79519000D01*
X228105955Y-79519000D01*
X227377854Y-79820589D01*
X226820589Y-80377854D01*
X226519000Y-81105955D01*
X163481000Y-81105955D01*
X163179411Y-80377854D01*
X162622146Y-79820589D01*
X161894045Y-79519000D01*
X161105955Y-79519000D01*
X160377854Y-79820589D01*
X159820589Y-80377854D01*
X159519000Y-81105955D01*
X157981000Y-81105955D01*
X157981000Y-79952627D01*
X157971587Y-79905304D01*
X158023726Y-79492580D01*
X158212004Y-79017043D01*
X158512631Y-78603265D01*
X158906711Y-78277254D01*
X159369492Y-78059487D01*
X159868576Y-77964281D01*
X159952627Y-77981000D01*
X165047373Y-77981000D01*
X165173057Y-77956000D01*
X229971313Y-77956000D01*
X230507420Y-78023726D01*
G04 #@! TD*
M02*
