M48
;DRILL file {KiCad (5.0.2)-1} date 2020/05/08 19:47:51
;FORMAT={-:-/ absolute / inch / decimal}
FMAT,2
INCH,TZ
T1C0.0118
T2C0.0394
T3C0.0402
T4C0.0433
T5C0.0669
T6C0.0630
T7C0.0787
T8C0.1260
%
G90
G05
T1
X6.2992Y-3.3465
X6.2992Y-3.5433
X6.2992Y-3.7402
X6.2992Y-3.937
X6.2992Y-4.1339
X6.2992Y-4.3307
X6.2992Y-4.5276
X6.2992Y-4.7244
X6.2992Y-4.9213
X6.2992Y-5.1181
X6.2992Y-5.315
X6.2992Y-5.5118
X6.2992Y-5.7087
X6.4961Y-3.1496
X6.4961Y-5.9055
X6.5435Y-5.6012
X6.5635Y-5.3512
X6.6035Y-4.7912
X6.6035Y-5.1012
X6.6435Y-5.3512
X6.6435Y-5.4912
X6.6435Y-5.6412
X6.6435Y-5.7512
X6.6635Y-4.1812
X6.6635Y-4.4112
X6.6929Y-3.1496
X6.6929Y-5.9055
X6.6935Y-4.8812
X6.6935Y-4.9812
X6.6935Y-5.1312
X6.7235Y-4.6512
X6.7335Y-3.4412
X6.7335Y-3.6212
X6.7335Y-3.8112
X6.7335Y-4.0012
X6.7335Y-4.4512
X6.7435Y-4.1212
X6.7435Y-4.2812
X6.7435Y-4.7612
X6.7635Y-5.5512
X6.7735Y-4.5712
X6.7735Y-5.6512
X6.7835Y-5.2712
X6.7935Y-3.2912
X6.8435Y-3.3812
X6.8435Y-3.6012
X6.8435Y-3.7612
X6.8435Y-3.9412
X6.8535Y-4.0512
X6.8535Y-4.1512
X6.8535Y-4.2812
X6.8535Y-4.4512
X6.8535Y-4.7012
X6.8535Y-4.8112
X6.8635Y-4.8812
X6.8635Y-5.0012
X6.8835Y-5.1612
X6.8898Y-3.1496
X6.8898Y-5.9055
X6.9135Y-5.5812
X6.9135Y-5.7512
X6.9235Y-5.2712
X6.9335Y-4.0512
X6.9335Y-4.5512
X6.9435Y-4.7412
X6.9835Y-3.2512
X7.0535Y-3.5512
X7.0635Y-4.1412
X7.0866Y-3.1496
X7.0866Y-5.9055
X7.1235Y-3.3412
X7.2035Y-3.2812
X7.2035Y-3.3512
X7.2235Y-3.4312
X7.2835Y-3.1496
X7.2835Y-5.9055
X7.3735Y-4.0612
X7.4335Y-3.2912
X7.4335Y-3.4512
X7.4335Y-3.6312
X7.4335Y-3.8212
X7.4803Y-5.9055
X7.5935Y-3.2812
X7.6772Y-5.9055
X7.7235Y-3.4412
X7.8135Y-3.2812
X7.8435Y-5.2412
X7.8435Y-5.3412
X7.8435Y-5.4412
X7.8535Y-4.2512
X7.8635Y-4.413
X7.8635Y-4.443
X7.8635Y-4.473
X7.8635Y-4.613
X7.8635Y-4.643
X7.8635Y-4.673
X7.8635Y-5.5312
X7.8635Y-5.6612
X7.8635Y-5.7412
X7.874Y-5.9055
X7.9035Y-4.413
X7.9035Y-4.443
X7.9035Y-4.473
X7.9035Y-4.613
X7.9035Y-4.643
X7.9035Y-4.673
X7.9335Y-5.1412
X7.9435Y-4.413
X7.9435Y-4.443
X7.9435Y-4.473
X7.9435Y-4.613
X7.9435Y-4.643
X7.9435Y-4.673
X7.9435Y-4.8112
X7.9535Y-4.2812
X7.9635Y-3.6112
X7.9635Y-3.7612
X7.9735Y-4.9812
X7.9735Y-5.1062
X7.9735Y-5.2312
X7.9735Y-5.3312
X7.9735Y-5.4312
X7.9835Y-4.413
X7.9835Y-4.443
X7.9835Y-4.473
X7.9835Y-4.613
X7.9835Y-4.643
X7.9835Y-4.673
X7.9935Y-5.3612
X8.0035Y-3.9412
X8.0035Y-5.7012
X8.0135Y-5.4312
X8.0235Y-4.413
X8.0235Y-4.443
X8.0235Y-4.473
X8.0235Y-4.613
X8.0235Y-4.643
X8.0235Y-4.673
X8.0335Y-4.8212
X8.0435Y-3.2712
X8.0435Y-4.2612
X8.0535Y-3.4912
X8.0535Y-5.4912
X8.0623Y-3.9108
X8.0635Y-4.613
X8.0635Y-4.643
X8.0635Y-4.673
X8.0635Y-4.9912
X8.0635Y-5.1062
X8.0709Y-5.9055
X8.0835Y-5.3312
X8.0935Y-4.8812
X8.0935Y-5.1712
X8.1035Y-4.613
X8.1035Y-4.643
X8.1035Y-4.673
X8.1123Y-3.8764
X8.1235Y-4.1912
X8.1435Y-4.613
X8.1435Y-4.643
X8.1435Y-4.673
X8.1535Y-4.9912
X8.1535Y-5.1062
X8.1835Y-4.573
X8.1835Y-4.613
X8.2035Y-3.8412
X8.2035Y-3.9512
X8.2035Y-4.3312
X8.2135Y-4.8812
X8.2135Y-5.1112
X8.2135Y-5.3112
X8.2135Y-5.5612
X8.2135Y-5.6412
X8.2235Y-4.1112
X8.2535Y-5.7312
X8.2677Y-5.9055
X8.2835Y-3.2812
X8.2835Y-3.4312
X8.2835Y-3.8412
X8.2835Y-3.9412
X8.2948Y-4.0287
X8.2948Y-4.068
X8.2948Y-4.1074
X8.2948Y-4.3287
X8.2948Y-4.368
X8.2948Y-4.4074
X8.2948Y-4.6287
X8.2948Y-4.668
X8.2948Y-4.7074
X8.2948Y-5.1405
X8.2948Y-5.1798
X8.2948Y-5.2192
X8.2948Y-5.2586
X8.3335Y-3.9712
X8.3342Y-4.0287
X8.3342Y-4.068
X8.3342Y-4.1074
X8.3342Y-4.3287
X8.3342Y-4.368
X8.3342Y-4.4074
X8.3342Y-4.6287
X8.3342Y-4.668
X8.3342Y-4.7074
X8.3342Y-5.1405
X8.3342Y-5.1798
X8.3342Y-5.2192
X8.3342Y-5.2586
X8.3736Y-4.0287
X8.3736Y-4.068
X8.3736Y-4.1074
X8.3736Y-4.3287
X8.3736Y-4.368
X8.3736Y-4.4074
X8.3736Y-4.6287
X8.3736Y-4.668
X8.3736Y-4.7074
X8.3736Y-5.1405
X8.3736Y-5.1798
X8.3736Y-5.2192
X8.3736Y-5.2586
X8.3815Y-3.9764
X8.4129Y-4.0287
X8.4129Y-4.068
X8.4129Y-4.1074
X8.4129Y-4.3287
X8.4129Y-4.368
X8.4129Y-4.4074
X8.4129Y-4.6287
X8.4129Y-4.668
X8.4129Y-4.7074
X8.4129Y-5.1405
X8.4129Y-5.1798
X8.4129Y-5.2192
X8.4129Y-5.2586
X8.4265Y-3.9464
X8.4273Y-3.4858
X8.4735Y-3.5312
X8.4773Y-3.8958
X8.4835Y-5.0212
X8.4835Y-5.1012
X8.4835Y-5.1912
X8.4835Y-5.2812
X8.4835Y-5.7312
X8.4865Y-4.2864
X8.4865Y-4.5814
X8.4865Y-4.8964
X8.5274Y-3.9446
X8.563Y-5.9055
X8.5935Y-3.6412
X8.6265Y-3.9764
X8.6424Y-4.3296
X8.6474Y-4.6296
X8.6735Y-5.3712
X8.6773Y-3.9358
X8.6835Y-5.0212
X8.7235Y-5.7312
X8.7274Y-3.9746
X8.7535Y-3.4812
X8.8135Y-3.7012
X8.8135Y-5.7312
X8.8335Y-5.3712
X8.8535Y-4.0112
X8.8583Y-3.1496
X8.8583Y-5.9055
X8.9035Y-4.9812
X9.0035Y-5.3712
X9.0551Y-3.3465
X9.0551Y-3.5433
X9.0551Y-3.7402
X9.0551Y-3.937
X9.0551Y-4.1339
X9.0551Y-5.0197
X9.0551Y-5.315
X9.0551Y-5.7087
X9.0735Y-4.5612
X9.0735Y-4.8812
T2
X6.8035Y-4.0012
X6.8035Y-4.0996
X6.8035Y-4.198
X6.8035Y-4.6512
X6.8035Y-4.7496
X6.8035Y-4.848
T3
X6.9935Y-3.393
X6.9935Y-3.493
X6.9935Y-3.593
X6.9935Y-3.693
X6.9935Y-3.793
X6.9935Y-3.893
X6.9935Y-3.993
X6.9935Y-4.093
X6.9935Y-4.193
X6.9935Y-4.293
X6.9935Y-4.393
X6.9935Y-4.493
X6.9935Y-4.593
X6.9935Y-4.693
X6.9935Y-4.793
X6.9935Y-4.893
X6.9935Y-4.993
X6.9935Y-5.093
X6.9935Y-5.193
X6.9935Y-5.293
X6.9935Y-5.393
X6.9935Y-5.493
X6.9935Y-5.593
X6.9935Y-5.693
X6.9935Y-5.793
X6.9935Y-5.893
X7.7935Y-3.393
X7.7935Y-3.493
X7.7935Y-3.593
X7.7935Y-3.693
X7.7935Y-3.793
X7.7935Y-3.893
X7.7935Y-3.993
X7.7935Y-4.093
X7.7935Y-4.193
X7.7935Y-4.293
X7.7935Y-4.393
X7.7935Y-4.493
X7.7935Y-4.593
X7.7935Y-4.693
X7.7935Y-4.793
X7.7935Y-4.893
X7.7935Y-4.993
X7.7935Y-5.093
X7.7935Y-5.193
X7.7935Y-5.293
X7.7935Y-5.393
X7.7935Y-5.493
X7.7935Y-5.593
X7.7935Y-5.693
X7.7935Y-5.793
X7.7935Y-5.893
T4
X6.7035Y-5.3043
X6.7035Y-5.4028
X6.7035Y-5.5012
X6.7035Y-5.5996
X6.7035Y-5.698
T5
X8.9235Y-5.208
X8.9235Y-5.508
X8.9235Y-4.218
X8.9235Y-4.518
X8.9235Y-4.818
T6
X9.0948Y-5.6439
X9.0948Y-4.9539
T7
X6.528Y-3.9264
X6.528Y-4.2728
X6.528Y-4.5764
X6.528Y-4.9228
T8
X6.3583Y-3.2087
X8.9961Y-5.8465
X6.3583Y-5.8465
X8.9961Y-3.2087
T0
M30
